<?xml version="1.0" encoding="UTF-8"?>
<svg xmlns="http://www.w3.org/2000/svg" xmlns:xlink="http://www.w3.org/1999/xlink" viewBox="0 0 48 48" version="1.1" width="480px" height="480px">
<g id="surface1">
<path style=" fill:#2196F3;" d="M 33 17 L 10 17 C 10 19.714844 10 22.3125 10 25 L 33 25 C 34 25 34 25.53125 34 26 L 34 33 L 42 33 L 42 26 C 42 19.441406 36.480469 17 33 17 Z "/>
<path style=" fill:#2196F3;" d="M 6 12 L 11 12 L 11 30 L 6 30 Z "/>
<path style=" fill:#1565C0;" d="M 24 6 L 26 6 L 26 9 L 24 9 Z "/>
<path style=" fill:#1565C0;" d="M 22 14 L 28 14 L 28 27 L 22 27 Z "/>
<path style=" fill:#FFC107;" d="M 36 8 C 36 7.445313 35.554688 7 35 7 L 27 9 L 23 9 L 15 7 C 14.449219 7 14 7.445313 14 8 L 14 14 L 36 14 Z "/>
<path style=" fill:#FF9800;" d="M 29 11 L 27 8 L 23 8 L 21 11 L 21 15 L 29 15 Z "/>
<path style=" fill:#81D4FA;" d="M 38 42 C 36.320313 42 35 40.761719 35 39.1875 C 35 37.835938 37.039063 34.519531 37.460938 33.84375 L 38 33 L 38.539063 33.847656 C 38.960938 34.519531 41 37.894531 41 39.1875 C 41 40.761719 39.679688 42 38 42 Z "/>
</g>
</svg>
