<?xml version="1.0" encoding="UTF-8"?>
<svg xmlns="http://www.w3.org/2000/svg" xmlns:xlink="http://www.w3.org/1999/xlink" viewBox="0 0 32 32" version="1.1" width="512px" height="512px">
<g id="surface1">
<path style=" " d="M 10.5 4 C 8.578125 4 7 5.578125 7 7.5 C 7 9.421875 8.578125 11 10.5 11 L 13.1875 11 C 13.820313 11 14.207031 11.554688 13.96875 12.125 L 12.5625 15.5 C 11.6875 15.183594 10.8125 15 10 15 C 6.675781 15 4 17.675781 4 21 C 4 21.839844 4.195313 22.644531 4.5 23.34375 C 4.183594 23.816406 4 24.394531 4 25 C 4 26.644531 5.355469 28 7 28 C 7.910156 28 8.730469 27.585938 9.28125 26.9375 C 9.503906 26.972656 9.738281 27 10 27 C 11.542969 27 13.597656 26.679688 15.40625 25.96875 C 16.3125 25.613281 17.175781 25.167969 17.84375 24.53125 C 18.511719 23.894531 19 23.007813 19 22 C 19 19.980469 17.40625 18.367188 15.625 17.125 C 15.210938 16.835938 14.78125 16.585938 14.34375 16.34375 L 15.8125 12.875 C 16.574219 11.046875 15.152344 9 13.1875 9 L 10.5 9 C 9.625 9 9 8.375 9 7.5 C 9 6.625 9.625 6 10.5 6 L 15.90625 6 C 17.253906 6 18.453125 6.886719 18.84375 8.25 L 18.84375 8.28125 L 22.71875 23 L 22 23 C 21.476563 23 20.941406 23.183594 20.5625 23.5625 C 20.183594 23.941406 20 24.476563 20 25 L 20 28 L 28 28 L 28 25 C 28 24.476563 27.816406 23.941406 27.4375 23.5625 C 27.058594 23.183594 26.523438 23 26 23 L 24.78125 23 L 20.78125 7.75 L 20.75 7.75 L 20.75 7.71875 C 20.132813 5.5 18.152344 4 15.90625 4 Z M 10 17 C 11.019531 17 12.953125 17.722656 14.46875 18.78125 C 15.984375 19.839844 17 21.21875 17 22 C 17 22.390625 16.863281 22.71875 16.46875 23.09375 C 16.074219 23.46875 15.433594 23.832031 14.6875 24.125 C 13.195313 24.710938 11.257813 25 10 25 C 10 23.355469 8.644531 22 7 22 C 6.714844 22 6.449219 22.050781 6.1875 22.125 C 6.070313 21.75 6 21.371094 6 21 C 6 18.722656 7.722656 17 10 17 Z M 7 24 C 7.5625 24 8 24.4375 8 25 C 8 25.5625 7.5625 26 7 26 C 6.4375 26 6 25.5625 6 25 C 6 24.4375 6.4375 24 7 24 Z M 22 25 L 26 25 L 26 26 L 22 26 Z "/>
</g>
</svg>
