<?xml version="1.0" encoding="UTF-8"?>
<svg xmlns="http://www.w3.org/2000/svg" xmlns:xlink="http://www.w3.org/1999/xlink" viewBox="0 0 32 32" version="1.1" width="512px" height="512px">
<g id="surface1">
<path style=" " d="M 12 5 L 12 9 L 14 9 L 14 5 Z M 16 6 L 16 9 L 18 9 L 18 6 Z M 5 10 L 5 19 C 5 21.75 7.25 24 10 24 L 20 24 C 22.75 24 25 21.75 25 19 L 26 19 C 27.644531 19 29 17.644531 29 16 L 29 10 Z M 7 12 L 23 12 L 23 19 C 23 20.667969 21.667969 22 20 22 L 10 22 C 8.332031 22 7 20.667969 7 19 Z M 25 12 L 27 12 L 27 16 C 27 16.566406 26.566406 17 26 17 L 25 17 Z M 4 25 L 4 27 L 26 27 L 26 25 Z "/>
</g>
</svg>
