<?xml version="1.0" encoding="UTF-8"?>
<svg xmlns="http://www.w3.org/2000/svg" xmlns:xlink="http://www.w3.org/1999/xlink" viewBox="0 0 48 48" version="1.1" width="480px" height="480px">
<g id="surface1">
<path style=" fill:#D1C4E9;" d="M 43 40 L 5 40 L 5 14.839844 C 5 13.230469 6.296875 12 7.890625 12 L 40.109375 12 C 41.703125 12 43 13.230469 43 14.839844 Z "/>
<path style=" fill:#B39DDB;" d="M 5 40 L 43 40 L 43 42 L 5 42 Z "/>
<path style=" fill:#311B92;" d="M 9 21 L 17 21 L 17 27 L 9 27 Z "/>
<path style=" fill:#311B92;" d="M 20 21 L 28 21 L 28 27 L 20 27 Z "/>
<path style=" fill:#311B92;" d="M 9 31 L 17 31 L 17 37 L 9 37 Z "/>
<path style=" fill:#311B92;" d="M 31 21 L 39 21 L 39 27 L 31 27 Z "/>
<path style=" fill:#311B92;" d="M 31 31 L 39 31 L 39 37 L 31 37 Z "/>
<path style=" fill:#311B92;" d="M 20 31 L 28 31 L 28 42 L 20 42 Z "/>
<path style=" fill:#F44336;" d="M 30 16 C 30 17.105469 29.105469 18 28 18 L 20 18 C 18.894531 18 18 17.105469 18 16 L 18 8 C 18 6.894531 18.894531 6 20 6 L 28 6 C 29.105469 6 30 6.894531 30 8 Z "/>
<path style=" fill:#FFFFFF;" d="M 23 8 L 25 8 L 25 16 L 23 16 Z "/>
<path style=" fill:#FFFFFF;" d="M 20 11 L 28 11 L 28 13 L 20 13 Z "/>
</g>
</svg>
