<?xml version="1.0" encoding="UTF-8"?>
<svg xmlns="http://www.w3.org/2000/svg" xmlns:xlink="http://www.w3.org/1999/xlink" viewBox="0 0 32 32" version="1.1" width="512px" height="512px">
<g id="surface1">
<path style=" " d="M 4 4 L 4 28 L 6 28 L 6 20 L 13.53125 20 C 14.203125 20.574219 15.03125 21 16 21 C 16.96875 21 17.796875 20.574219 18.46875 20 L 22 20 L 22 25 L 28 25 L 28 20 C 28 16.675781 25.324219 14 22 14 L 18.46875 14 C 18.042969 13.636719 17.546875 13.332031 17 13.15625 L 17 12 L 15 12 L 15 13.15625 C 14.453125 13.332031 13.957031 13.636719 13.53125 14 L 6 14 L 6 4 Z M 11 8 C 9.894531 8 9 8.894531 9 10 C 9 11.105469 9.894531 12 11 12 C 11.738281 12 12.371094 11.597656 12.71875 11 L 19.28125 11 C 19.628906 11.597656 20.261719 12 21 12 C 22.105469 12 23 11.105469 23 10 C 23 8.894531 22.105469 8 21 8 C 20.261719 8 19.628906 8.402344 19.28125 9 L 17 9 L 17 8 L 15 8 L 15 9 L 12.71875 9 C 12.371094 8.402344 11.738281 8 11 8 Z M 16 15 C 16.605469 15 17.132813 15.261719 17.4375 15.625 L 17.71875 16 L 22 16 C 24.277344 16 26 17.722656 26 20 L 26 23 L 24 23 L 24 20 C 24 19.476563 23.816406 18.941406 23.4375 18.5625 C 23.058594 18.183594 22.523438 18 22 18 L 17.71875 18 L 17.4375 18.375 C 17.132813 18.738281 16.605469 19 16 19 C 15.394531 19 14.867188 18.738281 14.5625 18.375 L 14.28125 18 L 6 18 L 6 16 L 14.28125 16 L 14.5625 15.625 C 14.867188 15.261719 15.394531 15 16 15 Z "/>
</g>
</svg>
