<?xml version="1.0" encoding="UTF-8"?>
<svg xmlns="http://www.w3.org/2000/svg" xmlns:xlink="http://www.w3.org/1999/xlink" viewBox="0 0 48 48" version="1.1" width="480px" height="480px">
<g id="surface1">
<path style=" fill:#546E7A;" d="M 30 18 C 26.136719 18 23 21.136719 23 25 L 23 38 C 23 38.566406 23.085938 39.046875 23.226563 39.464844 C 24.0625 41.992188 27 42 27 42 L 33 42 C 33 42 37 42 37 38 L 37 25 C 37 21.136719 33.863281 18 30 18 Z M 30 22 C 28.480469 22 27.726563 22.6875 27.695313 22.71875 C 27.296875 23.09375 26.667969 23.082031 26.285156 22.691406 C 25.90625 22.296875 25.90625 21.679688 26.292969 21.292969 C 26.425781 21.160156 27.652344 20 30 20 C 32.347656 20 33.574219 21.160156 33.707031 21.292969 C 34.097656 21.683594 34.097656 22.316406 33.707031 22.707031 C 33.511719 22.902344 33.257813 23 33 23 C 32.742188 23 32.488281 22.902344 32.292969 22.707031 C 32.273438 22.6875 31.519531 22 30 22 Z "/>
<path style=" fill:#546E7A;" d="M 18 42 L 18 40 C 18 38.894531 17.105469 38 16 38 L 8 38 C 6.894531 38 6 38.894531 6 40 L 6 42 Z "/>
<path style=" fill:#37474F;" d="M 33 27 C 33 28.65625 31.65625 30 30 30 C 28.34375 30 27 28.65625 27 27 C 27 25.34375 28.34375 24 30 24 C 31.65625 24 33 25.34375 33 27 Z "/>
<path style=" fill:#CFD8DC;" d="M 35 35 C 35 33.894531 34.105469 33 33 33 L 27 33 C 25.894531 33 25 33.894531 25 35 L 25 38 C 25 39.105469 25.894531 40 27 40 L 33 40 C 34.105469 40 35 39.105469 35 38 Z "/>
<path style=" fill:#FF1744;" d="M 34 36.5 C 34 37.328125 33.328125 38 32.5 38 C 31.671875 38 31 37.328125 31 36.5 C 31 35.671875 31.671875 35 32.5 35 C 33.328125 35 34 35.671875 34 36.5 Z "/>
<path style=" fill:#90A4AE;" d="M 30 26 C 28.074219 26 25.289063 26.484375 23 27.878906 C 20.761719 29.242188 19 31.480469 19 35 C 19 37.484375 19.789063 39.378906 21.347656 40.628906 C 22.953125 41.914063 25.371094 42 27 42 C 27 42 24.0625 41.992188 23.226563 39.464844 C 23.007813 39.347656 22.792969 39.222656 22.597656 39.066406 C 21.539063 38.21875 21 36.847656 21 35 C 21 32.855469 21.835938 31.367188 23 30.335938 C 25.574219 28.050781 29.746094 28 30 28 C 30.554688 27.996094 31 27.550781 31 27 C 31 26.445313 30.550781 26 30 26 Z "/>
<path style=" fill:#90A4AE;" d="M 37 36.828125 C 39.667969 33.804688 42 29.125 42 22 C 42 15.480469 40.679688 10.878906 38.070313 8.328125 C 35.59375 5.902344 32.707031 5.96875 31.316406 6 L 24 6 C 23.894531 6 21.367188 6.027344 20.105469 8.554688 C 19.199219 10.363281 12.984375 31.363281 11.066406 38 L 13.132813 38 C 16.378906 26.46875 21.234375 10.761719 21.894531 9.445313 C 22.59375 8.050781 23.953125 8 24 8 L 31.359375 8 C 32.554688 7.96875 34.796875 7.921875 36.671875 9.757813 C 38.878906 11.917969 40 16.039063 40 22 C 40 27.183594 38.707031 30.925781 37 33.605469 Z "/>
</g>
</svg>
