<?xml version="1.0" encoding="UTF-8"?>
<svg xmlns="http://www.w3.org/2000/svg" xmlns:xlink="http://www.w3.org/1999/xlink" viewBox="0 0 48 48" version="1.1" width="480px" height="480px">
<g id="surface1">
<path style=" fill:#616161;" d="M 4 26 L 44 26 L 44 19 C 44 16.789063 42.210938 15 40 15 L 8 15 C 5.789063 15 4 16.789063 4 19 Z "/>
<path style=" fill:#424242;" d="M 9 12 L 39 12 L 39 15 L 9 15 Z "/>
<path style=" fill:#424242;" d="M 8 37 L 40 37 C 42.210938 37 44 35.210938 44 33 L 44 25 L 4 25 L 4 33 C 4 35.210938 5.789063 37 8 37 "/>
<path style=" fill:#00E676;" d="M 39 19 C 39 19.550781 39.449219 20 40 20 C 40.550781 20 41 19.550781 41 19 C 41 18.449219 40.550781 18 40 18 C 39.449219 18 39 18.449219 39 19 "/>
<path style=" fill:#242424;" d="M 37.5 32 L 10.5 32 C 9.671875 32 9 31.328125 9 30.5 C 9 29.671875 9.671875 29 10.5 29 L 37.5 29 C 38.328125 29 39 29.671875 39 30.5 C 39 31.328125 38.328125 32 37.5 32 "/>
<path style=" fill:#90CAF9;" d="M 11 5 L 37 5 L 37 15 L 11 15 Z "/>
<path style=" fill:#90CAF9;" d="M 11 32 L 37 32 L 37 43 L 11 43 Z "/>
<path style=" fill:#42A5F5;" d="M 11 30 L 37 30 L 37 32 L 11 32 Z "/>
<path style=" fill:#1976D2;" d="M 16 34 L 33 34 L 33 36 L 16 36 Z "/>
<path style=" fill:#1976D2;" d="M 16 38 L 29 38 L 29 40 L 16 40 Z "/>
</g>
</svg>
