<?xml version="1.0" encoding="UTF-8"?>
<svg xmlns="http://www.w3.org/2000/svg" xmlns:xlink="http://www.w3.org/1999/xlink" viewBox="0 0 48 48" version="1.1" width="480px" height="480px">
<g id="surface1">
<path style=" fill:#2196F3;" d="M 22 35 L 26 35 L 26 41 L 22 41 Z "/>
<path style=" fill:#2196F3;" d="M 35 44 L 13 44 L 13 42 L 22 39 L 26 39 L 35 42 Z "/>
<path style=" fill:#BBDEFB;" d="M 24.003906 36 C 15.179688 36 8 28.820313 8 20 C 8 11.179688 15.179688 4 24 4 C 32.820313 4 40 11.179688 40 20 C 40 28.820313 32.824219 36 24.003906 36 Z "/>
<path style=" fill:#2196F3;" d="M 35.3125 25.65625 C 35.703125 26.046875 35.703125 26.679688 35.3125 27.070313 C 35.3125 27.070313 29.65625 34.140625 26.828125 29.898438 L 23.292969 22.121094 L 22.585938 21.414063 C 21.171875 18.585938 12.6875 14.34375 12.6875 14.34375 C 12.296875 13.953125 12.296875 13.320313 12.6875 12.929688 C 12.6875 12.929688 18.34375 5.859375 21.171875 10.101563 L 24.707031 17.878906 L 25.414063 18.585938 C 26.828125 21.414063 35.3125 25.65625 35.3125 25.65625 Z "/>
<path style=" fill:#2196F3;" d="M 29.65625 8.6875 C 30.046875 8.296875 30.679688 8.296875 31.070313 8.6875 C 31.070313 8.6875 38.140625 14.34375 33.898438 17.171875 L 26.121094 20.707031 L 25.414063 21.414063 C 22.585938 22.828125 18.34375 31.3125 18.34375 31.3125 C 17.953125 31.703125 17.320313 31.703125 16.929688 31.3125 C 16.929688 31.3125 9.859375 25.65625 14.101563 22.828125 L 21.878906 19.292969 L 22.585938 18.585938 C 25.414063 17.171875 29.65625 8.6875 29.65625 8.6875 Z "/>
<path style=" fill:#3F51B5;" d="M 24 23 C 22.347656 23 21 21.652344 21 20 C 21 18.347656 22.347656 17 24 17 C 25.652344 17 27 18.347656 27 20 C 27 21.652344 25.652344 23 24 23 Z "/>
</g>
</svg>
