<?xml version="1.0" encoding="UTF-8"?>
<svg xmlns="http://www.w3.org/2000/svg" xmlns:xlink="http://www.w3.org/1999/xlink" viewBox="0 0 32 32" version="1.1" width="512px" height="512px">
<g id="surface1">
<path style=" " d="M 5 5 L 5 27 L 27 27 L 27 5 Z M 7 7 L 25 7 L 25 11 L 7 11 Z M 17 8 C 16.449219 8 16 8.449219 16 9 C 16 9.550781 16.449219 10 17 10 C 17.550781 10 18 9.550781 18 9 C 18 8.449219 17.550781 8 17 8 Z M 20 8 C 19.449219 8 19 8.449219 19 9 C 19 9.550781 19.449219 10 20 10 C 20.550781 10 21 9.550781 21 9 C 21 8.449219 20.550781 8 20 8 Z M 23 8 C 22.449219 8 22 8.449219 22 9 C 22 9.550781 22.449219 10 23 10 C 23.550781 10 24 9.550781 24 9 C 24 8.449219 23.550781 8 23 8 Z M 7 13 L 25 13 L 25 25 L 7 25 Z M 9 14 L 9 18 C 9 19.292969 9.84375 20.394531 11 20.8125 L 11 22 L 9 22 L 9 24 L 15 24 L 15 22 L 13 22 L 13 20.8125 C 14.15625 20.394531 15 19.292969 15 18 L 15 14 Z M 18 14 L 18 24 L 20 24 L 20 23 C 21.644531 23 23 21.644531 23 20 L 23 18 C 23 16.355469 21.644531 15 20 15 L 20 14 Z M 11 16 L 13 16 L 13 18 C 13 18.554688 12.554688 19 12 19 C 11.445313 19 11 18.554688 11 18 Z M 20 17 C 20.554688 17 21 17.445313 21 18 L 21 20 C 21 20.554688 20.554688 21 20 21 Z "/>
</g>
</svg>
