<?xml version="1.0" encoding="UTF-8"?>
<svg xmlns="http://www.w3.org/2000/svg" xmlns:xlink="http://www.w3.org/1999/xlink" viewBox="0 0 48 48" version="1.1" width="480px" height="480px">
<g id="surface1">
<path style=" fill:#CFD8DC;" d="M 8 4 L 40 4 L 40 44 L 8 44 Z "/>
<path style=" fill:#455A64;" d="M 36 40 L 12 40 C 11.398438 40 11 39.5 11 39 L 11 17 C 11 16.5 11.398438 16 12 16 L 36 16 C 36.5 16 37 16.5 37 17 L 37 39 C 37 39.5 36.5 40 36 40 Z "/>
<path style=" fill:#546E7A;" d="M 8 4 L 40 4 L 40 12 L 8 12 Z "/>
<path style=" fill:#AEEA00;" d="M 31 7 L 38 7 L 38 9 L 31 9 Z "/>
<path style=" fill:#CFD8DC;" d="M 14 8 C 14 9.105469 13.105469 10 12 10 C 10.894531 10 10 9.105469 10 8 C 10 6.894531 10.894531 6 12 6 C 13.105469 6 14 6.894531 14 8 Z "/>
<path style=" fill:#263238;" d="M 27 10 L 21 10 C 20.5 10 20 9.601563 20 9 L 20 7 C 20 6.398438 20.5 6 21 6 L 27 6 C 27.5 6 28 6.398438 28 7 L 28 9 C 28 9.601563 27.5 10 27 10 Z "/>
<path style=" fill:#E3F2FD;" d="M 28 20 C 28 20 30 21 30 23 C 30 25 30 31 30 33 C 30 35 28 36 28 36 Z M 32 36 C 32 36 34 35 34 33 C 34 31 34 25 34 23 C 34 21 32 20 32 20 Z M 24 36 C 24 36 26 35 26 33 C 26 31 26 29 26 27 C 26 25 24 24 24 24 Z "/>
<path style=" fill:#80D8FF;" d="M 19 34 L 19 30.800781 C 20.699219 30.300781 22 28.800781 22 26.898438 L 21 21.898438 L 15 21.898438 L 14 26.898438 C 14 28.800781 15.300781 30.300781 17 30.800781 L 17 34 C 16 34 15 36 15 36 L 21 36 C 21 36 20.300781 34 19 34 Z "/>
</g>
</svg>
