<?xml version="1.0" encoding="UTF-8"?>
<svg xmlns="http://www.w3.org/2000/svg" xmlns:xlink="http://www.w3.org/1999/xlink" viewBox="0 0 32 32" version="1.1" width="512px" height="512px">
<g id="surface1">
<path style=" " d="M 28.5625 7.09375 L 26.25 8.25 L 26.09375 8.5625 L 24.46875 12 L 15.15625 12 L 17.15625 14 L 24.8125 14 C 24.867188 14.015625 25.359375 14.144531 25.90625 14.5625 C 26.484375 15.003906 27 15.609375 27 16.8125 C 27 17.605469 26.476563 18.300781 25.84375 18.84375 C 25.417969 19.207031 25.234375 19.28125 25 19.40625 C 24.445313 19.117188 23 18.242188 23 16 L 21 16 C 21 16.707031 21.121094 17.347656 21.3125 17.90625 C 21.207031 17.996094 21.066406 18.113281 20.8125 18.25 C 20.363281 18.492188 19.613281 18.765625 18.5 18.90625 C 18.527344 18.085938 18.164063 17.203125 17.46875 16.5 C 15.582031 14.597656 12.6875 11.113281 10.90625 9.59375 C 10.496094 9.246094 9.984375 9.050781 9.5 9 C 9.015625 8.949219 8.554688 9.042969 8.15625 9.28125 C 7.359375 9.757813 6.917969 10.75 7.125 11.75 C 7.128906 11.777344 7.179688 11.964844 7.1875 12 L 3 12 L 3 13.28125 L 3.03125 13.34375 C 3.03125 13.34375 3.292969 14.960938 4.28125 16.59375 C 5.171875 18.066406 6.777344 19.640625 9.1875 19.9375 C 9.507813 21.175781 9.933594 22.863281 9.96875 23 L 6 23 L 6 25 L 12 25 L 12 22.875 L 11.96875 22.75 C 11.96875 22.75 11.292969 20.136719 10.59375 17.40625 C 9.894531 14.675781 9.136719 11.703125 9.0625 11.34375 C 9.011719 11.097656 9.117188 11.042969 9.1875 11 C 9.257813 10.957031 9.308594 10.882813 9.59375 11.125 C 11.015625 12.335938 14.050781 15.878906 16.0625 17.90625 C 16.457031 18.300781 16.519531 18.585938 16.5 18.84375 C 16.480469 19.101563 16.335938 19.398438 16.09375 19.625 C 15.851563 19.851563 15.523438 19.984375 15.25 20 C 14.976563 20.015625 14.773438 19.949219 14.53125 19.6875 C 13.828125 18.917969 12.945313 17.929688 11.6875 16.5 C 12.046875 17.90625 12.433594 19.40625 12.78125 20.75 C 12.882813 20.859375 12.988281 20.949219 13.0625 21.03125 C 13.691406 21.71875 14.542969 22.046875 15.34375 22 C 16.085938 21.957031 16.765625 21.648438 17.3125 21.1875 L 20.90625 24.71875 L 21.1875 25 L 24 25 L 24 23 L 22.03125 23 L 19.71875 20.75 C 20.570313 20.570313 21.242188 20.308594 21.75 20.03125 C 21.96875 19.914063 22.148438 19.777344 22.3125 19.65625 C 23.339844 20.925781 24.59375 21.5 24.59375 21.5 L 25 21.6875 L 25.40625 21.5 C 25.40625 21.5 26.289063 21.117188 27.15625 20.375 C 28.023438 19.632813 29 18.433594 29 16.8125 C 29 14.957031 28.015625 13.667969 27.09375 12.96875 C 26.863281 12.792969 26.621094 12.652344 26.40625 12.53125 L 27.75 9.75 L 29.4375 8.90625 Z M 5.375 14 L 7.6875 14 C 7.980469 15.183594 8.191406 16.121094 8.625 17.8125 C 7.371094 17.429688 6.582031 16.527344 6 15.5625 C 5.53125 14.785156 5.515625 14.492188 5.375 14 Z "/>
</g>
</svg>
