<?xml version="1.0" encoding="UTF-8"?>
<svg xmlns="http://www.w3.org/2000/svg" xmlns:xlink="http://www.w3.org/1999/xlink" viewBox="0 0 48 48" version="1.1" width="480px" height="480px">
<g id="surface1">
<path style=" fill:#F57C00;" d="M 13 42 C 13 42 21 6.003906 24 6 C 27 6 36 42 36 42 Z "/>
<path style=" fill:#D84315;" d="M 6 42 C 6 42 14 13.003906 16 13 C 18 13 22 27 22 27 C 22 27 23 23 25 23 C 27 23 29 31 29 31 C 29 31 33 18 35 18 C 37 18 43 42 43 42 Z "/>
<path style=" fill:#3E2723;" d="M 17 42 C 17 36.476563 20.6875 32 24 32 C 27.3125 32 31 36.476563 31 42 Z "/>
</g>
</svg>
