<?xml version="1.0" encoding="UTF-8"?>
<svg xmlns="http://www.w3.org/2000/svg" xmlns:xlink="http://www.w3.org/1999/xlink" viewBox="0 0 32 32" version="1.1" width="512px" height="512px">
<g id="surface1">
<path style=" " d="M 4 5 L 4 21 C 4 22.644531 5.355469 24 7 24 L 7.09375 24 C 7.5625 26.277344 9.585938 28 12 28 C 13.640625 28 15.089844 27.195313 16 25.96875 C 16.910156 27.195313 18.359375 28 20 28 C 22.414063 28 24.4375 26.277344 24.90625 24 L 29.46875 24 L 28.9375 22.625 L 28.15625 20.65625 C 28.644531 19.902344 28.988281 19.03125 29 18.0625 C 29.035156 15.300781 26.683594 13.148438 24 13.03125 L 24 10 L 25 10 L 25 8 L 18 8 L 18 10 L 19 10 L 19 13 L 13 13 L 13 7 L 15 7 L 15 5 Z M 6 7 L 11 7 L 11 13 L 6 13 Z M 21 10 L 22 10 L 22 15 L 23.78125 15 C 25.46875 15 27.019531 16.414063 27 18.03125 C 26.992188 18.746094 26.722656 19.382813 26.28125 19.90625 L 25.90625 20.375 L 26.125 20.9375 L 26.53125 22 L 24.90625 22 C 24.4375 19.722656 22.414063 18 20 18 C 18.359375 18 16.910156 18.804688 16 20.03125 C 15.089844 18.804688 13.640625 18 12 18 C 9.585938 18 7.5625 19.722656 7.09375 22 L 7 22 C 6.433594 22 6 21.566406 6 21 L 6 15 L 21 15 Z M 12 20 C 12.882813 20 13.667969 20.390625 14.21875 21 L 17.78125 21 C 18.332031 20.390625 19.117188 20 20 20 C 21.652344 20 23 21.347656 23 23 C 23 24.652344 21.652344 26 20 26 C 19.117188 26 18.332031 25.609375 17.78125 25 L 14.21875 25 C 13.667969 25.609375 12.882813 26 12 26 C 10.347656 26 9 24.652344 9 23 C 9 21.347656 10.347656 20 12 20 Z M 12 22 L 12 24 L 20 24 L 20 22 Z "/>
</g>
</svg>
