<?xml version="1.0" encoding="UTF-8"?>
<svg xmlns="http://www.w3.org/2000/svg" xmlns:xlink="http://www.w3.org/1999/xlink" viewBox="0 0 32 32" version="1.1" width="512px" height="512px">
<g id="surface1">
<path style=" " d="M 16 4 C 15.582031 4 15.273438 4.199219 15.0625 4.375 C 14.851563 4.550781 14.710938 4.722656 14.5625 4.9375 C 14.265625 5.367188 13.996094 5.910156 13.71875 6.5625 C 13.386719 7.351563 13.027344 8.589844 12.6875 9.6875 C 12.285156 9.296875 11.746094 9 11.21875 9 C 10.660156 9 10.261719 9.265625 9.9375 9.5625 C 9.613281 9.859375 9.339844 10.246094 9.0625 10.6875 C 8.503906 11.570313 7.949219 12.761719 7.375 14.28125 C 6.226563 17.320313 5.046875 21.613281 4.03125 26.8125 L 3.78125 28 L 12.78125 28 L 12.96875 27.25 C 13.199219 26.371094 13.644531 25.214844 14.21875 24.34375 C 14.792969 23.472656 15.398438 23 16 23 C 16.601563 23 17.179688 23.441406 17.75 24.3125 C 18.320313 25.183594 18.773438 26.382813 19.03125 27.28125 L 19.25 28 L 28.1875 28 L 28 26.8125 C 27.261719 22.582031 26.367188 19.054688 25.53125 16.53125 C 25.113281 15.269531 24.726563 14.28125 24.3125 13.53125 C 24.105469 13.15625 23.882813 12.832031 23.625 12.5625 C 23.367188 12.292969 23.03125 12 22.46875 12 C 21.496094 12 21.011719 12.636719 20.5 13.40625 C 20.417969 13.53125 20.332031 13.796875 20.25 13.9375 C 19.746094 11.746094 19.253906 9.386719 18.78125 7.9375 C 18.429688 6.863281 18.082031 5.996094 17.71875 5.34375 C 17.539063 5.019531 17.375 4.746094 17.125 4.5 C 16.875 4.253906 16.496094 4 16 4 Z M 16.03125 6.4375 C 16.273438 6.894531 16.566406 7.585938 16.875 8.53125 C 17.53125 10.542969 18.28125 13.519531 19.03125 17.1875 L 19.8125 21 L 20.96875 17.3125 C 21.382813 15.980469 21.800781 15.035156 22.15625 14.5 C 22.375 14.171875 22.308594 14.226563 22.34375 14.1875 C 22.410156 14.285156 22.476563 14.339844 22.5625 14.5 C 22.875 15.066406 23.261719 15.964844 23.65625 17.15625 C 24.351563 19.253906 25.054688 22.484375 25.71875 26 L 20.65625 26 C 20.359375 25.105469 20.035156 24.132813 19.4375 23.21875 C 18.683594 22.070313 17.554688 21 16 21 C 14.445313 21 13.324219 22.070313 12.5625 23.21875 C 11.960938 24.125 11.632813 25.097656 11.34375 26 L 6.25 26 C 7.191406 21.46875 8.253906 17.636719 9.25 15 C 9.792969 13.558594 10.3125 12.441406 10.75 11.75 C 10.960938 11.414063 11.160156 11.175781 11.28125 11.0625 C 11.289063 11.066406 11.261719 11.035156 11.34375 11.125 C 11.507813 11.300781 11.773438 11.703125 12.09375 12.40625 L 13.25 14.96875 L 13.96875 12.25 C 14.511719 10.214844 15.070313 8.503906 15.5625 7.34375 C 15.742188 6.917969 15.886719 6.6875 16.03125 6.4375 Z "/>
</g>
</svg>
