<?xml version="1.0" encoding="UTF-8"?>
<svg xmlns="http://www.w3.org/2000/svg" xmlns:xlink="http://www.w3.org/1999/xlink" viewBox="0 0 32 32" version="1.1" width="512px" height="512px">
<g id="surface1">
<path style=" " d="M 24 2 L 22.59375 3.40625 L 23.875 4.6875 L 12.5 16.0625 L 9.71875 13.28125 L 9 12.59375 L 8.28125 13.28125 L 3.15625 18.40625 L 3.09375 18.59375 C 3.09375 18.59375 0.691406 23.746094 3.125 28.46875 L 3.25 28.75 L 3.5625 28.90625 C 8.574219 31.390625 13.4375 28.90625 13.4375 28.90625 L 13.59375 28.8125 L 13.71875 28.71875 L 18.71875 23.71875 L 19.40625 23 L 18.71875 22.28125 L 15.9375 19.5 L 27.3125 8.125 L 28.59375 9.40625 L 30 8 L 28 6 L 27.28125 5.3125 L 26.71875 4.71875 Z M 25.3125 6.125 L 25.875 6.6875 L 13.3125 19.25 L 12.21875 19.78125 L 12.75 18.6875 Z M 9 15.4375 L 11.09375 17.53125 L 11.03125 17.625 L 9.09375 21.5625 L 7.8125 24.1875 L 10.4375 22.90625 L 14.375 20.96875 L 14.46875 20.90625 L 16.5625 23 L 12.4375 27.125 C 12.253906 27.214844 8.632813 28.886719 4.78125 27.1875 C 3.207031 23.675781 4.777344 19.796875 4.875 19.5625 Z "/>
</g>
</svg>
