<?xml version="1.0" encoding="UTF-8"?>
<svg xmlns="http://www.w3.org/2000/svg" xmlns:xlink="http://www.w3.org/1999/xlink" viewBox="0 0 32 32" version="1.1" width="512px" height="512px">
<g id="surface1">
<path style=" " d="M 18.6875 5 C 17.5 5.003906 16.238281 5.152344 14.9375 5.4375 C 12.34375 6.007813 10.167969 6.992188 8.59375 8.28125 C 7.019531 9.570313 6 11.1875 6 12.9375 C 6 13.765625 6.382813 14.519531 6.9375 15.09375 C 7.324219 15.648438 8.566406 17.316406 10.75 18.625 C 11.117188 19.203125 12.148438 20.726563 14 21.875 C 14.070313 22.230469 14.242188 22.894531 14.75 23.71875 C 15.132813 24.339844 15.753906 24.992188 16.59375 25.4375 C 16.289063 25.746094 15.84375 26 15 26 L 15 28 C 16.542969 28 17.648438 27.273438 18.25 26.5625 C 18.421875 26.363281 18.542969 26.160156 18.65625 25.96875 C 18.742188 25.972656 18.820313 26 18.90625 26 C 20.070313 26 21.59375 25.71875 21.59375 25.71875 L 21.25 23.75 C 21.25 23.75 19.710938 24 18.90625 24 C 17.632813 24 17.019531 23.492188 16.59375 22.875 C 16.996094 22.949219 17.40625 23 17.84375 23 C 20.472656 23 23.0625 22.34375 23.0625 22.34375 L 22.59375 20.40625 C 22.59375 20.40625 20.125 21 17.84375 21 C 16.742188 21 15.75 20.546875 14.90625 19.96875 C 15.09375 19.980469 15.277344 20 15.46875 20 C 18.605469 20 21.03125 19.382813 22.65625 18.75 C 24.28125 18.117188 25.1875 17.4375 25.1875 17.4375 L 23.96875 15.84375 C 23.96875 15.84375 23.324219 16.324219 21.90625 16.875 C 20.488281 17.425781 18.34375 18 15.46875 18 C 14.132813 18 12.910156 17.550781 11.875 16.9375 C 13.5 17.070313 15.308594 16.949219 17.125 16.53125 L 17.125 16.5625 C 19.742188 15.992188 22.011719 14.9375 23.625 13.625 C 25.238281 12.3125 26.300781 10.597656 25.9375 8.8125 C 25.578125 7.035156 23.945313 5.933594 21.96875 5.40625 C 20.980469 5.140625 19.875 4.996094 18.6875 5 Z M 18.6875 7 C 19.722656 6.996094 20.652344 7.101563 21.4375 7.3125 C 23.007813 7.730469 23.816406 8.464844 23.96875 9.21875 C 24.121094 9.960938 23.644531 11.003906 22.34375 12.0625 C 21.042969 13.121094 19.039063 14.082031 16.6875 14.59375 C 14.367188 15.125 12 15.109375 10.34375 14.6875 C 9.515625 14.476563 8.878906 14.160156 8.5 13.84375 C 8.488281 13.832031 8.480469 13.824219 8.46875 13.8125 C 8.449219 13.785156 8.34375 13.65625 8.34375 13.65625 L 8.3125 13.6875 C 8.078125 13.441406 8 13.199219 8 12.9375 C 8 11.976563 8.609375 10.878906 9.875 9.84375 C 11.140625 8.808594 13.039063 7.886719 15.375 7.375 C 16.539063 7.117188 17.652344 7.003906 18.6875 7 Z M 17.5625 9 C 14.703125 9.074219 12.160156 10.203125 10.59375 12.15625 L 12.15625 13.40625 C 13.652344 11.539063 16.75 10.515625 20.09375 11.25 L 20.5 9.28125 C 19.507813 9.0625 18.515625 8.976563 17.5625 9 Z "/>
</g>
</svg>
