<?xml version="1.0" encoding="UTF-8"?>
<svg xmlns="http://www.w3.org/2000/svg" xmlns:xlink="http://www.w3.org/1999/xlink" viewBox="0 0 48 48" version="1.1" width="480px" height="480px">
<g id="surface1">
<path style=" fill:#546E7A;" d="M 25.554688 33.894531 C 25.554688 33.894531 22.074219 37.398438 20.546875 38.933594 C 19.027344 40.46875 12.011719 43.109375 6.960938 41.089844 C 4.402344 35.449219 7.585938 28.945313 9.109375 27.414063 C 10.632813 25.882813 14.113281 22.378906 14.113281 22.378906 Z "/>
<path style=" fill:#546E7A;" d="M 38.425781 15.179688 L 32.703125 9.421875 L 35.5625 6.539063 L 41.285156 12.300781 Z "/>
<path style=" fill:#FFC107;" d="M 29.84375 15.179688 L 18.402344 26.695313 C 17.84375 27.257813 12.792969 32.574219 14.21875 34 C 15.644531 35.425781 20.703125 30.136719 21.261719 29.574219 L 32.703125 18.058594 L 31.988281 17.335938 Z "/>
<path style=" fill:#FFC107;" d="M 31.132813 18.488281 L 30.84375 16.476563 L 31.84375 16.332031 C 31.890625 16.324219 36.574219 15.601563 39.855469 12.300781 L 40.570313 11.578125 L 42 13.019531 L 41.285156 13.738281 C 37.511719 17.535156 32.347656 18.316406 32.132813 18.347656 Z "/>
<path style=" fill:#FFC107;" d="M 31.414063 17.050781 L 29.414063 16.761719 L 29.558594 15.753906 C 29.589844 15.535156 30.363281 10.335938 34.132813 6.539063 L 34.847656 5.820313 L 36.277344 7.261719 L 35.5625 7.980469 C 32.28125 11.285156 31.566406 15.996094 31.558594 16.042969 Z "/>
</g>
</svg>
