<?xml version="1.0" encoding="UTF-8"?>
<svg xmlns="http://www.w3.org/2000/svg" xmlns:xlink="http://www.w3.org/1999/xlink" viewBox="0 0 32 32" version="1.1" width="512px" height="512px">
<g id="surface1">
<path style=" " d="M 22 5 C 20.355469 5 19 6.355469 19 8 C 19 9.644531 20.355469 11 22 11 C 22.523438 11 22.820313 10.90625 22.6875 10.90625 L 22.6875 8.90625 C 22.152344 8.90625 22.078125 9 22 9 C 21.445313 9 21 8.554688 21 8 C 21 7.445313 21.445313 7 22 7 C 22.078125 7 22.261719 7.054688 22.34375 7.09375 L 23.25 5.3125 C 22.929688 5.152344 22.523438 5 22 5 Z M 28 7 C 27.449219 7 27 7.449219 27 8 C 27 8.550781 27.449219 9 28 9 C 28.550781 9 29 8.550781 29 8 C 29 7.449219 28.550781 7 28 7 Z M 26 10 C 25.449219 10 25 10.449219 25 11 C 25 11.550781 25.449219 12 26 12 C 26.550781 12 27 11.550781 27 11 C 27 10.449219 26.550781 10 26 10 Z M 13 12.4375 L 2.21875 25.375 L 0.875 27 L 31.21875 27 L 29.75 25.34375 L 21.84375 16.34375 L 21.125 15.5 L 20.375 16.3125 L 18.1875 18.65625 L 13.78125 13.375 Z M 13 15.5625 L 20.875 25 L 5.125 25 Z M 21.09375 18.5 L 26.78125 25 L 23.46875 25 L 19.46875 20.21875 Z "/>
</g>
</svg>
