<?xml version="1.0" encoding="UTF-8"?>
<svg xmlns="http://www.w3.org/2000/svg" xmlns:xlink="http://www.w3.org/1999/xlink" viewBox="0 0 32 32" version="1.1" width="512px" height="512px">
<g id="surface1">
<path style=" " d="M 15.625 6 C 13.175781 5.976563 11.089844 7.136719 9.5 8.5 C 7.910156 9.863281 6.789063 11.433594 6.15625 12.46875 L 5.21875 14 L 7.375 14 C 6.59375 15 5.664063 16.335938 5.09375 17.59375 L 5 17.78125 L 5 19.5625 L 6.34375 19.03125 C 6.917969 18.808594 7.746094 18.65625 8.59375 18.4375 C 8.082031 20.359375 7.933594 22.09375 8.15625 23.1875 L 8.3125 24 L 9.6875 24 L 9.96875 23.6875 C 10.421875 23.222656 11.949219 22.570313 12.71875 22.25 C 13.847656 24.109375 15.390625 25.386719 16.59375 25.90625 L 18 26.53125 L 18 25 C 18 22.371094 18.558594 20.015625 19.4375 18.40625 C 20.316406 16.796875 21.398438 16 22.65625 16 L 25.875 16 C 26.960938 16 27.738281 16.332031 28 17 L 28 14.96875 C 28 14.011719 27.671875 11.390625 25.03125 11.03125 C 24.964844 10.582031 24.785156 10.140625 24.53125 9.78125 C 24.027344 9.074219 23.304688 8.453125 22.40625 7.90625 C 20.605469 6.8125 18.140625 6 15.625 6 Z M 15.625 8 C 17.691406 8 19.867188 8.726563 21.34375 9.625 C 22.082031 10.074219 22.644531 10.566406 22.90625 10.9375 C 23.167969 11.308594 23.136719 11.382813 23.125 11.40625 L 23.09375 11.4375 L 23.09375 11.46875 L 21.9375 14.125 C 20.136719 14.414063 18.625 15.664063 17.65625 17.4375 C 16.789063 19.027344 16.375 21.082031 16.1875 23.28125 C 15.335938 22.660156 14.441406 21.820313 13.90625 20.59375 L 13.5625 19.78125 L 12.71875 20.03125 C 12.207031 20.183594 11.148438 20.675781 10.09375 21.28125 C 10.109375 20.203125 10.234375 18.925781 10.90625 17.40625 L 11.6875 15.6875 L 9.8125 16 C 9.445313 16.0625 8.753906 16.316406 8.15625 16.46875 C 9.171875 15.011719 10.25 13.65625 10.25 13.65625 L 11.78125 12 L 9.15625 12 C 9.6875 11.320313 10.046875 10.6875 10.8125 10.03125 C 12.175781 8.863281 13.824219 7.984375 15.625 8 Z M 17 11 C 17 11.832031 17.769531 13 19 13 C 20.496094 13 21 12 21 12 Z "/>
</g>
</svg>
