<?xml version="1.0" encoding="UTF-8"?>
<svg xmlns="http://www.w3.org/2000/svg" xmlns:xlink="http://www.w3.org/1999/xlink" viewBox="0 0 32 32" version="1.1" width="512px" height="512px">
<g id="surface1">
<path style=" " d="M 8.125 4.5 L 5.90625 8.375 C 4.628906 10.613281 4.695313 13.375 6.0625 15.5625 L 7.25 17.5 C 8.226563 19.0625 8.257813 21.023438 7.34375 22.625 L 5.125 26.5 L 6.875 27.5 L 9.09375 23.625 C 10.371094 21.386719 10.304688 18.625 8.9375 16.4375 L 7.75 14.5 C 6.773438 12.9375 6.742188 10.976563 7.65625 9.375 L 9.875 5.5 Z M 16.625 4.5 L 14.40625 8.375 C 13.128906 10.613281 13.195313 13.375 14.5625 15.5625 L 15.75 17.5 C 16.726563 19.0625 16.757813 21.023438 15.84375 22.625 L 13.625 26.5 L 15.375 27.5 L 17.59375 23.625 C 18.871094 21.386719 18.804688 18.625 17.4375 16.4375 L 16.25 14.5 C 15.273438 12.9375 15.242188 10.976563 16.15625 9.375 L 18.375 5.5 Z M 25.125 4.5 L 22.90625 8.375 C 21.628906 10.613281 21.695313 13.375 23.0625 15.5625 L 24.25 17.5 C 25.226563 19.0625 25.257813 21.023438 24.34375 22.625 L 22.125 26.5 L 23.875 27.5 L 26.09375 23.625 C 27.371094 21.386719 27.304688 18.625 25.9375 16.4375 L 24.75 14.5 C 23.773438 12.9375 23.742188 10.976563 24.65625 9.375 L 26.875 5.5 Z "/>
</g>
</svg>
