<?xml version="1.0" encoding="iso-8859-1"?>
<!-- Generator: Adobe Illustrator 21.1.0, SVG Export Plug-In . SVG Version: 6.00 Build 0)  -->
<svg xmlns="http://www.w3.org/2000/svg" xmlns:xlink="http://www.w3.org/1999/xlink" version="1.1" id="Layer_1" x="0px" y="0px" viewBox="0 0 48 48" style="enable-background:new 0 0 48 48;" xml:space="preserve" width="480px" height="480px">
<g>
</g>
<path style="fill:#FB8C00;" d="M39,22.375C40.519,19.717,42,18,42,8c0-3-1-4-3.125-4C33.125,4,29,13,29,13s-2,1-5,1s-5-1-5-1  s-4.125-9-9.875-9c-1.97,0-2.973,0.859-3.109,3.375C6.005,7.573,6,7.781,6,8c0,10,1.481,11.717,3,14.375  c0,0-2.684,3.243-3.821,6.978C5.114,29.568,5.054,29.783,5,30c1,0,3.875,2,3.875,4L16,39h16l7.125-5c0-2,2.875-4,3.875-4  C42,26,39,22.375,39,22.375z"/>
<path style="fill:#D7CCC8;" d="M38.202,6.082C38.222,6.077,38.604,6,38.625,6c0.125-0.001,0.214,0,0.25,0C39.716,6,40,6,40,8  c0,10.5-3,13-3,13s0-3-1-4c-0.75,1-2,1-2,1s0.774-5.088,0.25-6.5C34.25,11.5,35.16,6.781,38.202,6.082z"/>
<path style="fill:#BCAAA4;" d="M38.75,5.999c-3.75,0-6.75,8-6.75,8s1-1,2-1C34,15,34,16.75,34,18c0,0,2-3,2-7c0-3.375,3-5,3-5  L38.75,5.999z"/>
<path style="fill:#D7CCC8;" d="M9.798,6.082C9.778,6.077,9.396,6,9.375,6C9.25,5.999,9.161,6,9.125,6C8.284,6,8,6,8,8  c0,10.5,3,13,3,13s0-3,1-4c0.75,1,2,1,2,1s-0.774-5.088-0.25-6.5C13.75,11.5,12.84,6.781,9.798,6.082z"/>
<path style="fill:#BCAAA4;" d="M9.25,5.999c3.75,0,6.75,8,6.75,8s-1-1-2-1C14,15,14,16.75,14,18c0,0-2-3-2-7c0-3.375-3-5-3-5  L9.25,5.999z"/>
<path style="fill:#FF9800;" d="M27.875,25C29,23,33,22,33,22v1c1.25,0,2-1,2-1s0,3-1,4c-2.379,2.379-6.6,3.238-7,5  C27,29.323,26.882,26.765,27.875,25z"/>
<path style="fill:#F57C00;" d="M27,31.976C27,34.425,29.57,37,29.57,37S36,34.057,36,25.122c0,0-1-0.122-4-0.122  C28,25,27,27.815,27,31.976z"/>
<path style="fill:#FF9800;" d="M20.125,25C19,23,15,22,15,22v1c-1.25,0-2-1-2-1s0,3,1,4c2.379,2.379,6.6,3.238,7,5  C21,29.323,21.118,26.765,20.125,25z"/>
<path style="fill:#F57C00;" d="M16,25c-3,0-4,0-4,0c0,9.027,6.43,12,6.43,12S21,34.398,21,31.925C21,27.721,20,25,16,25z"/>
<path style="fill:#F57C00;" d="M24,12c-3,0-5,1-5,1s1,2.75,1,4c0,0,1.625-0.125,2-1c0,1.125,2,2,2,2s2-0.875,2-2  c0.375,0.875,2,1,2,1c0-1.25,1-4,1-4S27,12,24,12z"/>
<path style="fill:#D7CCC8;" d="M43,33c0,0-2-1-7-1s-6.5,5-6.5,5l-1.327,5.962c0,0,11.827-3.087,13.827-5.962c-2,0-3-1-3-1  C42,35.5,43,33,43,33z"/>
<path style="fill:#D7CCC8;" d="M12,32c-5,0-7,1-7,1s1,2.5,4,3c0,0-1,1-3,1c2,2.875,13.827,5.962,13.827,5.962L18.5,37  C18.5,37,17,32,12,32z"/>
<path style="fill:#BCAAA4;" d="M26,36h-1.992H24h-0.008H22c-3.038,0-4,0.791-4,3c0,3,1.962,5,5,5h0.992H24h0.008H25c3.038,0,5-2,5-5  C30,36.791,29.038,36,26,36z"/>
<path style="fill:#A1887F;" d="M21.438,43.778L21.438,43.778c0.028,0.008,0.056,0.016,0.084,0.023  c0.228,0.058,0.464,0.104,0.71,0.134C22.483,43.966,22.732,44,23,44h0.992H24h0.008H25c0.235,0,0.451-0.033,0.673-0.057  c0.018-0.011,0.036-0.003,0.054-0.005c0.016-0.002,0.033-0.002,0.049-0.004h0c0.244-0.03,0.477-0.076,0.703-0.134  c0.029-0.007,0.058-0.016,0.086-0.024c0.003-0.001,0.005-0.001,0.008-0.002l0,0c0.651-0.179,1.222-0.468,1.704-0.857  c-2.278-0.042-4.153-2.171-4.147-3.042h-0.255c0,0.872-1.875,3-4.153,3.042C20.207,43.309,20.782,43.6,21.438,43.778z"/>
<path style="fill:#3E2723;" d="M24.008,36.003c-0.003,0-0.005,0-0.008,0s-0.005,0-0.008,0c-1.653,0-2.992-0.105-2.992,0.999  C21,38.106,23.016,40,24.008,40S27,38.106,27,37.002C27,35.898,25.66,36.003,24.008,36.003z"/>
<path style="fill:#795548;" d="M31.25,27c2.129,0,2.75,0,2.75,0s-1.026,0.804-1,1.75c0.038,1.354-0.855,3.25-3,3.25  c-1.125,0-3-0.001-3-0.001S26.993,27,31.25,27z"/>
<path style="fill:#FFB300;" d="M30.5,28c0.514,0,0.928,0.053,1.289,0.123C31.92,28.388,32,28.684,32,29c0,1.105-0.895,2-2,2  c-0.722,0-1.349-0.386-1.7-0.959C28.607,29.027,29.23,28,30.5,28z"/>
<path style="fill:#212121;" d="M30.169,28.034C30.638,28.117,31,28.508,31,29c0,0.552-0.448,1-1,1s-1-0.448-1-1  c0-0.145,0.034-0.282,0.09-0.406C29.37,28.307,29.725,28.104,30.169,28.034z"/>
<path style="fill:#795548;" d="M16.743,27C14.614,27,14,27,14,27s1.026,0.804,1,1.75C14.962,30.104,15.855,32,18,32  c1.125,0,3-0.001,3-0.001S21,27,16.743,27z"/>
<path style="fill:#FFB300;" d="M17.5,28c-0.514,0-0.928,0.053-1.289,0.123C16.08,28.388,16,28.684,16,29c0,1.105,0.895,2,2,2  c0.722,0,1.349-0.386,1.7-0.959C19.393,29.027,18.77,28,17.5,28z"/>
<path style="fill:#212121;" d="M17.831,28.034C17.362,28.117,17,28.508,17,29c0,0.552,0.448,1,1,1s1-0.448,1-1  c0-0.145-0.034-0.282-0.09-0.406C18.63,28.307,18.275,28.104,17.831,28.034z"/>
</svg>
