<?xml version="1.0" encoding="utf-8"?>
<!-- Generator: Adobe Illustrator 21.0.2, SVG Export Plug-In . SVG Version: 6.00 Build 0)  -->
<svg xmlns="http://www.w3.org/2000/svg" xmlns:xlink="http://www.w3.org/1999/xlink" version="1.1" id="Layer_1" x="0px" y="0px" viewBox="0 0 48 48" style="enable-background:new 0 0 48 48;" xml:space="preserve" width="480px" height="480px">
<g id="surface1">
	<path style="fill:#C0CA33;" d="M37,14l-5,3.1c0.4,1.1,3,8.9,4,8.9c1,0,2-1,2-1c2-2,2-9,2-9C40,12,37,14,37,14z"/>
	<path style="fill:#CDDC39;" d="M8,37c0,0,14,1,24-10c0,0,2.9-4.5,1.4-10.7L7,33L8,37z"/>
	<path style="fill:#AFB42B;" d="M14.3,28.4l-1.8,1.1l1.8,7c0.6-0.1,1.3-0.2,2-0.4L14.3,28.4z"/>
	<path style="fill:#AFB42B;" d="M10.2,37c0.6,0,1.3-0.1,2-0.2l-1.5-6.2l-1.8,1.1L10.2,37z"/>
	<path style="fill:#AFB42B;" d="M25,21.6l-1.8,1.1l2.4,9.6c0.6-0.4,1.2-0.8,1.8-1.2L25,21.6z"/>
	<path style="fill:#AFB42B;" d="M21.4,23.9L19.7,25l2.3,9.2c0.6-0.3,1.2-0.6,1.8-0.9L21.4,23.9z"/>
	<path style="fill:#AFB42B;" d="M17.9,26.1l-1.8,1.1l2.1,8.4c0.6-0.2,1.3-0.4,1.9-0.6L17.9,26.1z"/>
	<path style="fill:#6D4C41;" d="M38,18c0,0.6-0.4,1-1,1s-1-0.4-1-1s0.4-1,1-1S38,17.4,38,18z"/>
	<path style="fill:#9E9D24;" d="M44.3,10.1c-0.5-0.2-1.1,0.1-1.3,0.6c-0.5,1.6-2.2,2.9-3.3,3.7c0.2,0.4,0.3,0.9,0.3,1.6   c0,0,0,0.2,0,0.6c1.2-0.7,4.1-2.6,5-5.3C45.1,10.8,44.8,10.2,44.3,10.1z"/>
	<path style="fill:#9E9D24;" d="M33.4,16.3l-6.5,4.1l2.3,9.3c1-0.8,1.9-1.7,2.9-2.7C32,27,34.9,22.5,33.4,16.3z"/>
	<path style="fill:#9E9D24;" d="M22,34.2c2.7-1.2,5.4-2.8,8-5.2v-5l-8,6V34.2z"/>
	<path style="fill:#9E9D24;" d="M39,15c-0.2,0-0.4-0.1-0.6-0.2c-0.5-0.3-0.6-0.9-0.3-1.4c0,0,1.8-2.8,1.8-5.4c0-0.6,0.4-1,1-1   s1,0.4,1,1c0,3.3-2.1,6.4-2.2,6.6C39.6,14.8,39.3,15,39,15z"/>
	<path style="fill:#827717;" d="M4,36c0,0,1,1,4,1l-0.8-3.1L4,36z"/>
	<path style="fill:#827717;" d="M34.8,24.2c0.5,1,0.9,1.8,1.2,1.8c1,0,2-1,2-1c0.8-0.8,1.5-3.9,1.5-3.9   C36.8,24.1,34.8,24.2,34.8,24.2z"/>
	<path style="fill:#827717;" d="M23.4,30L10.7,16.3c-0.4-0.4-1-0.4-1.4,0c-0.4,0.4-0.4,1,0,1.4L20,33.6c0.1,0.1,0.2,0.3,0.4,0.4   c1.1,0.8,2.7,0.6,3.5-0.5C24.8,32.4,24.5,30.8,23.4,30z"/>
	<path style="fill:#827717;" d="M37,39h-2c-0.5,0-0.9-0.4-1-0.8l-0.9-5.6l-3.7-2.8c-0.4-0.3-0.5-1-0.2-1.4c0.3-0.4,1-0.5,1.4-0.2   l4,3c0.2,0.2,0.3,0.4,0.4,0.6l0.9,5.2H37c0.6,0,1,0.4,1,1S37.6,39,37,39z"/>
	<path style="fill:#827717;" d="M23,40c-0.4,0-0.8-0.3-0.9-0.7c-0.2-0.5,0.1-1.1,0.6-1.3l2.3-0.8V33c0-0.2,0.1-0.4,0.2-0.6l2-3   c0.3-0.5,0.9-0.6,1.4-0.3c0.5,0.3,0.6,0.9,0.3,1.4L27,33.3V38c0,0.4-0.3,0.8-0.7,0.9l-3,1C23.2,40,23.1,40,23,40z"/>
	<path style="fill:#827717;" d="M16,40h-3c-0.6,0-1-0.4-1-1s0.4-1,1-1h1.7L9,17.3c-0.1-0.5,0.2-1.1,0.7-1.2c0.5-0.1,1.1,0.2,1.2,0.7   l6,22c0.1,0.3,0,0.6-0.2,0.9C16.6,39.9,16.3,40,16,40z"/>
</g>
</svg>
