<?xml version="1.0" encoding="UTF-8"?>
<svg xmlns="http://www.w3.org/2000/svg" xmlns:xlink="http://www.w3.org/1999/xlink" viewBox="0 0 48 48" version="1.1" width="480px" height="480px">
<g id="surface1">
<path style=" fill:#6D4C41;" d="M 26 24 C 27.421875 23.929688 28.703125 24.007813 29.960938 24.109375 C 31.210938 24.214844 32.421875 24.355469 33.613281 24.492188 C 34.808594 24.628906 35.976563 24.761719 37.171875 24.855469 C 38.375 24.957031 39.574219 25.007813 41 25 C 40.117188 26.144531 38.777344 26.832031 37.425781 27.203125 C 36.054688 27.570313 34.636719 27.632813 33.273438 27.472656 C 31.90625 27.3125 30.585938 26.9375 29.351563 26.378906 C 28.121094 25.804688 26.949219 25.078125 26 24 Z "/>
<path style=" fill:#6D4C41;" d="M 25 23 C 26.710938 22.585938 28.351563 22.371094 29.980469 22.191406 C 31.601563 22.023438 33.203125 21.902344 34.78125 21.78125 C 36.359375 21.652344 37.921875 21.539063 39.449219 21.324219 C 40.984375 21.089844 42.472656 20.859375 44 20 C 43.738281 20.863281 43.113281 21.589844 42.429688 22.1875 C 41.730469 22.78125 40.929688 23.234375 40.109375 23.589844 C 38.460938 24.296875 36.726563 24.636719 35.015625 24.769531 C 33.296875 24.902344 31.585938 24.816406 29.90625 24.542969 C 28.230469 24.257813 26.570313 23.816406 25 23 Z "/>
<path style=" fill:#6D4C41;" d="M 22 24 C 21.050781 25.078125 19.878906 25.804688 18.648438 26.378906 C 17.414063 26.9375 16.09375 27.3125 14.726563 27.472656 C 13.363281 27.632813 11.945313 27.570313 10.574219 27.203125 C 9.222656 26.832031 7.882813 26.144531 7 25 C 8.425781 25.011719 9.625 24.957031 10.828125 24.855469 C 12.019531 24.761719 13.191406 24.628906 14.386719 24.492188 C 15.578125 24.355469 16.789063 24.21875 18.039063 24.109375 C 19.296875 24.007813 20.578125 23.929688 22 24 Z "/>
<path style=" fill:#6D4C41;" d="M 23 23 C 21.429688 23.816406 19.769531 24.257813 18.09375 24.542969 C 16.414063 24.8125 14.703125 24.898438 12.988281 24.769531 C 11.273438 24.636719 9.539063 24.296875 7.890625 23.589844 C 7.070313 23.234375 6.273438 22.777344 5.570313 22.1875 C 4.886719 21.589844 4.261719 20.863281 4 20 C 5.527344 20.859375 7.015625 21.089844 8.550781 21.324219 C 10.078125 21.539063 11.640625 21.652344 13.21875 21.78125 C 14.796875 21.902344 16.398438 22.023438 18.019531 22.191406 C 19.648438 22.371094 21.289063 22.585938 23 23 Z "/>
<path style=" fill:#8D6E63;" d="M 24 22 C 26.027344 21.355469 28.007813 20.882813 29.96875 20.417969 C 31.929688 19.960938 33.867188 19.523438 35.761719 19.039063 C 37.65625 18.550781 39.515625 18.027344 41.269531 17.300781 C 43.019531 16.5625 44.675781 15.679688 46 14 C 45.953125 15.082031 45.46875 16.136719 44.824219 17.050781 C 44.167969 17.960938 43.324219 18.726563 42.421875 19.359375 C 40.605469 20.625 38.558594 21.417969 36.503906 21.945313 C 34.441406 22.46875 32.34375 22.722656 30.25 22.753906 C 28.15625 22.765625 26.054688 22.59375 24 22 Z "/>
<path style=" fill:#8D6E63;" d="M 24 22 C 21.945313 22.59375 19.84375 22.765625 17.75 22.753906 C 15.65625 22.722656 13.558594 22.46875 11.496094 21.945313 C 9.441406 21.417969 7.394531 20.625 5.578125 19.359375 C 4.675781 18.722656 3.832031 17.960938 3.175781 17.050781 C 2.53125 16.136719 2.046875 15.082031 2 14 C 3.324219 15.679688 4.980469 16.5625 6.730469 17.300781 C 8.484375 18.027344 10.34375 18.550781 12.238281 19.039063 C 14.132813 19.523438 16.070313 19.960938 18.03125 20.417969 C 19.992188 20.882813 21.972656 21.355469 24 22 Z "/>
<path style=" fill:#8D6E63;" d="M 24 32.003906 C 24.621094 32.585938 24.941406 33.167969 25.175781 33.753906 C 25.394531 34.335938 25.496094 34.917969 25.5 35.503906 C 25.503906 36.085938 25.398438 36.667969 25.179688 37.253906 C 24.949219 37.835938 24.625 38.417969 24 39.003906 C 23.375 38.417969 23.050781 37.835938 22.820313 37.253906 C 22.601563 36.667969 22.496094 36.085938 22.5 35.503906 C 22.503906 34.917969 22.605469 34.335938 22.824219 33.753906 C 23.058594 33.167969 23.378906 32.585938 24 32.003906 Z "/>
<path style=" fill:#8D6E63;" d="M 24 31 C 24.332031 31.886719 24.382813 32.664063 24.351563 33.414063 C 24.308594 34.15625 24.152344 34.859375 23.90625 35.527344 C 23.65625 36.195313 23.3125 36.824219 22.855469 37.414063 C 22.386719 38 21.835938 38.554688 21 39.003906 C 20.664063 38.113281 20.613281 37.335938 20.644531 36.585938 C 20.691406 35.84375 20.84375 35.140625 21.097656 34.476563 C 21.347656 33.808594 21.695313 33.179688 22.148438 32.589844 C 22.617188 32.003906 23.167969 31.449219 24 31 Z "/>
<path style=" fill:#8D6E63;" d="M 18 37.003906 C 18.101563 36.105469 18.394531 35.441406 18.746094 34.847656 C 19.105469 34.261719 19.539063 33.769531 20.039063 33.351563 C 20.539063 32.929688 21.105469 32.59375 21.746094 32.34375 C 22.390625 32.105469 23.097656 31.9375 24 32.003906 C 23.898438 32.898438 23.605469 33.5625 23.253906 34.15625 C 22.894531 34.742188 22.460938 35.238281 21.960938 35.652344 C 21.460938 36.066406 20.894531 36.40625 20.253906 36.652344 C 19.605469 36.894531 18.898438 37.0625 18 37.003906 Z "/>
<path style=" fill:#8D6E63;" d="M 24 31 C 24.832031 31.449219 25.382813 32.003906 25.851563 32.589844 C 26.308594 33.179688 26.652344 33.808594 26.90625 34.476563 C 27.15625 35.140625 27.3125 35.84375 27.355469 36.585938 C 27.386719 37.335938 27.335938 38.113281 27 39.003906 C 26.164063 38.554688 25.613281 38 25.148438 37.414063 C 24.691406 36.824219 24.34375 36.195313 24.097656 35.527344 C 23.847656 34.859375 23.695313 34.15625 23.652344 33.414063 C 23.617188 32.664063 23.667969 31.886719 24 31 Z "/>
<path style=" fill:#8D6E63;" d="M 30 37.003906 C 29.101563 37.0625 28.394531 36.894531 27.746094 36.65625 C 27.105469 36.40625 26.539063 36.070313 26.039063 35.652344 C 25.539063 35.238281 25.105469 34.742188 24.746094 34.15625 C 24.394531 33.5625 24.101563 32.898438 24 32.003906 C 24.898438 31.9375 25.605469 32.105469 26.253906 32.347656 C 26.894531 32.59375 27.460938 32.933594 27.960938 33.351563 C 28.460938 33.769531 28.894531 34.265625 29.253906 34.847656 C 29.605469 35.445313 29.898438 36.109375 30 37.003906 Z "/>
<path style=" fill:#5D4037;" d="M 27 27 C 27.773438 27.152344 28.28125 27.429688 28.710938 27.742188 C 29.128906 28.058594 29.445313 28.425781 29.683594 28.835938 C 29.917969 29.238281 30.0625 29.691406 30.125 30.191406 C 30.1875 30.710938 30.132813 31.230469 30 32 C 29.195313 32.0625 28.605469 31.761719 28.136719 31.464844 C 27.671875 31.148438 27.324219 30.757813 27.074219 30.320313 C 26.828125 29.882813 26.675781 29.390625 26.636719 28.851563 C 26.609375 28.304688 26.664063 27.714844 27 27 Z "/>
<path style=" fill:#5D4037;" d="M 21 27 C 21.335938 27.714844 21.390625 28.304688 21.363281 28.851563 C 21.324219 29.390625 21.171875 29.878906 20.925781 30.320313 C 20.675781 30.757813 20.328125 31.148438 19.863281 31.464844 C 19.394531 31.761719 18.804688 32.0625 18 32 C 17.867188 31.230469 17.8125 30.710938 17.875 30.191406 C 17.9375 29.691406 18.082031 29.238281 18.316406 28.835938 C 18.550781 28.425781 18.871094 28.0625 19.289063 27.742188 C 19.71875 27.429688 20.226563 27.152344 21 27 Z "/>
<path style=" fill:#5D4037;" d="M 21 25 C 21 25.996094 20.609375 26.828125 20.105469 27.535156 C 19.585938 28.238281 18.90625 28.8125 18.128906 29.222656 C 17.351563 29.628906 16.46875 29.859375 15.574219 29.855469 C 14.683594 29.847656 13.773438 29.621094 13 29 C 13.765625 28.367188 14.394531 27.960938 14.996094 27.570313 C 15.597656 27.191406 16.15625 26.859375 16.746094 26.558594 C 17.335938 26.253906 17.945313 25.976563 18.625 25.710938 C 19.3125 25.445313 20.039063 25.203125 21 25 Z "/>
<path style=" fill:#5D4037;" d="M 27 25 C 27.960938 25.203125 28.6875 25.445313 29.375 25.710938 C 30.054688 25.976563 30.664063 26.253906 31.253906 26.558594 C 31.84375 26.859375 32.402344 27.191406 33.003906 27.570313 C 33.605469 27.960938 34.234375 28.371094 35 29 C 34.226563 29.621094 33.316406 29.847656 32.425781 29.855469 C 31.53125 29.859375 30.648438 29.628906 29.871094 29.222656 C 29.09375 28.816406 28.414063 28.242188 27.894531 27.535156 C 27.390625 26.828125 27 25.996094 27 25 Z "/>
<path style=" fill:#BCAAA4;" d="M 25 20 C 26.03125 19.355469 26.976563 18.910156 27.894531 18.484375 L 30.492188 17.308594 C 31.308594 16.917969 32.058594 16.53125 32.785156 16.042969 C 33.515625 15.558594 34.207031 14.9375 35 14 C 35.453125 15.140625 35.226563 16.507813 34.558594 17.597656 C 33.890625 18.695313 32.859375 19.515625 31.773438 20.019531 C 30.679688 20.53125 29.519531 20.773438 28.375 20.789063 C 27.226563 20.785156 26.074219 20.597656 25 20 Z "/>
<path style=" fill:#BCAAA4;" d="M 23 20 C 21.925781 20.597656 20.773438 20.785156 19.628906 20.785156 C 18.480469 20.773438 17.320313 20.53125 16.226563 20.019531 C 15.140625 19.511719 14.109375 18.695313 13.441406 17.597656 C 12.773438 16.507813 12.546875 15.140625 13 14 C 13.792969 14.9375 14.484375 15.558594 15.21875 16.046875 C 15.941406 16.53125 16.691406 16.917969 17.507813 17.308594 L 20.105469 18.488281 C 21.023438 18.910156 21.96875 19.355469 23 20 Z "/>
<path style=" fill:#A1887F;" d="M 24 22 C 25.078125 21.566406 26.046875 21.332031 27.007813 21.152344 C 27.96875 20.980469 28.902344 20.878906 29.835938 20.828125 C 30.769531 20.777344 31.703125 20.78125 32.667969 20.84375 C 33.636719 20.914063 34.621094 21.019531 35.75 21.335938 C 34.984375 22.21875 34.039063 22.773438 33.058594 23.171875 C 32.070313 23.558594 31.035156 23.773438 29.992188 23.824219 C 28.953125 23.875 27.902344 23.773438 26.886719 23.5 C 25.875 23.214844 24.871094 22.789063 24 22 Z "/>
<path style=" fill:#A1887F;" d="M 26.335938 22.667969 C 27.171875 22.519531 27.789063 22.496094 28.371094 22.527344 C 28.941406 22.566406 29.453125 22.652344 29.9375 22.804688 C 30.425781 22.949219 30.886719 23.15625 31.375 23.441406 C 31.863281 23.734375 32.371094 24.078125 33 24.667969 C 32.445313 25.324219 31.765625 25.636719 31.082031 25.78125 C 30.394531 25.917969 29.699219 25.871094 29.054688 25.671875 C 28.414063 25.472656 27.820313 25.125 27.332031 24.636719 C 26.855469 24.144531 26.441406 23.523438 26.335938 22.667969 Z "/>
<path style=" fill:#A1887F;" d="M 26.667969 23.417969 C 27.453125 23.527344 27.988281 23.753906 28.449219 24.019531 C 28.902344 24.289063 29.261719 24.605469 29.546875 24.96875 C 29.835938 25.328125 30.046875 25.734375 30.199219 26.207031 C 30.351563 26.691406 30.429688 27.207031 30.5 28 C 29.730469 28.246094 29.054688 28.085938 28.511719 27.855469 C 27.964844 27.609375 27.523438 27.25 27.191406 26.824219 C 26.859375 26.398438 26.628906 25.902344 26.511719 25.347656 C 26.40625 24.785156 26.394531 24.167969 26.667969 23.417969 Z "/>
<path style=" fill:#A1887F;" d="M 23 22 C 25.152344 20.902344 27.296875 19.988281 29.421875 19.0625 C 31.546875 18.152344 33.648438 17.257813 35.714844 16.320313 C 37.777344 15.382813 39.804688 14.40625 41.726563 13.269531 C 43.644531 12.128906 45.457031 10.859375 47 9 C 46.601563 11.4375 44.9375 13.546875 43.121094 15.171875 C 41.269531 16.804688 39.148438 18.058594 36.953125 19.054688 C 34.753906 20.046875 32.46875 20.789063 30.136719 21.304688 C 27.800781 21.796875 25.425781 22.121094 23 22 Z "/>
<path style=" fill:#A1887F;" d="M 24 22 C 23.128906 22.789063 22.125 23.214844 21.113281 23.5 C 20.097656 23.773438 19.050781 23.878906 18.007813 23.824219 C 16.96875 23.769531 15.929688 23.558594 14.941406 23.171875 C 13.960938 22.773438 13.015625 22.21875 12.25 21.335938 C 13.378906 21.019531 14.363281 20.914063 15.332031 20.84375 C 16.296875 20.78125 17.230469 20.777344 18.164063 20.828125 C 19.101563 20.878906 20.03125 20.980469 20.992188 21.152344 C 21.953125 21.332031 22.921875 21.566406 24 22 Z "/>
<path style=" fill:#A1887F;" d="M 21.664063 22.667969 C 21.558594 23.523438 21.144531 24.144531 20.667969 24.636719 C 20.179688 25.125 19.585938 25.472656 18.941406 25.671875 C 18.300781 25.871094 17.601563 25.917969 16.914063 25.78125 C 16.230469 25.636719 15.550781 25.324219 15 24.667969 C 15.628906 24.078125 16.132813 23.734375 16.621094 23.441406 C 17.109375 23.15625 17.574219 22.949219 18.0625 22.804688 C 18.546875 22.652344 19.058594 22.566406 19.628906 22.527344 C 20.210938 22.496094 20.828125 22.519531 21.664063 22.667969 Z "/>
<path style=" fill:#A1887F;" d="M 21.332031 23.417969 C 21.605469 24.167969 21.59375 24.785156 21.488281 25.347656 C 21.375 25.902344 21.140625 26.398438 20.808594 26.824219 C 20.476563 27.25 20.035156 27.609375 19.488281 27.855469 C 18.945313 28.085938 18.269531 28.25 17.5 28 C 17.570313 27.207031 17.644531 26.691406 17.800781 26.207031 C 17.953125 25.734375 18.164063 25.328125 18.453125 24.96875 C 18.738281 24.605469 19.097656 24.285156 19.550781 24.019531 C 20.011719 23.753906 20.546875 23.527344 21.332031 23.417969 Z "/>
<path style=" fill:#A1887F;" d="M 25 22 C 22.574219 22.121094 20.199219 21.796875 17.863281 21.304688 C 15.53125 20.789063 13.246094 20.046875 11.046875 19.054688 C 8.851563 18.058594 6.734375 16.804688 4.878906 15.171875 C 3.0625 13.546875 1.398438 11.4375 1 9 C 2.542969 10.859375 4.355469 12.128906 6.273438 13.269531 C 8.195313 14.40625 10.222656 15.378906 12.285156 16.320313 C 14.347656 17.261719 16.453125 18.152344 18.578125 19.0625 C 20.703125 19.988281 22.847656 20.902344 25 22 Z "/>
<path style=" fill:#6D4C41;" d="M 28 26 C 28 30.910156 26 34 24 34 C 22 34.003906 20 30.910156 20 26 C 20 21.089844 21.789063 16 24 16 C 26.210938 16 28 21.089844 28 26 Z "/>
<path style=" fill:#4E342E;" d="M 26 17.996094 C 26 19.101563 25.105469 17.996094 24 17.996094 C 22.894531 17.996094 22 19.101563 22 17.996094 L 22 16.996094 C 22 15.894531 22.894531 14.996094 24 14.996094 C 25.105469 14.996094 26 15.894531 26 16.996094 Z "/>
<path style=" fill:#FFEB3B;" d="M 25 17.996094 C 25 18.550781 24 19.996094 24 19.996094 C 24 19.996094 23 18.550781 23 17.996094 C 23 17.445313 23.445313 16.996094 24 16.996094 C 24.554688 16.996094 25 17.445313 25 17.996094 Z "/>
</g>
</svg>
