<?xml version="1.0" encoding="UTF-8"?>
<svg xmlns="http://www.w3.org/2000/svg" xmlns:xlink="http://www.w3.org/1999/xlink" viewBox="0 0 48 48" version="1.1" width="480px" height="480px">
<g id="surface1">
<path style=" fill:#1E88E5;" d="M 36 8 C 36 5.238281 29.957031 3 22.5 3 C 15.042969 3 9 5.238281 9 8 C 8 13 33 34 9 45 C 12.941406 44.664063 39 40 36 8 Z "/>
<path style=" fill:#0D47A1;" d="M 34.839844 23.339844 C 29.324219 26.171875 22.15625 25.925781 18.117188 25.472656 C 18.578125 26.679688 18.941406 27.90625 19.175781 29.132813 C 24.304688 30.910156 29.453125 29.925781 32.890625 28.773438 C 33.703125 27.125 34.398438 25.320313 34.941406 23.328125 C 34.90625 23.332031 34.875 23.335938 34.839844 23.339844 Z "/>
<path style=" fill:#0D47A1;" d="M 18.960938 35.355469 C 18.5625 36.675781 17.914063 37.96875 16.949219 39.207031 C 17.527344 40.308594 18.28125 41.269531 19.070313 42.066406 C 20.761719 41.269531 22.519531 40.269531 24.238281 39.015625 C 21.746094 38.4375 20.066406 36.921875 18.960938 35.355469 Z "/>
<path style=" fill:#0D47A1;" d="M 28.269531 35.457031 C 28.742188 34.953125 29.203125 34.433594 29.648438 33.878906 C 25.191406 34.59375 21.386719 33.457031 19.425781 32.660156 C 19.402344 33.058594 19.363281 33.453125 19.300781 33.847656 C 22.105469 35.398438 25.636719 35.601563 28.269531 35.457031 Z "/>
<path style=" fill:#0D47A1;" d="M 33.847656 10.144531 C 34.242188 9.527344 34.140625 9.039063 34.140625 9.03125 L 34.097656 8.742188 C 34.097656 7.921875 30.332031 6 23.03125 6 C 17.34375 6 14.503906 7.449219 14.382813 8.003906 C 14.585938 8.351563 16.828125 9.390625 21.105469 9.390625 C 23.464844 9.390625 25.097656 8.976563 25.859375 8.621094 C 25.023438 8.398438 23.445313 8.277344 21.894531 8.714844 C 21.363281 8.863281 20.8125 8.550781 20.660156 8.019531 C 20.515625 7.484375 20.824219 6.933594 21.355469 6.785156 C 23.636719 6.152344 26.445313 6.363281 27.621094 7.257813 C 28.195313 7.691406 28.28125 8.207031 28.28125 8.472656 C 28.28125 10.625 24.414063 11.390625 21.105469 11.390625 C 17.863281 11.390625 12.382813 10.675781 12.382813 7.992188 C 12.382813 5.25 17.902344 4 23.03125 4 C 28.875 4 35.125 5.28125 35.988281 8.070313 C 35.992188 8.046875 36 8.023438 36 8 C 36 5.238281 29.957031 3 22.5 3 C 15.042969 3 9 5.238281 9 8 C 9 10.761719 15.042969 13 22.5 13 C 26.390625 13 29.886719 12.386719 32.351563 11.410156 C 33.199219 10.949219 33.632813 10.480469 33.847656 10.144531 Z "/>
<path style=" fill:#1565C0;" d="M 36.113281 16.359375 C 25.707031 20.546875 17.09375 17.636719 12.53125 15.242188 C 13.757813 17.140625 15.113281 19.265625 16.304688 21.511719 C 22.347656 23.894531 30.441406 23.6875 34.839844 23.335938 C 34.878906 23.316406 34.917969 23.292969 34.957031 23.273438 C 35.523438 21.175781 35.925781 18.878906 36.113281 16.359375 Z "/>
<path style=" fill:#90CAF9;" d="M 34.417969 25.035156 C 34.671875 24.28125 34.894531 23.492188 35.097656 22.683594 C 25.082031 26.421875 18.652344 23.265625 16.476563 21.84375 C 16.984375 22.820313 17.453125 23.820313 17.867188 24.832031 C 21.203125 26.265625 26.828125 27.503906 34.417969 25.035156 Z "/>
<path style=" fill:#90CAF9;" d="M 31.734375 30.890625 C 29.167969 31.8125 24.195313 32.933594 19.351563 30.316406 C 19.4375 31.078125 19.46875 31.835938 19.429688 32.585938 C 21.667969 33.601563 23.882813 33.976563 25.898438 33.976563 C 27.378906 33.976563 28.746094 33.78125 29.941406 33.511719 C 30.570313 32.695313 31.175781 31.820313 31.734375 30.890625 Z "/>
<path style=" fill:#90CAF9;" d="M 17.046875 42.9375 C 16.152344 42.527344 15.648438 41.710938 15.367188 40.921875 C 14.878906 41.375 14.347656 41.820313 13.757813 42.257813 C 14.003906 42.777344 14.335938 43.289063 14.777344 43.742188 C 15.496094 43.515625 16.257813 43.246094 17.046875 42.9375 Z "/>
<path style=" fill:#90CAF9;" d="M 36.140625 15.851563 C 21.621094 18.6875 13.550781 14.261719 10.378906 11.8125 C 11.058594 12.972656 11.925781 14.300781 12.859375 15.75 C 16.046875 17.351563 20.671875 18.808594 27.007813 18.808594 C 29.679688 18.808594 32.65625 18.539063 35.949219 17.925781 C 36.027344 17.25 36.09375 16.5625 36.140625 15.851563 Z "/>
</g>
</svg>
