<?xml version="1.0" encoding="utf-8"?>
<!-- Generator: Adobe Illustrator 21.0.2, SVG Export Plug-In . SVG Version: 6.00 Build 0)  -->
<svg xmlns="http://www.w3.org/2000/svg" xmlns:xlink="http://www.w3.org/1999/xlink" version="1.1" id="Layer_1" x="0px" y="0px" viewBox="0 0 48 48" style="enable-background:new 0 0 48 48;" xml:space="preserve" width="480px" height="480px">
<g id="surface1">
	<path style="fill:#FFC107;" d="M2,8h16v12H2V8z"/>
	<path style="fill:#FFC107;" d="M35,24h5v6h-5V24z"/>
	<path style="fill:#FFC107;" d="M20,9V8c0-1.1-0.9-2-2-2H4C2.9,6,2,6.9,2,8v1H20z"/>
	<path style="fill:#FFC107;" d="M25,20v-4c0-0.9-0.7-1.6-1.6-1.6h-0.8c-0.9,0-1.6,0.7-1.6,1.6v4H25z"/>
	<path style="fill:#2E7D32;" d="M36,35H2V20h34c0,0,2,1.9,2,7.5S36,35,36,35z"/>
	<path style="fill:#0A3A0C;" d="M9,28c2.5,0,4.6,1.3,5.9,3.2C14.3,32.3,14,33.6,14,35h4c0-1.4-0.3-2.7-0.9-3.8   c1.3-1.9,3.4-3.2,5.9-3.2c3.9,0,7,3.1,7,7h2c0-5-4-9-9-9c-2.8,0-5.3,1.3-7,3.4c-1.7-2-4.2-3.4-7-3.4s-5.3,1.3-7,3.4V35   C2,31.1,5.1,28,9,28z"/>
	<path style="fill:#795548;" d="M29,17h5v3h-5V17z"/>
	<path style="fill:#795548;" d="M37,11l-3,6h-5l-3-6V8h11V11z"/>
	<path style="fill:#795548;" d="M4,9h12v6H4V9z"/>
	<path style="fill:#FF3D00;" d="M30,35c0,3.9-3.1,7-7,7s-7-3.1-7-7s3.1-7,7-7S30,31.1,30,35z"/>
	<path style="fill:#FF3D00;" d="M46,41H35V29h5L46,41z"/>
	<path style="fill:#FF3D00;" d="M16,35c0,3.9-3.1,7-7,7s-7-3.1-7-7s3.1-7,7-7S16,31.1,16,35z"/>
	<path style="fill:#6D0A00;" d="M25.8,39.2L23,35l1,4.9C24.6,39.8,25.2,39.5,25.8,39.2z"/>
	<path style="fill:#6D0A00;" d="M22,39.9l1-4.9l-2.8,4.2C20.8,39.5,21.4,39.8,22,39.9z"/>
	<path style="fill:#6D0A00;" d="M25.8,30.8c-0.5-0.4-1.1-0.6-1.8-0.7L23,35L25.8,30.8z"/>
	<path style="fill:#6D0A00;" d="M18.1,34l4.9,1l-4.2-2.8C18.5,32.8,18.2,33.4,18.1,34z"/>
	<path style="fill:#6D0A00;" d="M23,35l4.9-1c-0.1-0.7-0.4-1.3-0.7-1.8L23,35z"/>
	<path style="fill:#6D0A00;" d="M27.9,36L23,35l4.2,2.8C27.5,37.2,27.8,36.6,27.9,36z"/>
	<path style="fill:#6D0A00;" d="M18.8,37.8L23,35l-4.9,1C18.2,36.6,18.5,37.2,18.8,37.8z"/>
	<path style="fill:#6D0A00;" d="M23,35l-1-4.9c-0.7,0.1-1.3,0.4-1.8,0.7L23,35z"/>
	<path style="fill:#6D0A00;" d="M11.8,39.2L9,35l1,4.9C10.6,39.8,11.2,39.5,11.8,39.2z"/>
	<path style="fill:#6D0A00;" d="M8,39.9L9,35l-2.8,4.2C6.8,39.5,7.4,39.8,8,39.9z"/>
	<path style="fill:#6D0A00;" d="M11.8,30.8c-0.5-0.4-1.1-0.6-1.8-0.7L9,35L11.8,30.8z"/>
	<path style="fill:#6D0A00;" d="M4.8,37.8L9,35l-4.9,1C4.2,36.6,4.5,37.2,4.8,37.8z"/>
	<path style="fill:#6D0A00;" d="M9,35l4.2,2.8c0.4-0.5,0.6-1.1,0.7-1.8L9,35z"/>
	<path style="fill:#6D0A00;" d="M13.2,32.2L9,35l4.9-1C13.8,33.4,13.5,32.8,13.2,32.2z"/>
	<path style="fill:#6D0A00;" d="M9,35l-1-4.9c-0.7,0.1-1.3,0.4-1.8,0.7L9,35z"/>
	<path style="fill:#6D0A00;" d="M4.1,34L9,35l-4.2-2.8C4.5,32.8,4.2,33.4,4.1,34z"/>
	<path style="fill:#6D0A00;" d="M37,39h2l-2-8V39z"/>
	<path style="fill:#6D0A00;" d="M39,31l2,8h2L39,31z"/>
	<path style="fill:#FFC107;" d="M25,35c0,1.1-0.9,2-2,2s-2-0.9-2-2s0.9-2,2-2S25,33.9,25,35z"/>
	<path style="fill:#FFC107;" d="M11,35c0,1.1-0.9,2-2,2s-2-0.9-2-2s0.9-2,2-2S11,33.9,11,35z"/>
	<path style="fill:#FFC107;" d="M23,35H9c-0.6,0-1-0.4-1-1s0.4-1,1-1h14c0.6,0,1,0.4,1,1S23.6,35,23,35z"/>
</g>
</svg>
