<?xml version="1.0" encoding="utf-8"?>
<!-- Generator: Adobe Illustrator 21.0.2, SVG Export Plug-In . SVG Version: 6.00 Build 0)  -->
<svg xmlns="http://www.w3.org/2000/svg" xmlns:xlink="http://www.w3.org/1999/xlink" version="1.1" id="Layer_1" x="0px" y="0px" viewBox="0 0 48 48" style="enable-background:new 0 0 48 48;" xml:space="preserve" width="480px" height="480px">
<g id="surface1">
	<path style="fill:#FFB74D;" d="M21.7,43.8l-3.2-2.4l1.2-1.6c2.2-2.9,5.3-8,5.3-10.1c0-1.2-1.2-2.9-2.4-4.5   c-1.6-2.1-3.2-4.3-3.2-6.9c0-4.3,5.1-11.2,6.1-12.5l1.2-1.6l3.2,2.4l-1.2,1.6c-2.2,2.9-5.3,8-5.3,10.1c0,1.2,1.2,2.9,2.4,4.5   c1.6,2.1,3.2,4.3,3.2,6.9c0,4.3-5.1,11.2-6.1,12.5L21.7,43.8z"/>
	<path style="fill:#FFB74D;" d="M33.1,43.8l-3.2-2.4l1.2-1.6c2.2-2.9,5.3-8,5.3-10.1c0-1.2-1.2-2.9-2.4-4.5   c-1.6-2.1-3.2-4.3-3.2-6.9c0-4.3,5.1-11.2,6.1-12.5l1.2-1.6l3.2,2.4l-1.2,1.6c-2.2,2.9-5.3,8-5.3,10.1c0,1.2,1.2,2.9,2.4,4.5   c1.6,2.1,3.2,4.3,3.2,6.9c0,4.3-5.1,11.2-6.1,12.5L33.1,43.8z"/>
	<path style="fill:#FFB74D;" d="M10.4,43.8l-3.2-2.4l1.2-1.6c2.2-2.9,5.3-8,5.3-10.1c0-1.2-1.2-2.9-2.4-4.5C9.6,23.1,8,20.9,8,18.3   c0-4.3,5.1-11.2,6.1-12.5l1.2-1.6l3.2,2.4l-1.2,1.6c-2.2,2.9-5.3,8-5.3,10.1c0,1.2,1.2,2.9,2.4,4.5c1.6,2.1,3.2,4.3,3.2,6.9   c0,4.3-5.1,11.2-6.1,12.5L10.4,43.8z"/>
</g>
</svg>
