<?xml version="1.0"?>
<svg xmlns="http://www.w3.org/2000/svg" viewBox="0 0 32 32" width="512px" height="512px">
    <path style="line-height:normal;text-indent:0;text-align:start;text-decoration-line:none;text-decoration-style:solid;text-decoration-color:#000;text-transform:none;block-progression:tb;isolation:auto;mix-blend-mode:normal" d="M 4.2382812 3 L 4.1269531 3.8730469 C 4.1269531 3.8730469 3.93074 5.3892786 4.0273438 7.3222656 C 4.1163092 9.1024292 4.4325284 11.274114 5.4824219 13.09375 C 5.0296079 13.917653 4.6262203 14.788773 4.2910156 15.707031 L 4.2851562 15.722656 L 4.28125 15.738281 C 4.0815139 16.347186 3.8681528 16.930261 3.6132812 17.472656 L 3.6152344 17.472656 L 2.7167969 19.376953 L 3.46875 19.847656 C 3.46875 19.847656 7.2222115 22.235782 10.150391 24.609375 L 10.263672 24.941406 C 11.090388 27.370984 13.409145 29 16 29 C 18.590855 29 20.909619 27.370994 21.736328 24.941406 L 21.849609 24.609375 C 24.777788 22.235782 28.53125 19.847656 28.53125 19.847656 L 29.283203 19.376953 L 28.384766 17.472656 L 28.386719 17.472656 C 28.131847 16.930261 27.918486 16.347186 27.71875 15.738281 L 27.714844 15.722656 L 27.708984 15.707031 C 27.373778 14.788774 26.970394 13.917652 26.517578 13.09375 C 27.567472 11.274114 27.883691 9.1024292 27.972656 7.3222656 C 28.069256 5.3892786 27.873047 3.8730469 27.873047 3.8730469 L 27.761719 3 L 26.882812 3 C 22.821762 3 20.597467 5.348418 19.650391 6.6875 C 18.496947 6.2434243 17.274379 6 16 6 C 14.725621 6 13.503053 6.2434241 12.349609 6.6875 C 11.402533 5.348418 9.1782385 3 5.1171875 3 L 4.2382812 3 z M 6.0800781 5.1777344 C 8.4992632 5.4849753 9.8685028 6.7288074 10.542969 7.578125 C 9.114727 8.451558 7.8377323 9.6577253 6.7558594 11.105469 C 6.3041117 9.8929823 6.0877396 8.4702285 6.0253906 7.2226562 C 5.9676599 6.0674918 6.0357032 5.7097396 6.0800781 5.1777344 z M 25.919922 5.1777344 C 25.964292 5.7097396 26.032337 6.0674918 25.974609 7.2226562 C 25.912258 8.4702285 25.695887 9.8929823 25.244141 11.105469 C 24.162266 9.6577269 22.885274 8.4515575 21.457031 7.578125 C 22.131497 6.7288074 23.500737 5.4849753 25.919922 5.1777344 z M 16 8 C 20.204506 8 23.976193 11.314051 25.830078 16.392578 C 26.039781 17.029836 26.273915 17.680981 26.576172 18.324219 L 26.740234 18.671875 C 26.053345 19.106531 23.172822 20.898127 20.369141 23.212891 L 20.146484 23.396484 L 20.052734 23.679688 L 19.841797 24.296875 C 19.294506 25.905287 17.755145 27 16 27 C 14.244855 27 12.705494 25.905287 12.158203 24.296875 L 11.947266 23.679688 L 11.853516 23.396484 L 11.630859 23.212891 C 8.8271785 20.898127 5.9466551 19.106531 5.2597656 18.671875 L 5.4238281 18.324219 C 5.7260851 17.680981 5.9602187 17.029836 6.1699219 16.392578 C 8.0238069 11.314051 11.795494 8 16 8 z M 10 16 C 10 16 10.399219 19 12.199219 19 L 14 19 C 14 19 13.600781 16 11.800781 16 L 10 16 z M 20.199219 16 C 18.399219 16 18 19 18 19 L 19.800781 19 C 21.600781 19 22 16 22 16 L 20.199219 16 z M 14.691406 22 C 14.077406 22 13.768125 22.828453 14.203125 23.314453 L 15.511719 24.775391 C 15.781719 25.076391 16.219281 25.076391 16.488281 24.775391 L 17.796875 23.314453 C 18.231875 22.828453 17.923594 22 17.308594 22 L 14.691406 22 z" font-weight="400" font-family="sans-serif" white-space="normal" overflow="visible"/>
</svg>
