<?xml version="1.0" encoding="UTF-8"?>
<svg xmlns="http://www.w3.org/2000/svg" xmlns:xlink="http://www.w3.org/1999/xlink" viewBox="0 0 48 48" version="1.1" width="480px" height="480px">
<g id="surface1">
<path style=" fill:#BBDEFB;" d="M 39 13.5 C 39 18.195313 35.195313 22 30.5 22 C 25.804688 22 22 18.195313 22 13.5 C 22 8.804688 25.804688 5 30.5 5 C 35.195313 5 39 8.804688 39 13.5 Z "/>
<path style=" fill:#BBDEFB;" d="M 45 21.894531 C 45 25.757813 41.867188 28.894531 38 28.894531 C 34.132813 28.894531 31 25.757813 31 21.894531 C 31 18.027344 34.132813 14.894531 38 14.894531 C 41.867188 14.894531 45 18.027344 45 21.894531 Z "/>
<path style=" fill:#BBDEFB;" d="M 19 22 C 19 25.867188 15.867188 29 12 29 C 8.132813 29 5 25.867188 5 22 C 5 18.132813 8.132813 15 12 15 C 15.867188 15 19 18.132813 19 22 Z "/>
<path style=" fill:#BBDEFB;" d="M 25 14.5 C 25 18.089844 22.089844 21 18.5 21 C 14.910156 21 12 18.089844 12 14.5 C 12 10.910156 14.910156 8 18.5 8 C 22.089844 8 25 10.910156 25 14.5 Z "/>
<path style=" fill:#BBDEFB;" d="M 33 19.894531 C 33 23.757813 29.867188 26.894531 26 26.894531 C 22.132813 26.894531 19 23.757813 19 19.894531 C 19 16.027344 22.132813 12.894531 26 12.894531 C 29.867188 12.894531 33 16.027344 33 19.894531 Z "/>
<path style=" fill:#BBDEFB;" d="M 8 25 C 8 27.210938 9.789063 29 12 29 L 37 29 C 39.210938 29 41 27.210938 41 25 L 41 24 C 41 21.789063 39.210938 20 37 20 L 12 20 C 9.789063 20 8 21.789063 8 24 Z "/>
<path style=" fill:#2196F3;" d="M 17 30 C 17 30.550781 16.550781 31 16 31 C 15.449219 31 15 30.550781 15 30 C 15 29.449219 15.449219 29 16 29 C 16.550781 29 17 29.449219 17 30 Z "/>
<path style=" fill:#2196F3;" d="M 9 30 C 9 30.550781 8.550781 31 8 31 C 7.449219 31 7 30.550781 7 30 C 7 29.449219 7.449219 29 8 29 C 8.550781 29 9 29.449219 9 30 Z "/>
<path style=" fill:#2196F3;" d="M 16 33 C 16 33.550781 15.550781 34 15 34 C 14.449219 34 14 33.550781 14 33 C 14 32.449219 14.449219 32 15 32 C 15.550781 32 16 32.449219 16 33 Z "/>
<path style=" fill:#2196F3;" d="M 15 36 C 15 36.550781 14.550781 37 14 37 C 13.449219 37 13 36.550781 13 36 C 13 35.449219 13.449219 35 14 35 C 14.550781 35 15 35.449219 15 36 Z "/>
<path style=" fill:#2196F3;" d="M 14 39 C 14 39.550781 13.550781 40 13 40 C 12.449219 40 12 39.550781 12 39 C 12 38.449219 12.449219 38 13 38 C 13.550781 38 14 38.449219 14 39 Z "/>
<path style=" fill:#2196F3;" d="M 8 33 C 8 33.550781 7.550781 34 7 34 C 6.449219 34 6 33.550781 6 33 C 6 32.449219 6.449219 32 7 32 C 7.550781 32 8 32.449219 8 33 Z "/>
<path style=" fill:#2196F3;" d="M 7 36 C 7 36.550781 6.550781 37 6 37 C 5.449219 37 5 36.550781 5 36 C 5 35.449219 5.449219 35 6 35 C 6.550781 35 7 35.449219 7 36 Z "/>
<path style=" fill:#2196F3;" d="M 6 39 C 6 39.550781 5.550781 40 5 40 C 4.449219 40 4 39.550781 4 39 C 4 38.449219 4.449219 38 5 38 C 5.550781 38 6 38.449219 6 39 Z "/>
<path style=" fill:#2196F3;" d="M 13 42 C 13 42.550781 12.550781 43 12 43 C 11.449219 43 11 42.550781 11 42 C 11 41.449219 11.449219 41 12 41 C 12.550781 41 13 41.449219 13 42 Z "/>
<path style=" fill:#2196F3;" d="M 5 42 C 5 42.550781 4.550781 43 4 43 C 3.449219 43 3 42.550781 3 42 C 3 41.449219 3.449219 41 4 41 C 4.550781 41 5 41.449219 5 42 Z "/>
<path style=" fill:#2196F3;" d="M 25 30 C 25 30.550781 24.550781 31 24 31 C 23.449219 31 23 30.550781 23 30 C 23 29.449219 23.449219 29 24 29 C 24.550781 29 25 29.449219 25 30 Z "/>
<path style=" fill:#2196F3;" d="M 24 33 C 24 33.550781 23.550781 34 23 34 C 22.449219 34 22 33.550781 22 33 C 22 32.449219 22.449219 32 23 32 C 23.550781 32 24 32.449219 24 33 Z "/>
<path style=" fill:#2196F3;" d="M 23 36 C 23 36.550781 22.550781 37 22 37 C 21.449219 37 21 36.550781 21 36 C 21 35.449219 21.449219 35 22 35 C 22.550781 35 23 35.449219 23 36 Z "/>
<path style=" fill:#2196F3;" d="M 22 39 C 22 39.550781 21.550781 40 21 40 C 20.449219 40 20 39.550781 20 39 C 20 38.449219 20.449219 38 21 38 C 21.550781 38 22 38.449219 22 39 Z "/>
<path style=" fill:#2196F3;" d="M 21 42 C 21 42.550781 20.550781 43 20 43 C 19.449219 43 19 42.550781 19 42 C 19 41.449219 19.449219 41 20 41 C 20.550781 41 21 41.449219 21 42 Z "/>
<path style=" fill:#2196F3;" d="M 12 33 C 12 33.550781 11.550781 34 11 34 C 10.449219 34 10 33.550781 10 33 C 10 32.449219 10.449219 32 11 32 C 11.550781 32 12 32.449219 12 33 Z "/>
<path style=" fill:#2196F3;" d="M 11 36 C 11 36.550781 10.550781 37 10 37 C 9.449219 37 9 36.550781 9 36 C 9 35.449219 9.449219 35 10 35 C 10.550781 35 11 35.449219 11 36 Z "/>
<path style=" fill:#2196F3;" d="M 20 33 C 20 33.550781 19.550781 34 19 34 C 18.449219 34 18 33.550781 18 33 C 18 32.449219 18.449219 32 19 32 C 19.550781 32 20 32.449219 20 33 Z "/>
<path style=" fill:#2196F3;" d="M 19 36 C 19 36.550781 18.550781 37 18 37 C 17.449219 37 17 36.550781 17 36 C 17 35.449219 17.449219 35 18 35 C 18.550781 35 19 35.449219 19 36 Z "/>
<path style=" fill:#2196F3;" d="M 10 39 C 10 39.550781 9.550781 40 9 40 C 8.449219 40 8 39.550781 8 39 C 8 38.449219 8.449219 38 9 38 C 9.550781 38 10 38.449219 10 39 Z "/>
<path style=" fill:#2196F3;" d="M 18 39 C 18 39.550781 17.550781 40 17 40 C 16.449219 40 16 39.550781 16 39 C 16 38.449219 16.449219 38 17 38 C 17.550781 38 18 38.449219 18 39 Z "/>
<path style=" fill:#2196F3;" d="M 21 30 C 21 30.550781 20.550781 31 20 31 C 19.449219 31 19 30.550781 19 30 C 19 29.449219 19.449219 29 20 29 C 20.550781 29 21 29.449219 21 30 Z "/>
<path style=" fill:#2196F3;" d="M 37 30 C 37 30.550781 36.550781 31 36 31 C 35.449219 31 35 30.550781 35 30 C 35 29.449219 35.449219 29 36 29 C 36.550781 29 37 29.449219 37 30 Z "/>
<path style=" fill:#2196F3;" d="M 36 33 C 36 33.550781 35.550781 34 35 34 C 34.449219 34 34 33.550781 34 33 C 34 32.449219 34.449219 32 35 32 C 35.550781 32 36 32.449219 36 33 Z "/>
<path style=" fill:#2196F3;" d="M 35 36 C 35 36.550781 34.550781 37 34 37 C 33.449219 37 33 36.550781 33 36 C 33 35.449219 33.449219 35 34 35 C 34.550781 35 35 35.449219 35 36 Z "/>
<path style=" fill:#2196F3;" d="M 34 39 C 34 39.550781 33.550781 40 33 40 C 32.449219 40 32 39.550781 32 39 C 32 38.449219 32.449219 38 33 38 C 33.550781 38 34 38.449219 34 39 Z "/>
<path style=" fill:#2196F3;" d="M 29 42 C 29 42.550781 28.550781 43 28 43 C 27.449219 43 27 42.550781 27 42 C 27 41.449219 27.449219 41 28 41 C 28.550781 41 29 41.449219 29 42 Z "/>
<path style=" fill:#2196F3;" d="M 32 33 C 32 33.550781 31.550781 34 31 34 C 30.449219 34 30 33.550781 30 33 C 30 32.449219 30.449219 32 31 32 C 31.550781 32 32 32.449219 32 33 Z "/>
<path style=" fill:#2196F3;" d="M 31 36 C 31 36.550781 30.550781 37 30 37 C 29.449219 37 29 36.550781 29 36 C 29 35.449219 29.449219 35 30 35 C 30.550781 35 31 35.449219 31 36 Z "/>
<path style=" fill:#2196F3;" d="M 30 39 C 30 39.550781 29.550781 40 29 40 C 28.449219 40 28 39.550781 28 39 C 28 38.449219 28.449219 38 29 38 C 29.550781 38 30 38.449219 30 39 Z "/>
<path style=" fill:#2196F3;" d="M 33 30 C 33 30.550781 32.550781 31 32 31 C 31.449219 31 31 30.550781 31 30 C 31 29.449219 31.449219 29 32 29 C 32.550781 29 33 29.449219 33 30 Z "/>
<path style=" fill:#2196F3;" d="M 37 42 C 37 42.550781 36.550781 43 36 43 C 35.449219 43 35 42.550781 35 42 C 35 41.449219 35.449219 41 36 41 C 36.550781 41 37 41.449219 37 42 Z "/>
<path style=" fill:#2196F3;" d="M 40 33 C 40 33.550781 39.550781 34 39 34 C 38.449219 34 38 33.550781 38 33 C 38 32.449219 38.449219 32 39 32 C 39.550781 32 40 32.449219 40 33 Z "/>
<path style=" fill:#2196F3;" d="M 39 36 C 39 36.550781 38.550781 37 38 37 C 37.449219 37 37 36.550781 37 36 C 37 35.449219 37.449219 35 38 35 C 38.550781 35 39 35.449219 39 36 Z "/>
<path style=" fill:#2196F3;" d="M 38 39 C 38 39.550781 37.550781 40 37 40 C 36.449219 40 36 39.550781 36 39 C 36 38.449219 36.449219 38 37 38 C 37.550781 38 38 38.449219 38 39 Z "/>
<path style=" fill:#2196F3;" d="M 41 30 C 41 30.550781 40.550781 31 40 31 C 39.449219 31 39 30.550781 39 30 C 39 29.449219 39.449219 29 40 29 C 40.550781 29 41 29.449219 41 30 Z "/>
<path style=" fill:#2196F3;" d="M 28 33 C 28 33.550781 27.550781 34 27 34 C 26.449219 34 26 33.550781 26 33 C 26 32.449219 26.449219 32 27 32 C 27.550781 32 28 32.449219 28 33 Z "/>
<path style=" fill:#2196F3;" d="M 27 36 C 27 36.550781 26.550781 37 26 37 C 25.449219 37 25 36.550781 25 36 C 25 35.449219 25.449219 35 26 35 C 26.550781 35 27 35.449219 27 36 Z "/>
<path style=" fill:#2196F3;" d="M 26 39 C 26 39.550781 25.550781 40 25 40 C 24.449219 40 24 39.550781 24 39 C 24 38.449219 24.449219 38 25 38 C 25.550781 38 26 38.449219 26 39 Z "/>
<path style=" fill:#2196F3;" d="M 29 30 C 29 30.550781 28.550781 31 28 31 C 27.449219 31 27 30.550781 27 30 C 27 29.449219 27.449219 29 28 29 C 28.550781 29 29 29.449219 29 30 Z "/>
<path style=" fill:#2196F3;" d="M 13 30 C 13 30.550781 12.550781 31 12 31 C 11.449219 31 11 30.550781 11 30 C 11 29.449219 11.449219 29 12 29 C 12.550781 29 13 29.449219 13 30 Z "/>
</g>
</svg>
