<?xml version="1.0" encoding="UTF-8"?>
<svg xmlns="http://www.w3.org/2000/svg" xmlns:xlink="http://www.w3.org/1999/xlink" viewBox="0 0 32 32" version="1.1" width="512px" height="512px">
<g id="surface1">
<path style=" " d="M 16 5 C 12.667969 5 9.949219 7.371094 9.25 10.5 C 8.03125 10.980469 7.125 11.871094 6.59375 13.0625 C 6.394531 13.039063 6.210938 13 6 13 C 2.699219 13 0 15.699219 0 19 C 0 22.300781 2.699219 25 6 25 L 7 25 L 7 23 L 6 23 C 3.78125 23 2 21.21875 2 19 C 2 16.78125 3.78125 15 6 15 C 6.292969 15 6.578125 15.027344 6.875 15.09375 L 7.875 15.3125 L 8.0625 14.34375 C 8.308594 13.230469 9.203125 12.359375 10.3125 12.09375 L 10.96875 11.9375 L 11.0625 11.25 C 11.417969 8.835938 13.476563 7 16 7 C 17.957031 7 19.644531 8.121094 20.46875 9.75 L 20.84375 10.53125 L 21.6875 10.25 C 22.125 10.097656 22.554688 10 23 10 C 25.21875 10 27 11.78125 27 14 C 27 13.992188 26.984375 14.078125 26.96875 14.3125 L 26.90625 15.03125 L 27.5625 15.3125 C 28.992188 15.921875 30 17.339844 30 19 C 30 21.21875 28.21875 23 26 23 L 25 23 L 25 25 L 26 25 C 29.300781 25 32 22.300781 32 19 C 32 16.835938 30.730469 15.054688 29 14 C 29 10.699219 26.300781 8 23 8 C 22.566406 8 22.203125 8.128906 21.8125 8.21875 C 20.5625 6.300781 18.453125 5 16 5 Z M 13 20 L 13 23 L 15 23 L 15 20 Z M 21 20 L 21 23 L 23 23 L 23 20 Z M 9 22 L 9 25 L 11 25 L 11 22 Z M 17 22 L 17 25 L 19 25 L 19 22 Z M 13 24 L 13 26 L 15 26 L 15 24 Z M 21 24 L 21 26 L 23 26 L 23 24 Z M 9 26 L 9 28 L 11 28 L 11 26 Z M 17 26 L 17 28 L 19 28 L 19 26 Z "/>
</g>
</svg>
