<?xml version="1.0" encoding="UTF-8"?>
<svg xmlns="http://www.w3.org/2000/svg" xmlns:xlink="http://www.w3.org/1999/xlink" viewBox="0 0 32 32" version="1.1" width="512px" height="512px">
<g id="surface1">
<path style=" " d="M 16 5 C 12.773438 5 9.972656 7.257813 9.21875 10.34375 C 7.972656 10.828125 6.9375 11.8125 6.40625 13.03125 C 2.910156 12.773438 0 15.554688 0 19 C 0 22.308594 2.691406 25 6 25 L 10 25 L 11.5 23 L 6 23 C 3.792969 23 2 21.207031 2 19 C 2 16.792969 3.792969 15 6 15 C 6.277344 15 6.558594 15.023438 6.875 15.09375 L 7.875 15.3125 L 8.0625 14.34375 C 8.308594 13.238281 9.207031 12.359375 10.3125 12.09375 L 10.96875 11.9375 L 11.0625 11.28125 C 11.421875 8.847656 13.542969 7 16 7 C 17.894531 7 19.613281 8.054688 20.46875 9.75 L 20.84375 10.53125 L 21.6875 10.25 C 22.15625 10.085938 22.582031 10 23 10 C 25.207031 10 27 11.792969 27 14 C 27 14.039063 27.003906 14.089844 27 14.125 C 26.992188 14.191406 26.976563 14.242188 26.96875 14.3125 L 26.90625 15.03125 L 27.5625 15.3125 C 29.039063 15.941406 30 17.394531 30 19 C 30 21.207031 28.207031 23 26 23 L 22 23 L 20.5 25 L 26 25 C 29.308594 25 32 22.308594 32 19 C 32 16.835938 30.84375 14.875 29 13.8125 C 28.894531 10.59375 26.242188 8 23 8 C 22.609375 8 22.207031 8.039063 21.8125 8.125 C 20.523438 6.179688 18.371094 5 16 5 Z M 19 17 L 17 20 L 19 23 C 18.929688 23 21 20 21 20 Z M 15 22 L 13 25 L 15 28 C 14.929688 28 17 25 17 25 Z "/>
</g>
</svg>
