<?xml version="1.0" encoding="utf-8"?>
<!-- Generator: Adobe Illustrator 21.0.2, SVG Export Plug-In . SVG Version: 6.00 Build 0)  -->
<svg xmlns="http://www.w3.org/2000/svg" xmlns:xlink="http://www.w3.org/1999/xlink" version="1.1" id="Layer_1" x="0px" y="0px" viewBox="0 0 48 48" style="enable-background:new 0 0 48 48;" xml:space="preserve" width="480px" height="480px">
<g id="surface1">
	<rect x="22" y="30" style="fill:#795548;" width="4" height="12"/>
	<path style="fill:#795548;" d="M28,43h-8c0,0,2-1,2-2s4-1,4,0S28,43,28,43z"/>
	<path style="fill:#8BC34A;" d="M27,9.5c0,2.5-2,4.5-4.5,4.5S18,12,18,9.5S20,5,22.5,5S27,7,27,9.5z"/>
	<path style="fill:#8BC34A;" d="M34,28c0,2.8-2.2,5-5,5s-5-2.2-5-5s2.2-5,5-5S34,25.2,34,28z"/>
	<path style="fill:#8BC34A;" d="M40,29c0,2.2-1.8,4-4,4s-4-1.8-4-4s1.8-4,4-4S40,26.8,40,29z"/>
	<path style="fill:#8BC34A;" d="M36,13.5c0,1.9-1.6,3.5-3.5,3.5S29,15.4,29,13.5s1.6-3.5,3.5-3.5S36,11.6,36,13.5z"/>
	<path style="fill:#8BC34A;" d="M42,22c0,2.2-1.8,4-4,4s-4-1.8-4-4s1.8-4,4-4S42,19.8,42,22z"/>
	<path style="fill:#8BC34A;" d="M31,11.5c0,1.9-1.6,3.5-3.5,3.5S24,13.4,24,11.5S25.6,8,27.5,8S31,9.6,31,11.5z"/>
	<path style="fill:#8BC34A;" d="M39,19c0,2.2-1.8,4-4,4s-4-1.8-4-4s1.8-4,4-4S39,16.8,39,19z"/>
	<path style="fill:#8BC34A;" d="M28,31.5c0,2.5-2,4.5-4.5,4.5S19,34,19,31.5s2-4.5,4.5-4.5S28,29,28,31.5z"/>
	<path style="fill:#8BC34A;" d="M36,22c0-6.1-5.6-11-12.5-11S11,15.9,11,22s5.6,11,12.5,11S36,28.1,36,22z"/>
	<path style="fill:#8BC34A;" d="M22,11c0,2.2-1.8,4-4,4s-4-1.8-4-4s1.8-4,4-4S22,8.8,22,11z"/>
	<path style="fill:#8BC34A;" d="M17,30.5c0,1.9-1.6,3.5-3.5,3.5S10,32.4,10,30.5s1.6-3.5,3.5-3.5S17,28.6,17,30.5z"/>
	<path style="fill:#8BC34A;" d="M22,29.5c0,1.9-1.6,3.5-3.5,3.5S15,31.4,15,29.5s1.6-3.5,3.5-3.5S22,27.6,22,29.5z"/>
	<path style="fill:#8BC34A;" d="M13,27.5c0,1.9-1.6,3.5-3.5,3.5S6,29.4,6,27.5S7.6,24,9.5,24S13,25.6,13,27.5z"/>
	<path style="fill:#8BC34A;" d="M16,13.5c0,1.9-1.6,3.5-3.5,3.5S9,15.4,9,13.5s1.6-3.5,3.5-3.5S16,11.6,16,13.5z"/>
	<path style="fill:#8BC34A;" d="M16,23.5c0,1.9-1.6,3.5-3.5,3.5S9,25.4,9,23.5s1.6-3.5,3.5-3.5S16,21.6,16,23.5z"/>
	<path style="fill:#8BC34A;" d="M13,17.5c0,1.9-1.6,3.5-3.5,3.5S6,19.4,6,17.5S7.6,14,9.5,14S13,15.6,13,17.5z"/>
	<path style="fill:#689F38;" d="M15,17c-0.6,0-1-0.4-1-1c0-2.6,2.6-4,5-4c0.6,0,1,0.4,1,1s-0.4,1-1,1c-1.2,0-3,0.6-3,2   C16,16.6,15.6,17,15,17z"/>
	<path style="fill:#689F38;" d="M31,19c-0.6,0-1-0.4-1-1c0-1.7-1.3-3-3-3c-0.6,0-1-0.4-1-1s0.4-1,1-1c2.8,0,5,2.2,5,5   C32,18.6,31.6,19,31,19z"/>
	<path style="fill:#689F38;" d="M32,28c-0.6,0-1-0.4-1-1s0.4-1,1-1c1.1,0,2-0.9,2-2c0-0.6,0.4-1,1-1s1,0.4,1,1   C36,26.2,34.2,28,32,28z"/>
	<path style="fill:#689F38;" d="M22,31c-0.6,0-1-0.4-1-1c0-1.9,2.1-4,4-4c0.6,0,1,0.4,1,1s-0.4,1-1,1c-0.8,0-2,1.2-2,2   C23,30.6,22.6,31,22,31z"/>
	<path style="fill:#689F38;" d="M24,23c-0.6,0-1-0.4-1-1c0-0.8-1.2-2-2-2c-0.6,0-1-0.4-1-1s0.4-1,1-1c1.9,0,4,2.1,4,4   C25,22.6,24.6,23,24,23z"/>
	<path style="fill:#689F38;" d="M16,29c-2.6,0-4-2.6-4-5c0-0.6,0.4-1,1-1s1,0.4,1,1c0,1.2,0.6,3,2,3c0.6,0,1,0.4,1,1S16.6,29,16,29z   "/>
</g>
</svg>
