<?xml version="1.0" encoding="UTF-8"?>
<svg xmlns="http://www.w3.org/2000/svg" xmlns:xlink="http://www.w3.org/1999/xlink" viewBox="0 0 32 32" version="1.1" width="512px" height="512px">
<g id="surface1">
<path style=" " d="M 16 5 C 12.773438 5 9.972656 7.257813 9.21875 10.34375 C 7.972656 10.824219 6.9375 11.8125 6.40625 13.03125 C 2.898438 12.746094 0 15.554688 0 19 C 0 21.96875 2.167969 24.425781 5 24.90625 L 5 22.84375 C 3.28125 22.398438 2 20.859375 2 19 C 2 16.792969 3.792969 15 6 15 C 6.273438 15 6.558594 15.023438 6.875 15.09375 L 7.875 15.3125 L 8.0625 14.34375 C 8.308594 13.238281 9.207031 12.359375 10.3125 12.09375 L 10.96875 11.9375 L 11.0625 11.28125 C 11.421875 8.847656 13.542969 7 16 7 C 17.894531 7 19.613281 8.054688 20.46875 9.75 L 20.84375 10.53125 L 21.6875 10.25 C 22.15625 10.085938 22.582031 10 23 10 C 25.207031 10 27 11.792969 27 14 C 27 14.039063 27.003906 14.089844 27 14.125 C 26.992188 14.191406 26.976563 14.242188 26.96875 14.3125 L 26.90625 15.03125 L 27.5625 15.3125 C 29.039063 15.941406 30 17.394531 30 19 C 30 20.859375 28.71875 22.398438 27 22.84375 L 27 24.90625 C 29.832031 24.429688 32 21.96875 32 19 C 32 16.835938 30.84375 14.875 29 13.8125 C 28.894531 10.59375 26.242188 8 23 8 C 22.609375 8 22.207031 8.039063 21.8125 8.125 C 20.523438 6.179688 18.371094 5 16 5 Z M 11 17 L 11 19 L 13 19 L 13 17 Z M 19 17 L 19 19 L 21 19 L 21 17 Z M 15 18 L 15 21 L 17 21 L 17 18 Z M 7 19 L 7 21 L 9 21 L 9 19 Z M 23 19 L 23 21 L 25 21 L 25 19 Z M 11 20 L 11 23 L 13 23 L 13 20 Z M 19 20 L 19 23 L 21 23 L 21 20 Z M 7 22 L 7 25 L 9 25 L 9 22 Z M 15 22 L 15 25 L 17 25 L 17 22 Z M 23 22 L 23 25 L 25 25 L 25 22 Z M 11 24 L 11 28 L 13 28 L 13 24 Z M 19 24 L 19 28 L 21 28 L 21 24 Z M 7 26 L 7 28 L 9 28 L 9 26 Z M 15 26 L 15 28 L 17 28 L 17 26 Z M 23 26 L 23 28 L 25 28 L 25 26 Z "/>
</g>
</svg>
