<?xml version="1.0" encoding="utf-8"?>
<!-- Generator: Adobe Illustrator 21.0.2, SVG Export Plug-In . SVG Version: 6.00 Build 0)  -->
<svg xmlns="http://www.w3.org/2000/svg" xmlns:xlink="http://www.w3.org/1999/xlink" version="1.1" id="Layer_1" x="0px" y="0px" viewBox="0 0 48 48" style="enable-background:new 0 0 48 48;" xml:space="preserve" width="480px" height="480px">
<g id="surface1">
	<path style="fill:#546E7A;" d="M30,45H18c0,0-8-9.9-8-22c0-10.6,5.5-11.9,5.8-12l0.2,0l16.2,0c0.2,0.1,5.8,1.4,5.8,12   C38,35.1,30,45,30,45z"/>
	<path style="fill:#FFC107;" d="M28.3,46.7L27,45.4l-1.3,1.3l-1.4-1.4l1.7-1.7V39h2v4.6l1.7,1.7L28.3,46.7z M22.3,46.7L21,45.4   l-1.3,1.3l-1.4-1.4l1.7-1.7V39h2v4.6l1.7,1.7L22.3,46.7z"/>
	<path style="fill:#CFD8DC;" d="M35,25c0-5.3-2.4-7.8-3-8H16c-0.4,0.4-3,3.2-3,9c0,6.7,2.3,11.6,5,16l1-1l5-7l5,7l1,1   C32.7,37.5,35,31.7,35,25z"/>
	<path style="fill:#78909C;" d="M16,17c0,0-1,2.1-1,7c0,6.1,4,17,4,17l2-2l1,2h4l1-2l2,2c0,0,4-10.9,4-17c0-4.9-1-7-1-7L24,4L16,17z   "/>
	<path style="fill:#37474F;" d="M26,22l-2,3l-2-3H26z M17,22l2,3l2-3H17z M27,22l2,3l2-3H27z M19,26l2,3l2-3H19z M25,26l2,3l2-3H25z    M22,30l2,3l2-3H22z"/>
	<path style="fill:#607D8B;" d="M24,20.7l-0.8-1.1c-3.2-4.4-7.4-5.4-7.4-5.4L15,14v-2.8C15,6.7,17.4,2,24,2s9,4.7,9,9.2V14l-0.8,0.2   c-0.1,0-4.3,1-7.4,5.4L24,20.7z"/>
	<path style="fill:#B0BEC5;" d="M24,20.7l-0.8-1.1c-3.2-4.4-7.4-5.4-7.4-5.4L15,14v-2.8c0-1.8,0.4-3.6,1.3-5.2c1.3-2.3,3.8,2,7.7,2   c3.9,0,6.4-4.3,7.7-2c0.9,1.6,1.3,3.4,1.3,5.2V14l-0.8,0.2c-0.1,0-4.3,1-7.4,5.4L24,20.7z"/>
	<path style="fill:#37474F;" d="M32.9,3c0,0-1.2,2-3,2h0c-3.3,0-5,1.1-5.9,2.3C23,6.1,21.3,5,18,5c-1.8,0-3-2-3-2   c-0.4,1.2,0.2,2.5,1.2,3.3c-0.5,1-0.9,2.1-1,3.3c0.5,2,2.2,3.5,4.4,3.5c1.9,0,3.6-1.3,4.2-3l0.6,0c0.6,1.7,2.3,3,4.2,3   c2.1,0,3.9-1.5,4.4-3.5c-0.2-1.2-0.5-2.3-1.1-3.3C32.7,5.4,33.3,4.1,32.9,3z"/>
	<path style="fill:#FFC107;" d="M24,8c-0.5,0-1,1.1-1,2s1,3,1,3s1-2.1,1-3S24.5,8,24,8z"/>
	<path style="fill:#FFEA00;" d="M31,6.7c0,0.6,0,0.7,0,1.8c0,1.4-1.1,2.5-2.5,2.5S26,9.9,26,8.5c0-0.2,0-0.4,0.1-0.5   c0.7-0.5,1.9-1,3.8-1C30.3,7,30.6,6.9,31,6.7z M17,6.7c0,0.6,0,0.7,0,1.8c0,1.4,1.1,2.5,2.5,2.5S22,9.9,22,8.5c0-0.2,0-0.4-0.1-0.5   c-0.7-0.5-1.9-1-3.8-1C17.7,7,17.4,6.9,17,6.7z"/>
	<path style="fill:#212121;" d="M28,9c-0.6,0-1-0.4-1-1c0-0.2,0.1-0.4,0.2-0.6c0.3-0.1,0.7-0.2,1.2-0.3C28.8,7.3,29,7.6,29,8   C29,8.6,28.6,9,28,9z M20,9c0.6,0,1-0.4,1-1c0-0.2-0.1-0.4-0.2-0.6c-0.3-0.1-0.7-0.2-1.2-0.3C19.2,7.3,19,7.6,19,8   C19,8.6,19.4,9,20,9z"/>
</g>
</svg>
