<?xml version="1.0" encoding="UTF-8"?>
<svg xmlns="http://www.w3.org/2000/svg" xmlns:xlink="http://www.w3.org/1999/xlink" viewBox="0 0 32 32" version="1.1" width="512px" height="512px">
<g id="surface1">
<path style=" " d="M 5 5 C 5 6.847656 5.898438 8.347656 7.15625 8.824219 C 7.0625 9.203125 7 9.59375 7 10 C 7 10.65625 7.136719 11.28125 7.367188 11.855469 C 7.136719 12.695313 7 13.578125 7 14.5 L 7 14.628906 C 4.539063 17.632813 3 21.835938 3 26.5 L 3 27 L 5 27 L 5 26.5 C 5 22.847656 6.039063 19.515625 7.738281 16.964844 L 7.757813 16.96875 C 9.578125 17.429688 11.46875 18.394531 12.84375 19.546875 C 14.214844 20.699219 15 22.003906 15 23 L 17 23 C 17 22.058594 17.78125 20.753906 19.160156 19.59375 C 20.539063 18.433594 22.433594 17.445313 24.253906 16.96875 L 24.265625 16.964844 C 25.960938 19.515625 27 22.847656 27 26.5 L 27 27 L 29 27 L 29 26.5 C 29 21.835938 27.460938 17.628906 25 14.628906 L 25 14.5 C 25 13.582031 24.863281 12.695313 24.628906 11.859375 C 24.863281 11.28125 25 10.65625 25 10 C 25 9.59375 24.9375 9.203125 24.84375 8.824219 C 26.101563 8.347656 27 6.847656 27 5 L 23 6 L 23.015625 6.039063 C 22.171875 5.398438 21.132813 5 20 5 C 19.390625 5 18.8125 5.113281 18.273438 5.3125 C 17.546875 5.113281 16.785156 5 16 5 C 15.214844 5 14.453125 5.113281 13.722656 5.3125 C 13.1875 5.113281 12.605469 5 12 5 C 10.867188 5 9.828125 5.398438 8.984375 6.039063 L 9 6 Z M 12 7 C 12.386719 7 12.753906 7.078125 13.09375 7.210938 L 13.246094 7.28125 C 13.503906 7.398438 13.742188 7.550781 13.953125 7.734375 C 13.957031 7.734375 13.957031 7.738281 13.957031 7.738281 C 14.058594 7.824219 14.148438 7.914063 14.234375 8.007813 C 14.257813 8.035156 14.277344 8.0625 14.296875 8.085938 C 14.417969 8.226563 14.519531 8.378906 14.609375 8.539063 C 14.648438 8.609375 14.691406 8.679688 14.726563 8.757813 C 14.757813 8.824219 14.78125 8.894531 14.808594 8.96875 C 14.847656 9.070313 14.878906 9.175781 14.90625 9.285156 C 14.921875 9.34375 14.9375 9.402344 14.949219 9.460938 C 14.976563 9.636719 15 9.816406 15 10 C 15 11.667969 13.667969 13 12 13 C 11.816406 13 11.640625 12.976563 11.46875 12.949219 C 11.40625 12.9375 11.34375 12.921875 11.285156 12.90625 C 11.179688 12.878906 11.074219 12.847656 10.972656 12.8125 C 10.90625 12.785156 10.835938 12.765625 10.773438 12.734375 C 10.644531 12.679688 10.519531 12.609375 10.402344 12.535156 C 10.289063 12.460938 10.175781 12.378906 10.074219 12.289063 C 9.765625 12.023438 9.507813 11.695313 9.324219 11.324219 L 9.210938 11.09375 C 9.078125 10.757813 9 10.390625 9 10 C 9 8.332031 10.332031 7 12 7 Z M 16 7 C 16.007813 7 16.019531 7.003906 16.027344 7.003906 C 16.019531 7.015625 16.007813 7.027344 16 7.039063 C 15.992188 7.027344 15.980469 7.015625 15.972656 7.003906 C 15.980469 7.003906 15.992188 7 16 7 Z M 20 7 C 21.667969 7 23 8.332031 23 10 C 23 10.386719 22.921875 10.75 22.792969 11.085938 L 22.671875 11.324219 C 22.488281 11.695313 22.234375 12.027344 21.921875 12.292969 C 21.765625 12.421875 21.597656 12.535156 21.421875 12.628906 C 21.355469 12.664063 21.292969 12.707031 21.226563 12.734375 C 21.164063 12.765625 21.09375 12.785156 21.027344 12.8125 C 20.925781 12.847656 20.820313 12.878906 20.714844 12.90625 C 20.65625 12.921875 20.59375 12.9375 20.53125 12.949219 C 20.359375 12.976563 20.183594 13 20 13 C 19.792969 13 19.589844 12.980469 19.390625 12.9375 C 18.019531 12.660156 17 11.460938 17 10 C 17 9.816406 17.023438 9.636719 17.050781 9.460938 C 17.0625 9.402344 17.078125 9.34375 17.09375 9.285156 C 17.121094 9.175781 17.152344 9.070313 17.191406 8.96875 C 17.21875 8.894531 17.242188 8.824219 17.273438 8.757813 C 17.308594 8.679688 17.351563 8.609375 17.390625 8.539063 C 17.480469 8.378906 17.582031 8.226563 17.703125 8.085938 C 17.722656 8.0625 17.742188 8.035156 17.765625 8.007813 C 18.039063 7.703125 18.375 7.453125 18.753906 7.28125 L 18.90625 7.210938 C 19.246094 7.078125 19.613281 7 20 7 Z M 12 9 C 11.449219 9 11 9.449219 11 10 C 11 10.550781 11.449219 11 12 11 C 12.550781 11 13 10.550781 13 10 C 13 9.449219 12.550781 9 12 9 Z M 20 9 C 19.449219 9 19 9.449219 19 10 C 19 10.550781 19.449219 11 20 11 C 20.550781 11 21 10.550781 21 10 C 21 9.449219 20.550781 9 20 9 Z M 9.074219 14.03125 C 9.898438 14.632813 10.90625 15 12 15 C 12.289063 15 12.566406 14.964844 12.839844 14.917969 C 12.859375 14.914063 12.875 14.910156 12.894531 14.90625 C 13.167969 14.855469 13.4375 14.789063 13.695313 14.695313 L 16 17 L 18.304688 14.695313 C 18.5625 14.789063 18.832031 14.855469 19.105469 14.90625 C 19.125 14.910156 19.140625 14.914063 19.160156 14.917969 C 19.433594 14.964844 19.710938 15 20 15 C 21.09375 15 22.101563 14.632813 22.925781 14.03125 C 22.949219 14.1875 23 14.335938 23 14.5 L 23 15.324219 C 21.132813 15.925781 19.3125 16.855469 17.875 18.0625 C 17.132813 18.683594 16.515625 19.386719 16.015625 20.125 C 15.511719 19.363281 14.882813 18.644531 14.125 18.015625 C 12.6875 16.808594 10.867188 15.902344 9 15.316406 L 9 14.5 C 9 14.335938 9.050781 14.1875 9.074219 14.03125 Z M 9 21 L 10.5 23 L 12 21 Z M 20 21 L 21.5 23 L 23 21 Z M 7 25 L 8.5 27 L 10 25 Z M 12 25 L 13.5 27 L 15 25 Z M 17 25 L 18.5 27 L 20 25 Z M 22 25 L 23.5 27 L 25 25 Z "/>
</g>
</svg>
