<?xml version="1.0" encoding="UTF-8"?>
<svg xmlns="http://www.w3.org/2000/svg" xmlns:xlink="http://www.w3.org/1999/xlink" viewBox="0 0 32 32" version="1.1" width="512px" height="512px">
<g id="surface1">
<path style=" " d="M 16 4 C 14.992188 4 14.136719 4.445313 13.4375 5.0625 C 13.289063 5.042969 13.160156 5 13 5 C 11.539063 5 10.382813 5.886719 9.6875 7.0625 C 7.75 7.222656 6.222656 8.75 6.0625 10.6875 C 4.886719 11.382813 4 12.539063 4 14 C 4 14.746094 4.265625 15.40625 4.625 16 C 4.265625 16.59375 4 17.253906 4 18 C 4 20.085938 5.640625 21.769531 7.6875 21.9375 C 8.382813 23.113281 9.539063 24 11 24 C 11.742188 24 12.414063 23.753906 13 23.375 L 13 24 C 13 24.527344 12.890625 24.679688 12.6875 24.875 C 12.484375 25.070313 12.121094 25.261719 11.65625 25.4375 C 11.191406 25.613281 10.636719 25.785156 10.09375 26.125 C 9.550781 26.464844 9 27.167969 9 28 L 11 28 C 11 27.839844 10.949219 27.941406 11.15625 27.8125 C 11.363281 27.683594 11.808594 27.515625 12.34375 27.3125 C 12.878906 27.109375 13.515625 26.871094 14.0625 26.34375 C 14.609375 25.816406 15 24.972656 15 24 L 15 19 L 13 19 L 13 20.65625 L 12.71875 21.09375 C 12.371094 21.617188 11.703125 22 11 22 C 10.121094 22 9.398438 21.441406 9.125 20.65625 L 8.875 19.9375 L 8.125 19.96875 C 7.953125 19.980469 7.90625 20 8 20 C 6.882813 20 6 19.117188 6 18 C 6 17.488281 6.203125 17.019531 6.53125 16.65625 L 7.125 16 L 6.53125 15.34375 C 6.203125 14.980469 6 14.511719 6 14 C 6 13.121094 6.558594 12.398438 7.34375 12.125 L 8.0625 11.875 L 8.03125 11.125 C 8.019531 10.953125 8 10.90625 8 11 C 8 9.882813 8.882813 9 10 9 C 9.90625 9 9.953125 9.019531 10.125 9.03125 L 10.875 9.0625 L 11.125 8.34375 C 11.398438 7.558594 12.121094 7 13 7 C 13.140625 7 13.296875 7.019531 13.46875 7.0625 L 14.0625 7.21875 L 14.46875 6.71875 C 14.84375 6.269531 15.382813 6 16 6 C 16.617188 6 17.15625 6.269531 17.53125 6.71875 L 17.9375 7.21875 L 18.53125 7.0625 C 18.703125 7.019531 18.859375 7 19 7 C 19.878906 7 20.601563 7.558594 20.875 8.34375 L 21.125 9.0625 L 21.875 9.03125 C 22.046875 9.019531 22.09375 9 22 9 C 23.117188 9 24 9.882813 24 11 C 24 10.90625 23.980469 10.953125 23.96875 11.125 L 23.9375 11.875 L 24.65625 12.125 C 25.441406 12.398438 26 13.121094 26 14 C 26 14.511719 25.796875 14.980469 25.46875 15.34375 L 24.875 16 L 25.46875 16.65625 C 25.796875 17.019531 26 17.488281 26 18 C 26 19.117188 25.117188 20 24 20 C 24.09375 20 24.046875 19.980469 23.875 19.96875 L 23.125 19.9375 L 22.875 20.65625 C 22.601563 21.441406 21.878906 22 21 22 C 20.296875 22 19.582031 21.597656 19.25 21.09375 L 19 20.71875 L 19 19 L 17 19 L 17 24 C 17 24.972656 17.390625 25.816406 17.9375 26.34375 C 18.484375 26.871094 19.121094 27.109375 19.65625 27.3125 C 20.191406 27.515625 20.636719 27.683594 20.84375 27.8125 C 21.050781 27.941406 21 27.839844 21 28 L 23 28 C 23 27.167969 22.449219 26.464844 21.90625 26.125 C 21.363281 25.785156 20.808594 25.613281 20.34375 25.4375 C 19.878906 25.261719 19.515625 25.070313 19.3125 24.875 C 19.109375 24.679688 19 24.527344 19 24 L 19 23.375 C 19.59375 23.753906 20.25 24 21 24 C 22.460938 24 23.617188 23.113281 24.3125 21.9375 C 26.359375 21.769531 28 20.085938 28 18 C 28 17.253906 27.734375 16.59375 27.375 16 C 27.734375 15.40625 28 14.746094 28 14 C 28 12.539063 27.113281 11.382813 25.9375 10.6875 C 25.777344 8.75 24.25 7.222656 22.3125 7.0625 C 21.617188 5.886719 20.460938 5 19 5 C 18.839844 5 18.710938 5.042969 18.5625 5.0625 C 17.863281 4.445313 17.007813 4 16 4 Z "/>
</g>
</svg>
