<?xml version="1.0" encoding="UTF-8"?>
<svg xmlns="http://www.w3.org/2000/svg" xmlns:xlink="http://www.w3.org/1999/xlink" viewBox="0 0 48 48" version="1.1" width="480px" height="480px">
<g id="surface1">
<path style=" fill:#BBDEFB;" d="M 38 13.5 C 38 18.195313 34.195313 22 29.5 22 C 24.804688 22 21 18.195313 21 13.5 C 21 8.804688 24.804688 5 29.5 5 C 34.195313 5 38 8.804688 38 13.5 Z "/>
<path style=" fill:#BBDEFB;" d="M 44 21.894531 C 44 25.757813 40.867188 28.894531 37 28.894531 C 33.132813 28.894531 30 25.757813 30 21.894531 C 30 18.027344 33.132813 14.894531 37 14.894531 C 40.867188 14.894531 44 18.027344 44 21.894531 Z "/>
<path style=" fill:#BBDEFB;" d="M 18 22 C 18 25.867188 14.867188 29 11 29 C 7.132813 29 4 25.867188 4 22 C 4 18.132813 7.132813 15 11 15 C 14.867188 15 18 18.132813 18 22 Z "/>
<path style=" fill:#BBDEFB;" d="M 24 14.5 C 24 18.089844 21.089844 21 17.5 21 C 13.910156 21 11 18.089844 11 14.5 C 11 10.910156 13.910156 8 17.5 8 C 21.089844 8 24 10.910156 24 14.5 Z "/>
<path style=" fill:#BBDEFB;" d="M 32 19.894531 C 32 23.757813 28.867188 26.894531 25 26.894531 C 21.132813 26.894531 18 23.757813 18 19.894531 C 18 16.027344 21.132813 12.894531 25 12.894531 C 28.867188 12.894531 32 16.027344 32 19.894531 Z "/>
<path style=" fill:#BBDEFB;" d="M 7 25 C 7 27.210938 8.789063 29 11 29 L 36 29 C 38.210938 29 40 27.210938 40 25 L 40 24 C 40 21.789063 38.210938 20 36 20 L 11 20 C 8.789063 20 7 21.789063 7 24 Z "/>
<path style=" fill:#2196F3;" d="M 21 30 C 21 30.550781 20.550781 31 20 31 C 19.449219 31 19 30.550781 19 30 C 19 29.449219 19.449219 29 20 29 C 20.550781 29 21 29.449219 21 30 Z "/>
<path style=" fill:#2196F3;" d="M 35 30 C 35 30.550781 34.550781 31 34 31 C 33.449219 31 33 30.550781 33 30 C 33 29.449219 33.449219 29 34 29 C 34.550781 29 35 29.449219 35 30 Z "/>
<path style=" fill:#2196F3;" d="M 20 33 C 20 33.550781 19.550781 34 19 34 C 18.449219 34 18 33.550781 18 33 C 18 32.449219 18.449219 32 19 32 C 19.550781 32 20 32.449219 20 33 Z "/>
<path style=" fill:#2196F3;" d="M 19 36 C 19 36.550781 18.550781 37 18 37 C 17.449219 37 17 36.550781 17 36 C 17 35.449219 17.449219 35 18 35 C 18.550781 35 19 35.449219 19 36 Z "/>
<path style=" fill:#2196F3;" d="M 18 39 C 18 39.550781 17.550781 40 17 40 C 16.449219 40 16 39.550781 16 39 C 16 38.449219 16.449219 38 17 38 C 17.550781 38 18 38.449219 18 39 Z "/>
<path style=" fill:#2196F3;" d="M 34 33 C 34 33.550781 33.550781 34 33 34 C 32.449219 34 32 33.550781 32 33 C 32 32.449219 32.449219 32 33 32 C 33.550781 32 34 32.449219 34 33 Z "/>
<path style=" fill:#2196F3;" d="M 33 36 C 33 36.550781 32.550781 37 32 37 C 31.449219 37 31 36.550781 31 36 C 31 35.449219 31.449219 35 32 35 C 32.550781 35 33 35.449219 33 36 Z "/>
<path style=" fill:#2196F3;" d="M 32 39 C 32 39.550781 31.550781 40 31 40 C 30.449219 40 30 39.550781 30 39 C 30 38.449219 30.449219 38 31 38 C 31.550781 38 32 38.449219 32 39 Z "/>
<path style=" fill:#2196F3;" d="M 17 42 C 17 42.550781 16.550781 43 16 43 C 15.449219 43 15 42.550781 15 42 C 15 41.449219 15.449219 41 16 41 C 16.550781 41 17 41.449219 17 42 Z "/>
<path style=" fill:#2196F3;" d="M 31 42 C 31 42.550781 30.550781 43 30 43 C 29.449219 43 29 42.550781 29 42 C 29 41.449219 29.449219 41 30 41 C 30.550781 41 31 41.449219 31 42 Z "/>
<path style=" fill:#2196F3;" d="M 13 33 C 13 33.550781 12.550781 34 12 34 C 11.449219 34 11 33.550781 11 33 C 11 32.449219 11.449219 32 12 32 C 12.550781 32 13 32.449219 13 33 Z "/>
<path style=" fill:#2196F3;" d="M 12 36 C 12 36.550781 11.550781 37 11 37 C 10.449219 37 10 36.550781 10 36 C 10 35.449219 10.449219 35 11 35 C 11.550781 35 12 35.449219 12 36 Z "/>
<path style=" fill:#2196F3;" d="M 27 33 C 27 33.550781 26.550781 34 26 34 C 25.449219 34 25 33.550781 25 33 C 25 32.449219 25.449219 32 26 32 C 26.550781 32 27 32.449219 27 33 Z "/>
<path style=" fill:#2196F3;" d="M 26 36 C 26 36.550781 25.550781 37 25 37 C 24.449219 37 24 36.550781 24 36 C 24 35.449219 24.449219 35 25 35 C 25.550781 35 26 35.449219 26 36 Z "/>
<path style=" fill:#2196F3;" d="M 11 39 C 11 39.550781 10.550781 40 10 40 C 9.449219 40 9 39.550781 9 39 C 9 38.449219 9.449219 38 10 38 C 10.550781 38 11 38.449219 11 39 Z "/>
<path style=" fill:#2196F3;" d="M 25 39 C 25 39.550781 24.550781 40 24 40 C 23.449219 40 23 39.550781 23 39 C 23 38.449219 23.449219 38 24 38 C 24.550781 38 25 38.449219 25 39 Z "/>
<path style=" fill:#2196F3;" d="M 28 30 C 28 30.550781 27.550781 31 27 31 C 26.449219 31 26 30.550781 26 30 C 26 29.449219 26.449219 29 27 29 C 27.550781 29 28 29.449219 28 30 Z "/>
<path style=" fill:#2196F3;" d="M 14 30 C 14 30.550781 13.550781 31 13 31 C 12.449219 31 12 30.550781 12 30 C 12 29.449219 12.449219 29 13 29 C 13.550781 29 14 29.449219 14 30 Z "/>
</g>
</svg>
