<?xml version="1.0" encoding="utf-8"?>
<!-- Generator: Adobe Illustrator 21.0.2, SVG Export Plug-In . SVG Version: 6.00 Build 0)  -->
<svg xmlns="http://www.w3.org/2000/svg" xmlns:xlink="http://www.w3.org/1999/xlink" version="1.1" id="Layer_1" x="0px" y="0px" viewBox="0 0 48 48" style="enable-background:new 0 0 48 48;" xml:space="preserve" width="480px" height="480px">
<g id="surface1">
	<path style="fill:#689F38;" d="M34,41l0.1-1.1c0.1-0.4,0.1-0.8,0.2-1.2c0.1-0.8,0.3-1.5,0.5-2.3c0.4-1.5,1-2.9,1.7-4.3   c0.7-1.4,1.5-2.6,2.4-3.8c0.9-1.2,1.9-2.3,3.1-3.2c-1,1.1-1.8,2.4-2.5,3.6c-0.7,1.3-1.3,2.6-1.7,4c-0.4,1.4-0.7,2.8-0.9,4.2   c-0.1,0.7-0.1,1.4-0.1,2.1c0,0.4,0,0.7,0,1L37,41L34,41z"/>
	<path style="fill:#689F38;" d="M27.8,37.9c0.2-0.8,0.3-1.7,0.4-2.5c0.1-0.9,0.2-1.7,0.2-2.6c0-0.9-0.1-1.7-0.2-2.5   C28,29.4,27.7,28.6,27,28c0.8,0.4,1.4,1.2,1.9,2c0.4,0.8,0.8,1.7,1,2.6s0.4,1.8,0.6,2.7c0.1,0.9,0.3,1.8,0.3,2.8L27.8,37.9z"/>
	<path style="fill:#558B2F;" d="M35,41.7c0.3-1.1,0.7-2,1.1-3c0.4-0.9,0.9-1.9,1.4-2.8c0.5-0.9,1.1-1.8,1.9-2.5   c0.7-0.7,1.6-1.4,2.7-1.5c-0.9,0.4-1.6,1.1-2.1,2c-0.5,0.8-0.8,1.7-1.1,2.6c-0.3,0.9-0.5,1.9-0.6,2.8c-0.1,0.9-0.3,1.9-0.3,2.8   L35,41.7z"/>
	<path style="fill:#8BC34A;" d="M32,41.1c0-2.3,0.2-4.7,0.7-6.9c0.5-2.3,1.2-4.4,2.2-6.5c1-2.1,2.2-4,3.5-5.8   c1.4-1.8,2.9-3.5,4.6-4.9c-1.6,1.6-2.9,3.4-4,5.3c-1.1,1.9-2.1,3.9-2.8,5.9s-1.2,4.2-1.4,6.3c-0.2,2.1-0.2,4.3,0.1,6.4L32,41.1z"/>
	<path style="fill:#8BC34A;" d="M40.2,9.3c-0.4-0.4-1-0.4-1.4-0.1c-6.9,6.1-8.2,19.3-8.4,25.9c0,0.1,0,0.1,0,0.2   c0.1,0.9,0.3,1.8,0.3,2.8l-0.4,0c0,0.5,0,0.9,0,1c0,0.5,0.5,0.9,1,0.9c0,0,0,0,0,0c0.6,0,1-0.5,1-1c0-0.2-0.9-20.6,7.7-28.2   C40.5,10.4,40.6,9.8,40.2,9.3z"/>
	<path style="fill:#42A5F5;" d="M5,5c0,0,11,5,11,12S6,25,6,32c0,6,10,11,10,11h27c0,0-19-6-19-12c0-5,3-9,3-13C27,15,24,5,5,5z"/>
	<path style="fill:#90CAF9;" d="M17,40c-0.2,0-0.3,0-0.5-0.1c-4-2.2-6.4-4.6-6.9-7.1c-0.4-2,0.5-3.2,0.6-3.4c0.3-0.4,1-0.5,1.4-0.2   c0.4,0.3,0.5,0.9,0.2,1.4c0,0-0.5,0.7-0.2,1.8c0.3,1.3,1.6,3.3,5.9,5.7c0.5,0.3,0.7,0.9,0.4,1.4C17.7,39.8,17.4,40,17,40z"/>
	<path style="fill:#90CAF9;" d="M18,32c-0.4,0-0.7-0.2-0.9-0.6c-1.8-3.5,0.4-6.9,2.3-10c0.6-1,1.2-2,1.7-2.9   c0.2-0.5,0.8-0.7,1.3-0.4c0.5,0.2,0.7,0.8,0.4,1.3c-0.5,1-1.2,2.1-1.8,3.1c-1.8,2.8-3.5,5.5-2.2,8c0.2,0.5,0,1.1-0.4,1.3   C18.3,32,18.2,32,18,32z"/>
	<path style="fill:#90CAF9;" d="M27,41c-0.1,0-0.2,0-0.3-0.1c-3.2-1.1-5.3-3.2-5.4-3.2c-0.4-0.4-0.4-1,0-1.4c0.4-0.4,1-0.4,1.4,0   c0,0,1.9,1.9,4.6,2.8c0.5,0.2,0.8,0.7,0.6,1.3C27.8,40.7,27.4,41,27,41z"/>
	<path style="fill:#795548;" d="M34,21c-0.2,0-0.4,0-0.7-0.1c-1.1-0.4-1.6-1.5-1.3-2.5c0.9-2.5,1.9-4.7,3.2-6.5   c0.6-0.9,1.9-1.2,2.8-0.6c0.9,0.6,1.2,1.9,0.6,2.8c-1,1.5-1.9,3.4-2.7,5.5C35.7,20.5,34.9,21,34,21z"/>
</g>
</svg>
