<?xml version="1.0" encoding="utf-8"?>
<!-- Generator: Adobe Illustrator 21.0.2, SVG Export Plug-In . SVG Version: 6.00 Build 0)  -->
<svg xmlns="http://www.w3.org/2000/svg" xmlns:xlink="http://www.w3.org/1999/xlink" version="1.1" id="Layer_1" x="0px" y="0px" viewBox="0 0 48 48" style="enable-background:new 0 0 48 48;" xml:space="preserve" width="480px" height="480px">
<g id="surface1">
	<path style="fill:#DCE775;" d="M43,16h-7c-0.6,0-1,0.4-1,1c0,0,0,15-16,15h-1v3h3c0,0,17,0,17-16c0,0,3-1,5-1c0.6,0,1-0.4,1-1   S43.6,16,43,16z"/>
	<path style="fill:#7CB342;" d="M40.5,38c-0.2,0-0.4-0.1-0.6-0.2c-2.5-1.7-6.5,0.1-6.5,0.1c-0.5,0.2-1.1,0-1.3-0.5   c-0.2-0.5,0-1.1,0.5-1.3c0.2-0.1,5-2.2,8.5,0.1c0.5,0.3,0.6,0.9,0.3,1.4C41.1,37.8,40.8,38,40.5,38z"/>
	<path style="fill:#7CB342;" d="M34,9c-4,0-10,5-10,5s-9,0-13,3S3,28,3,29s0,4,5,4l10-1h1c16,0,16-15,16-15c0-0.6,0.4-1,1-1h8   c0.6,0,1-0.4,1-1C45,15,45,9,34,9z"/>
	<path style="fill:#7CB342;" d="M32.2,37.7c0,0-3.8-4.8-4.2-5.7c-1-2-1-5-1-5l6-4l-1,7l3,6C35,36,33.2,36.7,32.2,37.7z"/>
	<path style="fill:#7CB342;" d="M27.1,36.2c-0.8-0.6-2.1-0.8-3.7-1c-3.6-0.8-9-1.2-11.7-1.2C7.4,34,4,34.9,4,36s3.4,2,7.7,2   c0.1,0,0.2,0,0.3,0c0,0,0,0,0,0c0.1,0,0.1,0,0.2,0c2.8-0.1,4.7-0.5,6.8-0.8c3.1-0.2,5.9-0.1,7,0.6c0.5,0.3,1.1,0.2,1.4-0.3   C27.6,37.1,27.5,36.5,27.1,36.2z"/>
	<path style="fill:#CFD8DC;" d="M38,11.5c0,1.9-1.6,3.5-3.5,3.5S31,13.4,31,11.5S32.6,8,34.5,8S38,9.6,38,11.5z"/>
	<path style="fill:#37474F;" d="M38,11.5c0,0.8-0.7,1.5-1.5,1.5S35,12.3,35,11.5s0.7-1.5,1.5-1.5S38,10.7,38,11.5z"/>
	<path style="fill:#558B2F;" d="M33,11.5c0-1.6,1.1-2.9,2.5-3.3c-0.3-0.1-0.6-0.2-1-0.2C32.6,8,31,9.6,31,11.5s1.6,3.5,3.5,3.5   c0.4,0,0.7-0.1,1-0.2C34.1,14.4,33,13.1,33,11.5z"/>
	<path style="fill:#558B2F;" d="M42,36.5c0,0.8-0.7,1.5-1.5,1.5S39,37.3,39,36.5s0.7-1.5,1.5-1.5S42,35.7,42,36.5z"/>
	<path style="fill:#558B2F;" d="M42.7,12.3C43.1,12.7,43,14,43,14s-1.3,0.1-1.7-0.3s-0.4-1,0-1.4S42.3,11.9,42.7,12.3z"/>
	<path style="fill:#558B2F;" d="M28,36.5c0,0.8-0.7,1.5-1.5,1.5S25,37.3,25,36.5s0.7-1.5,1.5-1.5S28,35.7,28,36.5z"/>
	<path style="fill:#558B2F;" d="M25,36.5c0,0.8-0.7,1.5-1.5,1.5S22,37.3,22,36.5s0.7-1.5,1.5-1.5S25,35.7,25,36.5z"/>
	<path style="fill:#558B2F;" d="M11.7,34c1.6,0,4.3,0.2,7,0.5c3.8-2,6.3-4.6,6.3-6.5c0-3-3.3-4-8.8-3C9.7,26.2,4,33,4,35   c0,0-0.1,0.4,0,0.8C4.4,34.8,7.7,34,11.7,34z"/>
	<path style="fill:#689F38;" d="M6,30c-0.1,0-0.2,0-0.3-0.1c-0.5-0.2-0.8-0.8-0.6-1.3c0,0,0.4-1.2,1.3-2.9c0.3-0.5,0.9-0.7,1.4-0.4   c0.5,0.3,0.7,0.9,0.4,1.4c-0.8,1.5-1.2,2.6-1.2,2.6C6.8,29.7,6.4,30,6,30z"/>
	<path style="fill:#689F38;" d="M8.6,25.1c-0.2,0-0.4-0.1-0.6-0.2c-0.5-0.3-0.6-0.9-0.3-1.4c1.6-2.4,3.5-4.3,5.6-5.6   c0.5-0.3,1.1-0.2,1.4,0.3c0.3,0.5,0.2,1.1-0.3,1.4c-1.8,1.1-3.5,2.8-5,5C9.2,25,8.9,25.1,8.6,25.1z"/>
	<path style="fill:#689F38;" d="M16.1,18.7c-0.4,0-0.8-0.2-0.9-0.6c-0.2-0.5,0.1-1.1,0.6-1.3c1-0.4,2.1-0.7,3.2-0.8   c0.5-0.1,1,0.3,1.1,0.9c0.1,0.5-0.3,1-0.9,1.1c-0.9,0.1-1.8,0.3-2.7,0.7C16.3,18.7,16.2,18.7,16.1,18.7z"/>
</g>
</svg>
