<?xml version="1.0" encoding="UTF-8"?>
<svg xmlns="http://www.w3.org/2000/svg" xmlns:xlink="http://www.w3.org/1999/xlink" viewBox="0 0 32 32" version="1.1" width="512px" height="512px">
<g id="surface1">
<path style=" " d="M 10.65625 4 L 10.65625 6 C 11.53125 6 13.242188 6.355469 14.59375 7.28125 C 15.945313 8.207031 17 9.597656 17 12 C 17 13.050781 16.5625 14.292969 16.0625 15.65625 C 15.5625 17.019531 15 18.503906 15 20.125 C 15 21.511719 15.550781 22.710938 16.375 23.625 C 17.199219 24.539063 18.265625 25.199219 19.40625 25.6875 C 21.691406 26.664063 24.265625 27 26 27 L 26 25 C 25.71875 25 25.375 24.964844 25.03125 24.9375 C 25.152344 23.492188 25.746094 20.730469 28.5625 18.84375 L 27.4375 17.15625 C 24.074219 19.410156 23.257813 22.765625 23.0625 24.65625 C 23.042969 24.652344 23.019531 24.660156 23 24.65625 C 23 23.84375 23.179688 18.8125 27.75 13.65625 L 26.25 12.34375 C 21.863281 17.292969 21.179688 22.316406 21.0625 24.15625 C 21.042969 24.148438 21.019531 24.164063 21 24.15625 C 21.019531 22.503906 21.226563 18.210938 22.84375 13.65625 C 22.441406 13.636719 22.054688 13.550781 21.6875 13.375 C 21.417969 13.246094 21.179688 13.066406 20.96875 12.875 C 19.472656 17.019531 19.121094 20.988281 19.03125 23.21875 C 18.570313 22.929688 18.15625 22.628906 17.84375 22.28125 C 17.289063 21.667969 17 21.011719 17 20.125 C 17 18.988281 17.4375 17.703125 17.9375 16.34375 C 18.4375 14.984375 19 13.558594 19 12 C 19 8.96875 17.484375 6.839844 15.71875 5.625 C 13.953125 4.410156 12 4 10.65625 4 Z M 26.3125 4.28125 C 25.957031 4.625 25.601563 4.980469 25.28125 5.34375 C 24.703125 5.261719 24.101563 5.4375 23.65625 5.84375 C 23.558594 5.933594 23.457031 6.011719 23.375 6.125 C 22.5625 7.234375 21.828125 8.464844 21.1875 9.78125 C 20.859375 10.460938 20.964844 11.238281 21.375 11.8125 C 21.390625 11.835938 21.421875 11.851563 21.4375 11.875 C 21.460938 11.90625 21.476563 11.941406 21.5 11.96875 C 21.5625 12.042969 21.644531 12.121094 21.71875 12.1875 C 21.84375 12.292969 21.972656 12.394531 22.125 12.46875 C 22.40625 12.605469 22.707031 12.65625 23 12.65625 C 23.742188 12.65625 24.464844 12.246094 24.8125 11.53125 C 25.34375 10.429688 25.953125 9.414063 26.625 8.5 C 27.03125 7.941406 27.09375 7.230469 26.875 6.625 C 27.144531 6.320313 27.390625 6.007813 27.6875 5.71875 Z M 5 5 L 5 7 C 5.761719 7 7.160156 7.320313 8.21875 8 C 9.277344 8.679688 10 9.59375 10 11 C 9.996094 12.042969 8.789063 13.484375 7.28125 15.09375 C 5.773438 16.703125 4 18.535156 4 21 C 4 23.832031 5.371094 25.707031 6.90625 26.71875 C 8.441406 27.730469 10.039063 28 10.96875 28 L 10.96875 26 C 10.480469 26 9.089844 25.78125 8 25.0625 C 6.910156 24.34375 6 23.234375 6 21 C 6 19.554688 7.230469 18.023438 8.71875 16.4375 C 10.207031 14.851563 11.992188 13.25 12 11 C 12 8.84375 10.722656 7.242188 9.28125 6.3125 C 7.839844 5.382813 6.238281 5 5 5 Z "/>
</g>
</svg>
