<?xml version="1.0" encoding="UTF-8"?>
<svg xmlns="http://www.w3.org/2000/svg" xmlns:xlink="http://www.w3.org/1999/xlink" viewBox="0 0 48 48" version="1.1" width="480px" height="480px">
<g id="surface1">
<path style=" fill:#BBDEFB;" d="M 38 13.5 C 38 18.195313 34.195313 22 29.5 22 C 24.804688 22 21 18.195313 21 13.5 C 21 8.804688 24.804688 5 29.5 5 C 34.195313 5 38 8.804688 38 13.5 Z "/>
<path style=" fill:#BBDEFB;" d="M 44 21.894531 C 44 25.757813 40.867188 28.894531 37 28.894531 C 33.132813 28.894531 30 25.757813 30 21.894531 C 30 18.027344 33.132813 14.894531 37 14.894531 C 40.867188 14.894531 44 18.027344 44 21.894531 Z "/>
<path style=" fill:#BBDEFB;" d="M 18 22 C 18 25.867188 14.867188 29 11 29 C 7.132813 29 4 25.867188 4 22 C 4 18.132813 7.132813 15 11 15 C 14.867188 15 18 18.132813 18 22 Z "/>
<path style=" fill:#BBDEFB;" d="M 24 14.5 C 24 18.089844 21.089844 21 17.5 21 C 13.910156 21 11 18.089844 11 14.5 C 11 10.910156 13.910156 8 17.5 8 C 21.089844 8 24 10.910156 24 14.5 Z "/>
<path style=" fill:#BBDEFB;" d="M 32 19.894531 C 32 23.757813 28.867188 26.894531 25 26.894531 C 21.132813 26.894531 18 23.757813 18 19.894531 C 18 16.027344 21.132813 12.894531 25 12.894531 C 28.867188 12.894531 32 16.027344 32 19.894531 Z "/>
<path style=" fill:#BBDEFB;" d="M 7 25 C 7 27.210938 8.789063 29 11 29 L 36 29 C 38.210938 29 40 27.210938 40 25 L 40 24 C 40 21.789063 38.210938 20 36 20 L 11 20 C 8.789063 20 7 21.789063 7 24 Z "/>
<path style=" fill:#90CAF9;" d="M 31 35 L 34 39 L 34 31 Z "/>
<path style=" fill:#90CAF9;" d="M 20 39 L 23 43 L 23 35 Z "/>
<path style=" fill:#90CAF9;" d="M 10 35 L 13 39 L 13 31 Z "/>
<path style=" fill:#2196F3;" d="M 34 31 L 34 39 L 37 35 Z "/>
<path style=" fill:#2196F3;" d="M 23 35 L 23 43 L 26 39 Z "/>
<path style=" fill:#2196F3;" d="M 13 31 L 13 39 L 16 35 Z "/>
</g>
</svg>
