<?xml version="1.0" encoding="UTF-8"?>
<svg xmlns="http://www.w3.org/2000/svg" xmlns:xlink="http://www.w3.org/1999/xlink" viewBox="0 0 32 32" version="1.1" width="512px" height="512px">
<g id="surface1">
<path style=" " d="M 19.8125 3 C 17.539063 3 15.5 4.792969 15.5 7.1875 C 15.5 8.433594 16.011719 9.3125 16.375 10.03125 C 16.738281 10.75 17 11.363281 17 12.46875 C 17 13.046875 16.320313 14.90625 15 16.375 C 13.679688 17.84375 11.832031 19 9.65625 19 C 8.675781 19 8.347656 18.75 8.1875 18.5625 C 8.027344 18.375 8 18.105469 8 18 L 6 18 C 6 18.160156 6.207031 18.4375 6.25 18.65625 C 5.789063 18.203125 4.78125 17.375 4.78125 17.375 L 3.21875 18.625 C 3.21875 18.625 8.125 24.609375 15.59375 24.96875 C 15.246094 25.507813 14.765625 25.871094 14.46875 26.0625 L 14 26.34375 L 14 28 L 21 28 L 21 26 L 17.25 26 C 17.457031 25.679688 17.644531 25.328125 17.78125 24.9375 C 20.363281 24.714844 22.144531 23.921875 23.28125 22.8125 C 24.628906 21.5 25 19.828125 25 18.5625 C 25 16.613281 24.105469 15.191406 23.34375 14.0625 C 22.582031 12.933594 22 12.109375 22 11.1875 C 22 10.660156 22.242188 10.507813 22.71875 10 C 25.613281 9.992188 28 9.832031 28 7 L 25.96875 7 C 24.664063 7 23.84375 5.875 23.84375 5.875 C 23.84375 5.875 23.816406 5.902344 23.8125 5.90625 C 23.578125 5.121094 23.128906 4.460938 22.5625 4 C 21.746094 3.339844 20.753906 3 19.8125 3 Z M 19.8125 5 C 20.253906 5 20.882813 5.183594 21.3125 5.53125 C 21.742188 5.878906 22 6.324219 22 7 C 22 7.824219 21.757813 8.046875 21.28125 8.5625 C 20.804688 9.078125 20 9.910156 20 11.1875 C 20 12.875 20.953125 14.097656 21.6875 15.1875 C 22.421875 16.277344 23 17.222656 23 18.5625 C 23 19.457031 22.753906 20.515625 21.875 21.375 C 20.996094 22.234375 19.375 23 16.28125 23 C 13.582031 23 11.351563 22.046875 9.46875 20.96875 C 9.539063 20.972656 9.582031 21 9.65625 21 C 12.542969 21 14.878906 19.484375 16.46875 17.71875 C 18.058594 15.953125 19 14.058594 19 12.46875 C 19 10.976563 18.542969 9.925781 18.15625 9.15625 C 17.769531 8.386719 17.5 7.929688 17.5 7.1875 C 17.5 5.9375 18.578125 5 19.8125 5 Z M 20.25 6.25 C 19.835938 6.25 19.5 6.585938 19.5 7 C 19.5 7.414063 19.835938 7.75 20.25 7.75 C 20.664063 7.75 21 7.414063 21 7 C 21 6.585938 20.664063 6.25 20.25 6.25 Z "/>
</g>
</svg>
