<?xml version="1.0" encoding="utf-8"?>
<!-- Generator: Adobe Illustrator 21.0.2, SVG Export Plug-In . SVG Version: 6.00 Build 0)  -->
<svg xmlns="http://www.w3.org/2000/svg" xmlns:xlink="http://www.w3.org/1999/xlink" version="1.1" id="Layer_1" x="0px" y="0px" viewBox="0 0 48 48" style="enable-background:new 0 0 48 48;" xml:space="preserve" width="480px" height="480px">
<g id="surface1">
	<rect x="22" y="35.1" style="fill:#795548;" width="4" height="8.9"/>
	<path style="fill:#009688;" d="M24,12.9L11,35c0,0,4.1,4,13,4s13-4,13-4L24,12.9z"/>
	<path style="fill:#009688;" d="M24,7.3L14,24c0,0,1.7,3,10,3s10-3,10-3L24,7.3z"/>
	<path style="fill:#009688;" d="M24,4l-7,10c0,0,1.4,2,7,2s7-2,7-2L24,4z"/>
	<path style="fill:#00796B;" d="M32.6,27.5l-1-1.7C30.1,26.4,27.7,27,24,27s-6.1-0.6-7.6-1.2l-1,1.7c1.8,0.8,4.5,1.5,8.6,1.5   S30.8,28.3,32.6,27.5z"/>
	<path style="fill:#00796B;" d="M29.8,17.1l-1-1.7C27.7,15.7,26.2,16,24,16s-3.7-0.3-4.8-0.7l-1,1.7c1.3,0.5,3.2,0.9,5.8,0.9   S28.5,17.6,29.8,17.1z"/>
</g>
</svg>
