<?xml version="1.0" encoding="UTF-8"?>
<svg xmlns="http://www.w3.org/2000/svg" xmlns:xlink="http://www.w3.org/1999/xlink" viewBox="0 0 48 48" version="1.1" width="480px" height="480px">
<g id="surface1">
<path style=" fill:#546E7A;" d="M 14 32 L 7 32 C 5.898438 32 5 31.101563 5 30 L 5 18 C 5 16.898438 5.898438 16 7 16 L 14 16 Z "/>
<path style=" fill:#78909C;" d="M 26 42 L 14 32 L 14 16 L 26 6 Z "/>
<path style=" fill:#03A9F4;" d="M 28 17.300781 L 28 19.398438 C 29.800781 20.199219 31 21.898438 31 24 C 31 26 29.800781 27.800781 28 28.601563 L 28 30.699219 C 30.898438 29.800781 33 27.199219 33 24 C 33 20.800781 30.898438 18.199219 28 17.300781 Z "/>
<path style=" fill:#4FC3F7;" d="M 28 12.199219 L 28 14.199219 C 32.601563 15.101563 36 19.199219 36 24 C 36 28.800781 32.601563 32.898438 28 33.800781 L 28 35.800781 C 33.699219 34.800781 38 29.898438 38 24 C 38 18.101563 33.699219 13.101563 28 12.199219 Z "/>
</g>
</svg>
