<?xml version="1.0" encoding="UTF-8"?>
<svg xmlns="http://www.w3.org/2000/svg" xmlns:xlink="http://www.w3.org/1999/xlink" viewBox="0 0 32 32" version="1.1" width="512px" height="512px">
<g id="surface1">
<path style=" " d="M 6 7 L 6 11.75 L 4.375 15 L 2 15 L 2 16 C 2 19.371094 2.589844 21.695313 3.21875 23.1875 C 3.34375 23.488281 3.464844 23.726563 3.59375 23.96875 C 3.125 23.910156 2.71875 23.757813 2.4375 23.5625 C 2.078125 23.3125 2 23.042969 2 23 L 0 23 C 0 23.941406 0.589844 24.683594 1.3125 25.1875 C 2.035156 25.691406 2.960938 26 4 26 C 5.035156 26 5.960938 25.691406 6.6875 25.1875 C 6.800781 25.109375 6.894531 25.027344 7 24.9375 C 7.101563 25.023438 7.203125 25.113281 7.3125 25.1875 C 8.035156 25.691406 8.960938 26 10 26 C 11.035156 26 11.960938 25.691406 12.6875 25.1875 C 12.800781 25.109375 12.894531 25.027344 13 24.9375 C 13.101563 25.023438 13.203125 25.113281 13.3125 25.1875 C 14.035156 25.691406 14.960938 26 16 26 C 17.035156 26 17.960938 25.691406 18.6875 25.1875 C 18.800781 25.109375 18.894531 25.027344 19 24.9375 C 19.101563 25.023438 19.203125 25.113281 19.3125 25.1875 C 20.035156 25.691406 20.960938 26 22 26 C 23.035156 26 23.960938 25.691406 24.6875 25.1875 C 24.800781 25.109375 24.894531 25.027344 25 24.9375 C 25.101563 25.023438 25.203125 25.113281 25.3125 25.1875 C 26.035156 25.691406 26.960938 26 28 26 C 29.035156 26 29.960938 25.691406 30.6875 25.1875 C 31.414063 24.683594 32 23.941406 32 23 L 30 23 C 30 23.058594 29.917969 23.316406 29.5625 23.5625 C 29.207031 23.808594 28.636719 24 28 24 C 27.65625 24 27.347656 23.933594 27.0625 23.84375 C 27.429688 23.535156 27.800781 23.195313 28.15625 22.71875 C 29.179688 21.351563 30 19.230469 30 16 L 30 15 L 27.5 15 L 24.8125 11.40625 L 24.5 11 L 22.5 11 L 19.8125 7.40625 L 19.5 7 L 12.21875 7 L 12.03125 7.75 L 11.34375 10.46875 L 9.90625 7.5625 L 9.625 7 Z M 8 9 L 8.375 9 L 9.375 11 L 8 11 Z M 13.78125 9 L 18.5 9 L 20 11 L 13.28125 11 Z M 7.625 13 L 23.5 13 L 25 15 L 6.625 15 Z M 4.09375 17 L 27.875 17 C 27.710938 19.179688 27.199219 20.683594 26.5625 21.53125 C 25.90625 22.40625 25.226563 22.769531 24.75 23 L 24 23 C 24 23.058594 23.917969 23.316406 23.5625 23.5625 C 23.207031 23.808594 22.636719 24 22 24 C 21.367188 24 20.796875 23.8125 20.4375 23.5625 C 20.078125 23.3125 20 23.042969 20 23 L 18 23 C 18 23.058594 17.917969 23.316406 17.5625 23.5625 C 17.207031 23.808594 16.636719 24 16 24 C 15.367188 24 14.796875 23.8125 14.4375 23.5625 C 14.078125 23.3125 14 23.042969 14 23 L 12 23 C 12 23.058594 11.917969 23.316406 11.5625 23.5625 C 11.207031 23.808594 10.636719 24 10 24 C 9.367188 24 8.796875 23.8125 8.4375 23.5625 C 8.078125 23.3125 8 23.042969 8 23 L 6 23 C 6 23.054688 5.917969 23.269531 5.625 23.5 C 5.464844 23.257813 5.28125 22.921875 5.0625 22.40625 C 4.609375 21.332031 4.207031 19.492188 4.09375 17 Z M 8 19 C 7.449219 19 7 19.449219 7 20 C 7 20.550781 7.449219 21 8 21 C 8.550781 21 9 20.550781 9 20 C 9 19.449219 8.550781 19 8 19 Z M 12 19 C 11.449219 19 11 19.449219 11 20 C 11 20.550781 11.449219 21 12 21 C 12.550781 21 13 20.550781 13 20 C 13 19.449219 12.550781 19 12 19 Z M 16 19 C 15.449219 19 15 19.449219 15 20 C 15 20.550781 15.449219 21 16 21 C 16.550781 21 17 20.550781 17 20 C 17 19.449219 16.550781 19 16 19 Z M 20 19 C 19.449219 19 19 19.449219 19 20 C 19 20.550781 19.449219 21 20 21 C 20.550781 21 21 20.550781 21 20 C 21 19.449219 20.550781 19 20 19 Z M 24 19 C 23.449219 19 23 19.449219 23 20 C 23 20.550781 23.449219 21 24 21 C 24.550781 21 25 20.550781 25 20 C 25 19.449219 24.550781 19 24 19 Z "/>
</g>
</svg>
