<?xml version="1.0" encoding="utf-8"?>
<!-- Generator: Adobe Illustrator 21.0.2, SVG Export Plug-In . SVG Version: 6.00 Build 0)  -->
<svg xmlns="http://www.w3.org/2000/svg" xmlns:xlink="http://www.w3.org/1999/xlink" version="1.1" id="Layer_1" x="0px" y="0px" viewBox="0 0 48 48" style="enable-background:new 0 0 48 48;" xml:space="preserve" width="480px" height="480px">
<g id="surface1">
	<path style="fill:#5D4037;" d="M22.5,39c-0.5,0-0.9-0.4-1-0.9l-1-7.9c-0.1-0.5,0.3-1,0.9-1.1c0.5-0.1,1,0.3,1.1,0.9l1,7.9   c0.1,0.5-0.3,1-0.9,1.1C22.6,39,22.6,39,22.5,39z"/>
	<path style="fill:#5D4037;" d="M27.5,40c-0.2,0-0.3,0-0.4-0.1C25.3,39,22.5,39,22.5,39h-2c-0.6,0-1-0.4-1-1s0.4-1,1-1h2   c0.1,0,3.3,0,5.4,1.1c0.5,0.2,0.7,0.8,0.4,1.3C28.2,39.8,27.8,40,27.5,40z"/>
	<path style="fill:#795548;" d="M20.5,39.9c-0.5,0-0.9-0.4-1-0.9l-1-7.9c-0.1-0.5,0.3-1,0.9-1.1c0.5-0.1,1,0.3,1.1,0.9l1,7.9   c0.1,0.5-0.3,1-0.9,1.1C20.6,39.9,20.6,39.9,20.5,39.9z"/>
	<path style="fill:#795548;" d="M25.5,41c-0.2,0-0.3,0-0.4-0.1C23.3,40,20.5,40,20.5,40h-2c-0.6,0-1-0.4-1-1s0.4-1,1-1h2   c0.1,0,3.3,0,5.4,1.1c0.5,0.2,0.7,0.8,0.4,1.3C26.2,40.8,25.8,41,25.5,41z"/>
	<path style="fill:#FFC107;" d="M16.5,22c0,0,7,0,10-3c1.9-1.9,2-5.1,0-7.1s-5.1-2-7.1,0C16,15.5,16.5,22,16.5,22z"/>
	<path style="fill:#FFC107;" d="M29.3,31c-3.9,3.9-16.9,5-16.9,5s1.1-11.9,5.5-16.4c3.1-3.1,8.3-3.1,11.4,0   C32.5,22.8,32.5,27.9,29.3,31z"/>
	<path style="fill:#455A64;" d="M27.8,14l3.2-3.5l-4.3,1.6l-1.4,2.8l2.7,1.3l4.1-1.7L27.8,14z"/>
	<path style="fill:#795548;" d="M22.1,12.7c0.1,0.2,0.1,0.4,0.1,0.6c0,0.8-0.7,1.5-1.5,1.5c-0.2,0-0.4,0-0.6-0.1   c0.2,0.5,0.7,0.9,1.3,0.9c0.8,0,1.5-0.7,1.5-1.5C23,13.4,22.6,12.9,22.1,12.7z"/>
	<path style="fill:#FF1744;" d="M39.6,5c-0.6,0-1.7,0-1.7,0.6v5.7c0,0-0.2-0.1-0.8-0.1c-1.2,0.1-2.1,1-2.1,2c0,0.9,0.9,1.5,2.1,1.3   c1.1-0.2,2-1,2-1.9c0,0,0-4.3,0-4.7c0-0.4,0.3-0.6,0.5-0.6c3.7,0,3.4,2.1,3.4,2.1S43.7,5,39.6,5z"/>
	<path style="fill:#90A4AE;" d="M23.3,28.3c-2,2-6.2,4.1-11.8,5.2c1.6-6.4,3.1-9.9,5.1-11.9s5.1-2.1,6.9-0.3   C25.4,23.2,25.2,26.3,23.3,28.3z"/>
	<path style="fill:#607D8B;" d="M12.5,36c0,0,0-0.5,0.1-1.3L5,37c0,5,6,4,6,4l3-5l0.1-0.2C13.1,35.9,12.5,36,12.5,36z"/>
	<path style="fill:#607D8B;" d="M14.1,25.6c-0.9,2-1.7,4.6-2.6,7.9c5.5-1.2,9.8-3.3,11.8-5.2c1-1,1.5-2.2,1.6-3.5   C20.2,24,16.5,24.7,14.1,25.6z"/>
	<path style="fill:#37474F;" d="M22,24.5c-0.2,0.2-0.3,0.4-0.5,0.6c-1.6,1.6-4.8,3.3-8.8,4.5c-0.2,0.7-0.4,1.3-0.6,2.1   c4.9-1.2,8.6-3.1,10.4-4.9c0.6-0.6,1-1.4,1.3-2.1C23.1,24.6,22.5,24.5,22,24.5z"/>
	<path style="fill:#37474F;" d="M13.3,27.7c2.7-0.9,4.9-2,6.4-3.2c-2.3,0.1-4.2,0.6-5.6,1.1C13.8,26.2,13.5,26.9,13.3,27.7z"/>
</g>
</svg>
