<?xml version="1.0" encoding="UTF-8"?>
<svg xmlns="http://www.w3.org/2000/svg" xmlns:xlink="http://www.w3.org/1999/xlink" viewBox="0 0 48 48" version="1.1" width="480px" height="480px">
<g id="surface1">
<path style=" fill:#80DEEA;" d="M 29 8 L 23 8 L 23 12 L 11.566406 12 L 7 22 L 7 26 L 40 26 L 40 22 Z "/>
<path style=" fill:#80DEEA;" d="M 18.566406 12 L 11.566406 12 L 9.566406 7 L 12.566406 7 Z "/>
<path style=" fill:#0288D1;" d="M 35.839844 20 L 34.238281 18 L 11.023438 18 L 10.113281 20 Z "/>
<path style=" fill:#0288D1;" d="M 9.199219 22 L 9.109375 22.195313 L 9 24 L 38 24 L 38 22.703125 L 37.4375 22 Z "/>
<path style=" fill:#0288D1;" d="M 32.640625 16 L 31.039063 14 L 12.851563 14 L 11.9375 16 Z "/>
<path style=" fill:#0288D1;" d="M 25 12 L 29.601563 12 L 28.027344 10 L 25 10 Z "/>
<path style=" fill:#FF1744;" d="M 37 20 C 34 20 34 24 32 24 C 30 24 14 24 12 24 C 10 24 10 20 8 20 C 5 20 4 20 4 20 L 7 33.5 C 7 36.535156 9.460938 37 12.5 37 L 33.875 37 C 36.910156 37 42.664063 23 44 20 C 44 20 39 20 37 20 Z "/>
<path style=" fill:#700808;" d="M 35 27.5 C 35 28.328125 34.328125 29 33.5 29 C 32.671875 29 32 28.328125 32 27.5 C 32 26.671875 32.671875 26 33.5 26 C 34.328125 26 35 26.671875 35 27.5 Z "/>
<path style=" fill:#700808;" d="M 30 27.5 C 30 28.328125 29.328125 29 28.5 29 C 27.671875 29 27 28.328125 27 27.5 C 27 26.671875 27.671875 26 28.5 26 C 29.328125 26 30 26.671875 30 27.5 Z "/>
<path style=" fill:#700808;" d="M 25 27.5 C 25 28.328125 24.328125 29 23.5 29 C 22.671875 29 22 28.328125 22 27.5 C 22 26.671875 22.671875 26 23.5 26 C 24.328125 26 25 26.671875 25 27.5 Z "/>
<path style=" fill:#700808;" d="M 20 27.5 C 20 28.328125 19.328125 29 18.5 29 C 17.671875 29 17 28.328125 17 27.5 C 17 26.671875 17.671875 26 18.5 26 C 19.328125 26 20 26.671875 20 27.5 Z "/>
<path style=" fill:#700808;" d="M 15 27.5 C 15 28.328125 14.328125 29 13.5 29 C 12.671875 29 12 28.328125 12 27.5 C 12 26.671875 12.671875 26 13.5 26 C 14.328125 26 15 26.671875 15 27.5 Z "/>
<path style=" fill:#880E4F;" d="M 6.222656 30 L 7 33.5 C 7 36.535156 9.460938 37 12.5 37 L 33.875 37 C 35.34375 37 37.449219 33.722656 39.382813 30 Z "/>
<path style=" fill:#90CAF9;" d="M 44 32 C 41 32 40 30 40 30 C 40 30 39 32 36 32 C 33 32 32 30 32 30 C 32 30 31 32 28 32 C 25 32 24 30 24 30 C 24 30 23 32 20 32 C 17 32 16 30 16 30 C 16 30 15 32 12 32 C 9 32 8 30 8 30 C 8 30 7 32 4 32 L 4 40 L 44 40 Z "/>
<path style=" fill:#2196F3;" d="M 44 36 C 41 36 40 34 40 34 C 40 34 39 36 36 36 C 33 36 32 34 32 34 C 32 34 31 36 28 36 C 25 36 24 34 24 34 C 24 34 23 36 20 36 C 17 36 16 34 16 34 C 16 34 15 36 12 36 C 9 36 8 34 8 34 C 8 34 7 36 4 36 L 4 40 L 44 40 Z "/>
</g>
</svg>
