<?xml version="1.0" encoding="utf-8"?>
<!-- Generator: Adobe Illustrator 21.0.2, SVG Export Plug-In . SVG Version: 6.00 Build 0)  -->
<svg xmlns="http://www.w3.org/2000/svg" xmlns:xlink="http://www.w3.org/1999/xlink" version="1.1" id="Layer_1" x="0px" y="0px" viewBox="0 0 48 48" style="enable-background:new 0 0 48 48;" xml:space="preserve" width="480px" height="480px">
<g id="surface1">
	<path style="fill:#90A4AE;" d="M14,19v-5c0-0.3,0.4-1,1.3-1h7.6c0.7,0,1,0.2,1.3,0.4L28,19"/>
	<path style="fill:#90A4AE;" d="M46,24v-6.2c0-0.6-0.1-0.8-0.5-0.8h-2.7c-0.2,0-0.4,0.4-0.5,0.8L41,24"/>
	<path style="fill:#D32F2F;" d="M46,28v6.2c0,0.6-0.1,0.8-0.5,0.8h-2.7c-0.2,0-0.4-0.4-0.5-0.8L41,28"/>
	<path style="fill:#78909C;" d="M28,33H8c-4.4,0-8-3.1-8-7s3.6-7,8-7h20c4.4,0,20,3.1,20,7S32.4,33,28,33z"/>
	<path style="fill:#EF5350;" d="M8,33h20c4.4,0,20-3.1,20-7H0C0,29.9,3.6,33,8,33z"/>
	<path style="fill:#455A64;" d="M22,13h-2v-2c0-0.6-0.5-1-1-1h-1.5V8H19c1.7,0,3,1.3,3,3V13z"/>
</g>
</svg>
