<?xml version="1.0" encoding="UTF-8"?>
<svg xmlns="http://www.w3.org/2000/svg" xmlns:xlink="http://www.w3.org/1999/xlink" viewBox="0 0 48 48" version="1.1" width="480px" height="480px">
<g id="surface1">
<path style=" fill:#E0E0E0;" d="M 44 24 C 44 35.046875 35.046875 44 24 44 C 12.953125 44 4 35.046875 4 24 C 4 12.953125 12.953125 4 24 4 C 35.046875 4 44 12.953125 44 24 Z "/>
<path style=" fill:#FF3D00;" d="M 17.148438 42.769531 C 19.78125 39.785156 26.109375 30.601563 27 20 C 27 20 16 19 4.410156 28.046875 C 5.8125 34.878906 10.714844 40.421875 17.148438 42.769531 Z "/>
<path style=" fill:#43A047;" d="M 43.785156 26.769531 C 41.214844 24.230469 36.085938 20 26 20 C 26 20 33.4375 29.300781 34.863281 40.777344 C 39.621094 37.6875 42.972656 32.640625 43.785156 26.769531 Z "/>
<path style=" fill:#FFC107;" d="M 27 22 C 27 22 31.160156 16.085938 32.488281 5.910156 C 29.910156 4.695313 27.039063 4 24 4 C 20.421875 4 17.070313 4.949219 14.164063 6.597656 C 16.496094 8.003906 22.664063 13.332031 27 22 Z "/>
<path style=" fill:#BF1600;" d="M 30 21 C 30 22.65625 28.65625 24 27 24 C 25.34375 24 24 22.65625 24 21 C 24 19.34375 25.34375 18 27 18 C 28.65625 18 30 19.34375 30 21 Z "/>
</g>
</svg>
