<?xml version="1.0" encoding="UTF-8"?>
<svg xmlns="http://www.w3.org/2000/svg" xmlns:xlink="http://www.w3.org/1999/xlink" viewBox="0 0 32 32" version="1.1" width="512px" height="512px">
<g id="surface1">
<path style=" " d="M 13.5 5 C 12.140625 5 11.011719 5.464844 10.125 6.125 C 9.238281 6.785156 8.5625 7.625 7.9375 8.375 C 7.3125 9.125 6.742188 9.785156 6.125 10.25 C 5.507813 10.714844 4.886719 11 4 11 L 4 13 C 5.335938 13 6.441406 12.535156 7.3125 11.875 C 8.183594 11.214844 8.84375 10.375 9.46875 9.625 C 10.09375 8.875 10.683594 8.214844 11.3125 7.75 C 11.941406 7.285156 12.578125 7 13.5 7 C 14.890625 7 16 8.109375 16 9.5 C 16 10.890625 14.890625 12 13.5 12 C 12.792969 12 12.175781 11.714844 11.71875 11.25 L 10.28125 12.65625 C 11.097656 13.488281 12.246094 14 13.5 14 C 15.460938 14 17.136719 12.726563 17.75 10.96875 C 19.53125 10.785156 20.734375 9.976563 21.59375 9.28125 C 22.566406 8.492188 23.058594 8 24 8 C 25.148438 8 26 8.832031 26 10.03125 C 26 11.230469 25.1875 12 24 12 C 23.453125 12 22.851563 11.734375 22.4375 11.3125 L 21 12.71875 C 21.785156 13.519531 22.867188 14 24 14 C 26.175781 14 28 12.257813 28 10.03125 C 28 7.804688 26.214844 6 24 6 C 22.300781 6 21.230469 7 20.34375 7.71875 C 19.636719 8.289063 19.015625 8.765625 17.9375 8.9375 C 17.65625 6.730469 15.78125 5 13.5 5 Z M 10 16 C 8.382813 16 7.273438 16.96875 6.375 17.71875 C 5.476563 18.46875 4.785156 19 4 19 L 4 21 C 5.617188 21 6.726563 20.03125 7.625 19.28125 C 8.523438 18.53125 9.214844 18 10 18 C 10.785156 18 11.476563 18.53125 12.375 19.28125 C 13.273438 20.03125 14.382813 21 16 21 C 17.617188 21 18.726563 20.03125 19.625 19.28125 C 20.523438 18.53125 21.214844 18 22 18 C 22.785156 18 23.476563 18.53125 24.375 19.28125 C 25.273438 20.03125 26.382813 21 28 21 L 28 19 C 27.214844 19 26.523438 18.46875 25.625 17.71875 C 24.726563 16.96875 23.617188 16 22 16 C 20.382813 16 19.273438 16.96875 18.375 17.71875 C 17.476563 18.46875 16.785156 19 16 19 C 15.214844 19 14.523438 18.46875 13.625 17.71875 C 12.726563 16.96875 11.617188 16 10 16 Z M 10 22 C 8.382813 22 7.273438 22.96875 6.375 23.71875 C 5.476563 24.46875 4.785156 25 4 25 L 4 27 C 5.617188 27 6.726563 26.03125 7.625 25.28125 C 8.523438 24.53125 9.214844 24 10 24 C 10.785156 24 11.476563 24.53125 12.375 25.28125 C 13.273438 26.03125 14.382813 27 16 27 C 17.617188 27 18.726563 26.03125 19.625 25.28125 C 20.523438 24.53125 21.214844 24 22 24 C 22.785156 24 23.476563 24.53125 24.375 25.28125 C 25.273438 26.03125 26.382813 27 28 27 L 28 25 C 27.214844 25 26.523438 24.46875 25.625 23.71875 C 24.726563 22.96875 23.617188 22 22 22 C 20.382813 22 19.273438 22.96875 18.375 23.71875 C 17.476563 24.46875 16.785156 25 16 25 C 15.214844 25 14.523438 24.46875 13.625 23.71875 C 12.726563 22.96875 11.617188 22 10 22 Z "/>
</g>
</svg>
