<?xml version="1.0" encoding="UTF-8"?>
<svg xmlns="http://www.w3.org/2000/svg" xmlns:xlink="http://www.w3.org/1999/xlink" viewBox="0 0 32 32" version="1.1" width="512px" height="512px">
<g id="surface1">
<path style=" " d="M 10 5 C 5.28125 5 2.789063 7.011719 1.75 9.0625 C 0.726563 11.089844 0.992188 13.046875 1 13.09375 C 1 13.09375 1 13.125 1 13.125 C 1.007813 13.191406 1.59375 17.960938 5 21.4375 L 5 26.0625 L 6.0625 26 C 6.0625 26 7.898438 25.824219 9.5 24.28125 C 9.664063 24.335938 9.828125 24.386719 10 24.4375 L 10 29.0625 L 11.0625 29 C 11.0625 29 12.644531 28.890625 14.125 27.65625 C 14.871094 27.03125 15.621094 26.117188 16.15625 24.84375 C 21.960938 23.863281 24.8125 20.308594 26.03125 17.09375 C 27.25 13.878906 27 10.90625 27 10.90625 L 26.8125 10.9375 C 26.816406 10.929688 26.808594 10.914063 26.8125 10.90625 C 28.585938 10.609375 31 9.367188 31 6 L 30 6 C 28.152344 6 26.914063 6.757813 26.125 7.65625 C 26.046875 7.558594 25.96875 7.46875 25.875 7.375 C 24.980469 6.46875 23.679688 6 22 6 L 21 6 C 21 9.046875 22.9375 10.367188 24.625 10.8125 C 24.449219 11.132813 24.207031 11.476563 23.90625 11.78125 C 23.230469 12.460938 22.304688 13 21 13 C 20.359375 13 19.835938 12.683594 19.1875 12.03125 C 18.539063 11.378906 17.867188 10.429688 17.09375 9.40625 C 15.550781 7.363281 13.445313 5 10 5 Z M 10 7 C 12.554688 7 13.992188 8.636719 15.46875 10.59375 C 16.207031 11.570313 16.90625 12.621094 17.75 13.46875 C 18.59375 14.316406 19.679688 15 21 15 C 22.632813 15 23.941406 14.375 24.90625 13.5625 C 24.792969 14.398438 24.570313 15.367188 24.1875 16.375 C 23.210938 18.957031 21.257813 21.648438 16.75 22.6875 C 16.898438 21.882813 17 21 17 20 L 15 20 C 15 23.617188 13.894531 25.246094 12.875 26.09375 C 12.550781 26.363281 12.277344 26.460938 12 26.59375 L 12 20 L 10 20 L 10 22.375 C 6.144531 21.003906 4.378906 17.71875 3.59375 15.40625 C 5.023438 15.695313 7.171875 16 10 16 L 10 14 C 6.523438 14 4.171875 13.554688 3.0625 13.28125 C 3.023438 13.042969 3 12.90625 3 12.90625 L 3 12.875 C 3 12.875 2.828125 11.386719 3.5625 9.9375 C 4.296875 8.488281 5.804688 7 10 7 Z M 9 11 C 8.449219 11 8 11.449219 8 12 C 8 12.550781 8.449219 13 9 13 C 9.550781 13 10 12.550781 10 12 C 10 11.449219 9.550781 11 9 11 Z M 7 23.0625 C 7.144531 23.15625 7.285156 23.257813 7.4375 23.34375 C 7.289063 23.429688 7.136719 23.527344 7 23.59375 Z "/>
</g>
</svg>
