<?xml version="1.0" encoding="UTF-8"?>
<svg xmlns="http://www.w3.org/2000/svg" xmlns:xlink="http://www.w3.org/1999/xlink" viewBox="0 0 48 48" version="1.1" width="480px" height="480px">
<g id="surface1">
<path style=" fill:#FF9800;" d="M 38 38 C 38 38 29 35 24 35 C 19 35 10 38 10 38 C 10 38 13 28 13 24 C 13 20 10 10 10 10 C 10 10 19 13 24 13 C 29 13 38 10 38 10 C 38 10 35 20 35 24 C 35 28 38 38 38 38 Z "/>
<path style=" fill:#FF9800;" d="M 43 24 C 43 24 34.777344 28.777344 31.777344 31.777344 C 28.777344 34.777344 24 43 24 43 C 24 43 19.722656 35.277344 16.222656 31.777344 C 12.722656 28.277344 5 24 5 24 C 5 24 13.222656 19.222656 16.222656 16.222656 C 19.222656 13.222656 24 5 24 5 C 24 5 28.777344 13.222656 31.777344 16.222656 C 34.777344 19.222656 43 24 43 24 Z "/>
<path style=" fill:#FFEB3B;" d="M 14 24 C 14 29.523438 18.476563 34 24 34 C 29.523438 34 34 29.523438 34 24 C 34 18.476563 29.523438 14 24 14 C 18.476563 14 14 18.476563 14 24 "/>
</g>
</svg>
