<?xml version="1.0" encoding="UTF-8"?>
<svg xmlns="http://www.w3.org/2000/svg" xmlns:xlink="http://www.w3.org/1999/xlink" viewBox="0 0 48 48" version="1.1" width="480px" height="480px">
<g id="surface1">
<path style=" fill:#FF9800;" d="M 8 7 L 24 7 L 24 23 L 8 23 Z "/>
<path style=" fill:#FF9800;" d="M 27 15 L 16 26 L 5 15 L 16 4 Z "/>
<path style=" fill:#FFEB3B;" d="M 10 15 C 10 18.3125 12.6875 21 16 21 C 19.3125 21 22 18.3125 22 15 C 22 11.6875 19.3125 9 16 9 C 12.6875 9 10 11.6875 10 15 "/>
<path style=" fill:#BBDEFB;" d="M 38 19 C 38 22.867188 34.867188 26 31 26 C 27.132813 26 24 22.867188 24 19 C 24 15.132813 27.132813 12 31 12 C 34.867188 12 38 15.132813 38 19 Z "/>
<path style=" fill:#BBDEFB;" d="M 43 26 C 43 29.3125 40.3125 32 37 32 C 33.6875 32 31 29.3125 31 26 C 31 22.6875 33.6875 20 37 20 C 40.3125 20 43 22.6875 43 26 Z "/>
<path style=" fill:#BBDEFB;" d="M 21 26 C 21 29.3125 18.3125 32 15 32 C 11.6875 32 9 29.3125 9 26 C 9 22.6875 11.6875 20 15 20 C 18.3125 20 21 22.6875 21 26 Z "/>
<path style=" fill:#BBDEFB;" d="M 26 19.5 C 26 22.539063 23.539063 25 20.5 25 C 17.460938 25 15 22.539063 15 19.5 C 15 16.460938 17.460938 14 20.5 14 C 23.539063 14 26 16.460938 26 19.5 Z "/>
<path style=" fill:#BBDEFB;" d="M 30 23.394531 C 30 26.984375 27.089844 29.894531 23.5 29.894531 C 19.910156 29.894531 17 26.984375 17 23.394531 C 17 19.804688 19.910156 16.894531 23.5 16.894531 C 27.089844 16.894531 30 19.804688 30 23.394531 Z "/>
<path style=" fill:#BBDEFB;" d="M 11.625 28.5 C 11.625 30.433594 13.191406 32 15.125 32 L 37 32 C 38.933594 32 40.5 30.433594 40.5 28.5 L 40.5 27.625 C 40.5 25.691406 38.933594 24.125 37 24.125 L 15.125 24.125 C 13.191406 24.125 11.625 25.691406 11.625 27.625 Z "/>
<path style=" fill:#2196F3;" d="M 36.949219 40.152344 C 35.816406 41.285156 33.980469 41.285156 32.847656 40.152344 C 31.714844 39.019531 31.714844 37.183594 32.847656 36.050781 C 33.980469 34.917969 39 34.003906 39 34.003906 C 39 34.003906 38.082031 39.019531 36.949219 40.152344 Z "/>
<path style=" fill:#2196F3;" d="M 15.949219 40.152344 C 14.816406 41.285156 12.980469 41.285156 11.847656 40.152344 C 10.714844 39.019531 10.714844 37.183594 11.847656 36.050781 C 12.980469 34.917969 18 34.003906 18 34.003906 C 18 34.003906 17.082031 39.019531 15.949219 40.152344 Z "/>
<path style=" fill:#D500F9;" d="M 22 43 L 24 36 L 21 36 L 25 28 L 29 28 L 25.402344 34 L 29 34 Z "/>
</g>
</svg>
