<?xml version="1.0" encoding="UTF-8"?>
<svg xmlns="http://www.w3.org/2000/svg" xmlns:xlink="http://www.w3.org/1999/xlink" viewBox="0 0 48 48" version="1.1" width="480px" height="480px">
<g id="surface1">
<path style=" fill:#81D4FA;" d="M 6 36 L 42 36 L 43 33.996094 L 43 10 L 42 12 L 6 12 L 5 10 L 5 33.996094 Z "/>
<path style=" fill:#03A9F4;" d="M 43 34 L 41 34 C 41 35.105469 40.101563 36 39 36 C 37.894531 36 37 35.105469 37 34 L 35 34 C 35 35.105469 34.101563 36 33 36 C 31.894531 36 31 35.105469 31 34 L 29 34 C 29 35.105469 28.101563 36 27 36 C 25.894531 36 25 35.105469 25 34 L 23 34 C 23 35.105469 22.101563 36 21 36 C 19.894531 36 19 35.105469 19 34 L 17 34 C 17 35.105469 16.101563 36 15 36 C 13.894531 36 13 35.105469 13 34 L 11 34 C 11 35.105469 10.101563 36 9 36 C 7.894531 36 7 35.105469 7 34 L 5 34 C 5 34 5 38 9 38 C 10.199219 38 11.265625 37.457031 12 36.617188 C 12.734375 37.457031 13.800781 38 15 38 C 16.199219 38 17.265625 37.457031 18 36.617188 C 18.734375 37.457031 19.800781 38 21 38 C 22.199219 38 23.265625 37.457031 24 36.617188 C 24.734375 37.457031 25.800781 38 27 38 C 28.199219 38 29.265625 37.457031 30 36.617188 C 30.734375 37.457031 31.800781 38 33 38 C 34.199219 38 35.265625 37.457031 36 36.617188 C 36.734375 37.457031 37.800781 38 39 38 C 43 38 43 34 43 34 Z "/>
<path style=" fill:#03A9F4;" d="M 43 26 L 41 26 C 41 27.105469 40.101563 28 39 28 C 37.894531 28 37 27.105469 37 26 L 35 26 C 35 27.105469 34.101563 28 33 28 C 31.894531 28 31 27.105469 31 26 L 29 26 C 29 27.105469 28.101563 28 27 28 C 25.894531 28 25 27.105469 25 26 L 23 26 C 23 27.105469 22.101563 28 21 28 C 19.894531 28 19 27.105469 19 26 L 17 26 C 17 27.105469 16.101563 28 15 28 C 13.894531 28 13 27.105469 13 26 L 11 26 C 11 27.105469 10.101563 28 9 28 C 7.894531 28 7 27.105469 7 26 L 5 26 C 5 26 5 30 9 30 C 10.199219 30 11.265625 29.457031 12 28.617188 C 12.734375 29.457031 13.800781 30 15 30 C 16.199219 30 17.265625 29.457031 18 28.617188 C 18.734375 29.457031 19.800781 30 21 30 C 22.199219 30 23.265625 29.457031 24 28.617188 C 24.734375 29.457031 25.800781 30 27 30 C 28.199219 30 29.265625 29.457031 30 28.617188 C 30.734375 29.457031 31.800781 30 33 30 C 34.199219 30 35.265625 29.457031 36 28.617188 C 36.734375 29.457031 37.800781 30 39 30 C 43 30 43 26 43 26 Z "/>
<path style=" fill:#03A9F4;" d="M 43 18 L 41 18 C 41 19.105469 40.101563 20 39 20 C 37.894531 20 37 19.105469 37 18 L 35 18 C 35 19.105469 34.101563 20 33 20 C 31.894531 20 31 19.105469 31 18 L 29 18 C 29 19.105469 28.101563 20 27 20 C 25.894531 20 25 19.105469 25 18 L 23 18 C 23 19.105469 22.101563 20 21 20 C 19.894531 20 19 19.105469 19 18 L 17 18 C 17 19.105469 16.101563 20 15 20 C 13.894531 20 13 19.105469 13 18 L 11 18 C 11 19.105469 10.101563 20 9 20 C 7.894531 20 7 19.105469 7 18 L 5 18 C 5 18 5 22 9 22 C 10.199219 22 11.265625 21.457031 12 20.617188 C 12.734375 21.457031 13.800781 22 15 22 C 16.199219 22 17.265625 21.457031 18 20.617188 C 18.734375 21.457031 19.800781 22 21 22 C 22.199219 22 23.265625 21.457031 24 20.617188 C 24.734375 21.457031 25.800781 22 27 22 C 28.199219 22 29.265625 21.457031 30 20.617188 C 30.734375 21.457031 31.800781 22 33 22 C 34.199219 22 35.265625 21.457031 36 20.617188 C 36.734375 21.457031 37.800781 22 39 22 C 43 22 43 18 43 18 Z "/>
<path style=" fill:#03A9F4;" d="M 43 10 L 41 10 C 41 11.105469 40.101563 12 39 12 C 37.894531 12 37 11.105469 37 10 L 35 10 C 35 11.105469 34.101563 12 33 12 C 31.894531 12 31 11.105469 31 10 L 29 10 C 29 11.105469 28.101563 12 27 12 C 25.894531 12 25 11.105469 25 10 L 23 10 C 23 11.105469 22.101563 12 21 12 C 19.894531 12 19 11.105469 19 10 L 17 10 C 17 11.105469 16.101563 12 15 12 C 13.894531 12 13 11.105469 13 10 L 11 10 C 11 11.105469 10.101563 12 9 12 C 7.894531 12 7 11.105469 7 10 L 5 10 C 5 10 5 14 9 14 C 10.199219 14 11.265625 13.457031 12 12.617188 C 12.734375 13.457031 13.800781 14 15 14 C 16.199219 14 17.265625 13.457031 18 12.617188 C 18.734375 13.457031 19.800781 14 21 14 C 22.199219 14 23.265625 13.457031 24 12.617188 C 24.734375 13.457031 25.800781 14 27 14 C 28.199219 14 29.265625 13.457031 30 12.617188 C 30.734375 13.457031 31.800781 14 33 14 C 34.199219 14 35.265625 13.457031 36 12.617188 C 36.734375 13.457031 37.800781 14 39 14 C 43 14 43 10 43 10 Z "/>
</g>
</svg>
