<?xml version="1.0" encoding="UTF-8"?>
<svg xmlns="http://www.w3.org/2000/svg" xmlns:xlink="http://www.w3.org/1999/xlink" viewBox="0 0 48 48" version="1.1" width="480px" height="480px">
<g id="surface1">
<path style=" fill:#D32F2F;" d="M 3 10 L 45 10 L 45 39 L 3 39 Z "/>
<path style=" fill:#D32F2F;" d="M 29 36 C 29 38.761719 26.761719 41 24 41 C 21.238281 41 19 38.761719 19 36 C 19 33.238281 21.238281 31 24 31 C 26.761719 31 29 33.238281 29 36 Z "/>
<path style=" fill:#4C0808;" d="M 27 36 C 27 37.65625 25.65625 39 24 39 C 22.34375 39 21 37.65625 21 36 C 21 34.34375 22.34375 33 24 33 C 25.65625 33 27 34.34375 27 36 Z "/>
<path style=" fill:#D7CCC8;" d="M 40 7 L 25 10 L 23 10 L 8 7 L 6 12 L 6 36 L 42 36 L 42 12 Z "/>
<path style=" fill:#BCAAA4;" d="M 8 33 L 23 33 L 23 36 L 25 36 L 25 33 L 40 33 L 42 36 L 6 36 Z "/>
<path style=" fill:#EFEBE9;" d="M 40 7 C 40 7 25 7 25 10 C 25 13 25 36 25 36 C 25 33 40 33 40 33 Z "/>
<path style=" fill:#EFEBE9;" d="M 8 7 C 8 7 23 7 23 10 C 23 13 23 36 23 36 C 23 33 8 33 8 33 Z "/>
<path style=" fill:#BCAAA4;" d="M 27 21.386719 C 28.902344 20.6875 33.210938 20.132813 38 20.007813 L 38 18 C 34.328125 18.074219 29.882813 18.386719 27 19.339844 Z "/>
<path style=" fill:#BCAAA4;" d="M 27 25.386719 C 28.902344 24.6875 33.210938 24.132813 38 24.007813 L 38 22 C 34.328125 22.074219 29.882813 22.386719 27 23.339844 Z "/>
<path style=" fill:#BCAAA4;" d="M 27 17.386719 C 28.902344 16.6875 33.210938 16.132813 38 16.007813 L 38 14 C 34.328125 14.074219 29.882813 14.386719 27 15.339844 Z "/>
<path style=" fill:#BCAAA4;" d="M 27 11.339844 L 27 13.386719 C 28.902344 12.6875 33.210938 12.132813 38 12.007813 L 38 10 C 34.328125 10.074219 29.882813 10.386719 27 11.339844 Z "/>
<path style=" fill:#BCAAA4;" d="M 32 26.367188 C 30.144531 26.574219 28.390625 26.882813 27 27.339844 L 27 29.386719 C 28.042969 29 29.824219 28.664063 32 28.414063 Z "/>
<path style=" fill:#BCAAA4;" d="M 21 21.386719 C 19.097656 20.6875 14.789063 20.132813 10 20.007813 L 10 18 C 13.671875 18.074219 18.117188 18.386719 21 19.339844 Z "/>
<path style=" fill:#BCAAA4;" d="M 21 25.386719 C 19.097656 24.6875 14.789063 24.132813 10 24.007813 L 10 22 C 13.671875 22.074219 18.117188 22.386719 21 23.339844 Z "/>
<path style=" fill:#BCAAA4;" d="M 21 29.386719 C 19.097656 28.6875 14.789063 28.132813 10 28.007813 L 10 26 C 13.671875 26.074219 18.117188 26.386719 21 27.339844 Z "/>
<path style=" fill:#BCAAA4;" d="M 21 17.386719 C 19.097656 16.6875 14.789063 16.132813 10 16.007813 L 10 14 C 13.671875 14.074219 18.117188 14.386719 21 15.339844 Z "/>
<path style=" fill:#BCAAA4;" d="M 21 11.339844 L 21 13.386719 C 19.097656 12.6875 14.789063 12.132813 10 12.007813 L 10 10 C 13.671875 10.074219 18.117188 10.386719 21 11.339844 Z "/>
<path style=" fill:#BCAAA4;" d="M 23 10 L 25 10 L 25 36 L 23 36 Z "/>
</g>
</svg>
