<?xml version="1.0" encoding="UTF-8"?>
<svg xmlns="http://www.w3.org/2000/svg" xmlns:xlink="http://www.w3.org/1999/xlink" viewBox="0 0 48 48" version="1.1" width="480px" height="480px">
<g id="surface1">
<path style=" fill:#1A237E;" d="M 7.101563 28 L 5 36 C 5 36 12.398438 36.5 14.398438 30.300781 C 16.398438 24.101563 7.101563 28 7.101563 28 Z "/>
<path style=" fill:#9FA8DA;" d="M 0 17 C 0.800781 21.699219 4.300781 34 18 34 C 16.800781 27 14 22 14 22 C 14 22 4.800781 19.300781 1.199219 16.300781 C 0.800781 15.898438 0 15.898438 0 17 Z "/>
<path style=" fill:#7986CB;" d="M 7.699219 21.101563 C 8.5 21.5 9.601563 21 10.300781 21.300781 C 10.699219 21.398438 10.300781 21.699219 10.898438 22.5 C 12.101563 24.101563 13.800781 25.601563 16.101563 26 C 16.300781 26.601563 16.5 27.300781 16.699219 28.101563 C 12 27.601563 9.101563 23.800781 7.699219 21.101563 Z M 17.601563 32 C 17.5 31.300781 17.300781 30.601563 17.199219 30 C 9.199219 29.5 6 23 4.800781 19.300781 C 4 18.699219 3.101563 18 2.199219 17.199219 C 2.601563 19.101563 5.398438 31.699219 17.601563 32 Z "/>
<path style=" fill:#303F9F;" d="M 38.101563 11.898438 C 38.101563 11.898438 38.898438 8.101563 31 4 C 27.699219 10.101563 35.199219 13.199219 35 16 C 34.800781 18.800781 30 19 30 19 C 26.898438 18.5 21.898438 8 17 8 C 12.101563 8 1.898438 9.398438 1 12 C 0.101563 14.601563 1 16 1 16 C 1 16 9.101563 22.199219 13 22 C 15.898438 21.800781 20 43 20 43 C 20 43 25.199219 41.398438 25.5 33.199219 C 36.398438 30 38 18 38 18 C 38.5 13 44.898438 21 48 14 C 39.601563 8.800781 38.101563 11.898438 38.101563 11.898438 Z "/>
<path style=" fill:#5C6BC0;" d="M 23 27 C 23 27 24.601563 26.601563 25 28 C 27.300781 40.800781 20 44 20 44 C 20 44 15.898438 21.800781 13 22 C 15.300781 22.800781 16 26.699219 19.101563 27.199219 Z M 15 20 C 16.101563 20 17 19.101563 17 18 C 17 16.898438 16.101563 16 15 16 C 13.898438 16 13 16.898438 13 18 C 13 19.101563 13.898438 20 15 20 Z "/>
<path style=" fill:#263238;" d="M 20 23.398438 C 19.898438 23.398438 18.199219 24.398438 17 24.398438 C 16.199219 24.398438 15.300781 24.300781 14.300781 23.101563 C 14 22.800781 13.398438 22.699219 12.5 22.601563 C 10.300781 22.199219 7.199219 21.601563 1.800781 16.800781 C 1.300781 16.300781 1 16 1 16 C 1 16 0.300781 14.898438 0.699219 13 C 7.199219 19.601563 10.398438 20.300781 12.800781 20.699219 C 13.898438 20.898438 14.898438 21 15.699219 21.699219 L 15.800781 21.800781 C 16.898438 23.199219 20 23.398438 20 23.398438 Z M 14 17 C 13.5 17 13 17.398438 13 18 C 13 18.601563 13.398438 19 14 19 C 14.601563 19 15 18.601563 15 18 C 15 17.398438 14.5 17 14 17 Z "/>
</g>
</svg>
