<?xml version="1.0"?>
<svg xmlns="http://www.w3.org/2000/svg" viewBox="0 0 50 50" width="500px" height="500px">
    <path style="line-height:normal;text-indent:0;text-align:start;text-decoration-line:none;text-decoration-style:solid;text-decoration-color:#000;text-transform:none;block-progression:tb;isolation:auto;mix-blend-mode:normal" d="M 37.951172 6.3144531 C 37.545661 6.312445 37.138387 6.3497881 36.734375 6.4277344 A 1.0001 1.0001 0 0 0 36.728516 6.4277344 L 36.708984 6.4316406 C 34.568241 6.8443242 32.79393 8.3449227 32.029297 10.386719 L 29.513672 17.103516 C 28.118216 20.830549 24.860354 23.538728 20.941406 24.230469 L 16.802734 24.960938 C 12.711691 25.683318 8.9150634 27.568168 5.8671875 30.390625 L 3.2246094 32.839844 C 2.4446121 33.562966 2 34.580329 2 35.644531 C 2 36.804915 2.5284637 37.90372 3.4335938 38.628906 A 1.0001 1.0001 0 0 0 3.4375 38.630859 L 3.4667969 38.654297 C 6.1755643 40.820406 9.5414958 42 13.009766 42 L 14 42 A 1.0001 1.0001 0 0 0 14.707031 40.292969 L 12.414062 38 L 28.042969 38 C 28.718522 38 29.36456 37.935207 29.996094 37.847656 L 30.304688 38.230469 C 31.704093 39.980305 33.824235 41 36.064453 41 L 39.957031 41 L 40 41 A 1.0001 1.0001 0 0 0 40.099609 40.994141 A 1.0001 1.0001 0 0 0 40.599609 39.199219 C 40.313766 38.984836 40.038094 38.758417 39.769531 38.525391 C 40.868254 38.837209 42.009404 39 43.162109 39 L 47 39 A 1.0001 1.0001 0 0 0 47.316406 37.050781 L 45.802734 36.546875 C 43.333672 35.723562 41.394866 33.810725 40.521484 31.367188 C 42.497177 28.460502 43.475573 24.84785 42.982422 21.054688 C 42.664112 18.608127 42.183845 16.958015 42.007812 15.84375 L 42.009766 15.84375 C 41.949896 15.463882 42.166145 15.127186 42.558594 15.029297 A 1.0001 1.0001 0 0 0 42.6875 14.988281 L 42.873047 14.916016 A 1.0001 1.0001 0 0 0 42.875 14.914062 C 44.798435 14.144925 46.212237 12.468101 46.658203 10.447266 C 46.960473 9.2109906 45.994756 7.9726562 44.720703 7.9726562 C 44.720703 7.9726562 44.053966 7.9726943 43.378906 7.9707031 C 42.671596 7.9683531 41.981459 7.7567801 41.394531 7.3652344 A 1.0001 1.0001 0 0 0 41.392578 7.3652344 C 40.365879 6.6810658 39.167705 6.3204775 37.951172 6.3144531 z M 37.941406 8.3144531 C 38.768922 8.318705 39.583617 8.5635424 40.283203 9.0292969 C 41.198275 9.6397511 42.274357 9.967053 43.373047 9.9707031 C 44.051987 9.9727131 44.720703 9.9726562 44.720703 9.9726562 A 1.0001 1.0001 0 0 0 44.712891 10.003906 C 44.412959 11.388457 43.445904 12.530785 42.130859 13.056641 L 41.947266 13.130859 L 42.074219 13.089844 C 40.710668 13.429955 39.815069 14.772118 40.033203 16.15625 C 40.245171 17.497985 40.70031 19.00906 41 21.3125 C 41.459335 24.845559 40.448028 28.178388 38.480469 30.777344 C 38.309993 31.003094 38.132416 31.223722 37.947266 31.4375 C 37.897115 31.495561 37.849988 31.556096 37.798828 31.613281 C 37.545719 31.89512 37.279379 32.16465 37.001953 32.423828 C 36.966045 32.457617 36.928871 32.490043 36.892578 32.523438 C 36.612449 32.779297 36.32378 33.027759 36.021484 33.259766 C 36.016341 33.263739 36.011009 33.267518 36.005859 33.271484 C 35.978085 33.292737 35.947874 33.310985 35.919922 33.332031 C 35.716132 32.877765 35.525722 32.416856 35.367188 31.941406 L 34.949219 30.683594 A 1.0001 1.0001 0 0 0 33.958984 29.986328 A 1.0001 1.0001 0 0 0 33.050781 31.316406 L 33.470703 32.572266 A 1.0001 1.0001 0 0 0 33.470703 32.574219 C 33.753737 33.423029 34.123786 34.225541 34.554688 34.992188 A 1.0001 1.0001 0 0 0 34.582031 35.103516 A 1.0008031 1.0008031 0 0 0 34.597656 35.150391 A 1.0001 1.0001 0 0 0 34.615234 35.197266 A 1.0008031 1.0008031 0 0 0 34.619141 35.205078 A 1.0001 1.0001 0 0 0 34.660156 35.291016 A 1.0008031 1.0008031 0 0 0 34.712891 35.382812 C 34.839578 35.616421 34.96952 35.859551 35.125 36.111328 A 1.0001 1.0001 0 0 0 35.460938 36.443359 L 35.488281 36.460938 C 36.12945 37.361277 36.852914 38.206498 37.634766 39 L 36.064453 39 C 34.430671 39 32.885828 38.256633 31.865234 36.980469 L 31.197266 36.146484 L 31.179688 36.125 L 31.177734 36.121094 C 31.175702 36.118553 31.17391 36.11582 31.171875 36.113281 A 1.0001 1.0001 0 0 0 31.097656 36.033203 C 30.157514 34.885418 28.989846 33.952198 27.679688 33.255859 A 1.0001 1.0001 0 0 0 27 33 A 1.0001 1.0001 0 0 0 26.552734 34.894531 C 27.157016 35.196672 27.723708 35.564195 28.244141 35.988281 C 28.176863 35.98994 28.110387 36 28.042969 36 L 10 36 A 1.0001 1.0001 0 0 0 9.2929688 37.707031 L 11.294922 39.708984 C 8.9098463 39.392068 6.6083488 38.60651 4.7128906 37.089844 A 1.0001 1.0001 0 0 0 4.7089844 37.087891 L 4.6835938 37.068359 L 4.6835938 37.066406 C 4.2516148 36.719679 4 36.19753 4 35.644531 C 4 35.136733 4.2119816 34.651518 4.5839844 34.306641 L 7.2265625 31.859375 C 9.9926866 29.297832 13.437434 27.58726 17.150391 26.931641 L 21.289062 26.201172 C 25.902116 25.386913 29.744174 22.191655 31.386719 17.804688 L 33.902344 11.087891 C 34.423711 9.695686 35.628632 8.677797 37.087891 8.3964844 A 1.0001 1.0001 0 0 0 37.095703 8.3945312 L 37.113281 8.390625 C 37.388119 8.3376003 37.665568 8.3130358 37.941406 8.3144531 z M 39 9.9726562 A 1 1 0 0 0 38 10.972656 A 1 1 0 0 0 39 11.972656 A 1 1 0 0 0 40 10.972656 A 1 1 0 0 0 39 9.9726562 z M 39.152344 33.091797 C 39.892995 34.601657 40.961954 35.892808 42.300781 36.882812 C 40.718845 36.749626 39.171489 36.33586 37.804688 35.515625 L 37 35.033203 C 37.779409 34.455544 38.499319 33.804057 39.152344 33.091797 z" font-weight="400" font-family="sans-serif" white-space="normal" overflow="visible"/>
</svg>
