<?xml version="1.0" encoding="UTF-8"?>
<svg xmlns="http://www.w3.org/2000/svg" xmlns:xlink="http://www.w3.org/1999/xlink" viewBox="0 0 32 32" version="1.1" width="512px" height="512px">
<g id="surface1">
<path style=" " d="M 10 5 C 6.773438 5 3.625 6.3125 3.625 6.3125 L 3 6.59375 L 3 27 L 14.28125 27 C 14.628906 27.597656 15.261719 28 16 28 C 16.738281 28 17.371094 27.597656 17.71875 27 L 29 27 L 29 6.59375 L 28.375 6.3125 C 28.375 6.3125 25.226563 5 22 5 C 19.082031 5 16.519531 5.980469 16 6.1875 C 15.480469 5.980469 12.917969 5 10 5 Z M 10 7 C 11.933594 7 14 7.625 15 7.96875 L 15 24.09375 C 13.886719 23.726563 12.058594 23.21875 10 23.21875 C 7.898438 23.21875 6.1875 23.703125 5 24.09375 L 5 7.96875 C 5.769531 7.691406 7.800781 7 10 7 Z M 22 7 C 24.199219 7 26.230469 7.691406 27 7.96875 L 27 24.09375 C 25.8125 23.703125 24.101563 23.21875 22 23.21875 C 19.941406 23.21875 18.113281 23.726563 17 24.09375 L 17 7.96875 C 18 7.625 20.066406 7 22 7 Z "/>
</g>
</svg>
