<?xml version="1.0" encoding="UTF-8"?>
<svg xmlns="http://www.w3.org/2000/svg" xmlns:xlink="http://www.w3.org/1999/xlink" viewBox="0 0 32 32" version="1.1" width="512px" height="512px">
<g id="surface1">
<path style=" " d="M 12.5 4.03125 C 11.242188 4.0625 10.105469 4.40625 9.1875 4.875 C 7.351563 5.816406 6.21875 7.1875 6.21875 7.1875 L 6 7.46875 L 6 9.09375 L 7.09375 9 C 7.09375 9 8.238281 8.898438 9.65625 8.96875 C 10.089844 8.988281 10.371094 9.15625 10.8125 9.21875 C 10.175781 9.488281 9.578125 9.65625 8.9375 10.125 C 7.800781 10.960938 6.734375 12.1875 6.28125 13.90625 C 5.828125 15.625 5.984375 17.777344 7 20.375 L 7.25 21 L 9 21 L 9 20 C 9 16.46875 10.695313 14.882813 12.46875 13.96875 C 12.96875 13.710938 13.449219 13.546875 13.90625 13.40625 L 13 26.9375 L 12.9375 28 L 19.0625 28 L 19 26.9375 L 18.09375 13.40625 C 18.550781 13.546875 19.03125 13.710938 19.53125 13.96875 C 21.304688 14.882813 23 16.46875 23 20 L 23 21 L 24.75 21 L 25 20.375 C 26.015625 17.777344 26.171875 15.625 25.71875 13.90625 C 25.265625 12.1875 24.199219 10.960938 23.0625 10.125 C 22.320313 9.578125 21.597656 9.375 20.875 9.09375 C 21.363281 9.015625 21.859375 8.921875 22.34375 8.90625 C 23.738281 8.855469 24.875 9 24.875 9 L 26 9.125 L 26 7.46875 L 25.78125 7.1875 C 25.78125 7.1875 24.648438 5.816406 22.8125 4.875 C 21.09375 3.992188 18.582031 3.59375 16 4.9375 C 14.796875 4.3125 13.597656 4.003906 12.5 4.03125 Z M 12.53125 5.96875 C 13.421875 5.941406 14.394531 6.179688 15.46875 6.84375 L 16 7.1875 L 16.53125 6.84375 C 18.679688 5.511719 20.4375 5.921875 21.875 6.65625 C 22.082031 6.761719 22.035156 6.789063 22.21875 6.90625 C 20.667969 6.964844 18.804688 7.164063 17.40625 8.1875 L 17 8.5 L 17 10.125 L 17.90625 10.21875 C 17.90625 10.21875 20.152344 10.453125 21.875 11.71875 C 22.738281 12.351563 23.457031 13.179688 23.78125 14.40625 C 23.867188 14.734375 23.851563 15.199219 23.875 15.59375 C 22.992188 13.992188 21.746094 12.878906 20.46875 12.21875 C 18.242188 11.070313 16.03125 11 16.03125 11 L 15.96875 11 C 15.96875 11 13.757813 11.070313 11.53125 12.21875 C 10.253906 12.878906 9.007813 13.992188 8.125 15.59375 C 8.148438 15.199219 8.132813 14.734375 8.21875 14.40625 C 8.542969 13.179688 9.261719 12.351563 10.125 11.71875 C 11.847656 10.453125 14.09375 10.21875 14.09375 10.21875 L 15 10.125 L 15 8.46875 L 14.5625 8.1875 C 13.179688 7.246094 11.34375 7.046875 9.78125 6.96875 C 9.746094 6.96875 9.753906 6.96875 9.71875 6.96875 C 9.933594 6.828125 9.875 6.785156 10.125 6.65625 C 10.84375 6.289063 11.640625 5.996094 12.53125 5.96875 Z M 15.9375 13 C 15.941406 13 15.964844 13 15.96875 13 C 15.96875 13 16.027344 13 16.03125 13 C 16.035156 13 16.058594 13 16.0625 13 L 16.9375 26 L 15.0625 26 Z "/>
</g>
</svg>
