<?xml version="1.0" encoding="UTF-8"?>
<svg xmlns="http://www.w3.org/2000/svg" xmlns:xlink="http://www.w3.org/1999/xlink" viewBox="0 0 32 32" version="1.1" width="512px" height="512px">
<g id="surface1">
<path style=" " d="M 16 2.59375 L 15.28125 3.28125 L 12.5625 6 L 6 6 L 6 12.5625 L 3.28125 15.28125 L 2.59375 16 L 3.28125 16.71875 L 6 19.4375 L 6 26 L 12.5625 26 L 15.28125 28.71875 L 16 29.40625 L 16.71875 28.71875 L 19.4375 26 L 26 26 L 26 19.4375 L 28.71875 16.71875 L 29.40625 16 L 28.71875 15.28125 L 26 12.5625 L 26 6 L 19.4375 6 L 16.71875 3.28125 Z M 16 5.4375 L 18.28125 7.71875 L 18.59375 8 L 24 8 L 24 13.40625 L 24.28125 13.71875 L 26.5625 16 L 24.28125 18.28125 L 24 18.59375 L 24 24 L 18.59375 24 L 18.28125 24.28125 L 16 26.5625 L 13.71875 24.28125 L 13.40625 24 L 8 24 L 8 18.59375 L 7.71875 18.28125 L 5.4375 16 L 7.71875 13.71875 L 8 13.40625 L 8 8 L 13.40625 8 L 13.71875 7.71875 Z M 16 9 C 12.144531 9 9 12.144531 9 16 C 9 19.855469 12.144531 23 16 23 C 19.855469 23 23 19.855469 23 16 C 23 12.144531 19.855469 9 16 9 Z M 16 11 C 18.773438 11 21 13.226563 21 16 C 21 18.773438 18.773438 21 16 21 C 13.226563 21 11 18.773438 11 16 C 11 13.226563 13.226563 11 16 11 Z "/>
</g>
</svg>
