<?xml version="1.0" encoding="UTF-8"?>
<svg xmlns="http://www.w3.org/2000/svg" xmlns:xlink="http://www.w3.org/1999/xlink" viewBox="0 0 32 32" version="1.1" width="512px" height="512px">
<g id="surface1">
<path style=" " d="M 0 5 C 0 5.941406 0.578125 6.683594 1.300781 7.1875 C 2.023438 7.695313 2.960938 8 4 8 C 5.035156 8 5.972656 7.699219 6.695313 7.195313 C 6.804688 7.121094 6.902344 7.03125 7.003906 6.945313 C 7.101563 7.027344 7.195313 7.117188 7.300781 7.1875 C 8.023438 7.695313 8.960938 8 10 8 C 11.035156 8 11.972656 7.699219 12.699219 7.195313 C 12.804688 7.121094 12.902344 7.03125 13.003906 6.945313 C 13.101563 7.027344 13.195313 7.117188 13.300781 7.1875 C 14.023438 7.695313 14.960938 8 16 8 C 17.035156 8 17.972656 7.699219 18.699219 7.195313 C 18.804688 7.121094 18.902344 7.03125 19.003906 6.945313 C 19.101563 7.027344 19.195313 7.117188 19.300781 7.1875 C 20.023438 7.695313 20.960938 8 22 8 C 23.035156 8 23.972656 7.699219 24.699219 7.195313 C 24.804688 7.121094 24.902344 7.03125 25.003906 6.945313 C 25.101563 7.027344 25.195313 7.117188 25.300781 7.1875 C 26.023438 7.695313 26.960938 8 28 8 C 29.035156 8 29.972656 7.699219 30.699219 7.195313 C 31.421875 6.695313 32 5.941406 32 5 L 30 5 C 30 5.058594 29.914063 5.304688 29.558594 5.554688 C 29.199219 5.800781 28.636719 6 28 6 C 27.367188 6 26.804688 5.796875 26.445313 5.546875 C 26.085938 5.300781 26 5.042969 26 5 L 24 5 C 24 5.058594 23.914063 5.304688 23.558594 5.554688 C 23.199219 5.800781 22.636719 6 22 6 C 21.367188 6 20.804688 5.796875 20.445313 5.546875 C 20.085938 5.300781 20 5.042969 20 5 L 18 5 C 18 5.058594 17.914063 5.304688 17.558594 5.554688 C 17.199219 5.800781 16.636719 6 16 6 C 15.367188 6 14.804688 5.796875 14.445313 5.546875 C 14.085938 5.300781 14 5.042969 14 5 L 12 5 C 12 5.058594 11.914063 5.304688 11.558594 5.554688 C 11.199219 5.800781 10.636719 6 10 6 C 9.367188 6 8.804688 5.796875 8.445313 5.546875 C 8.085938 5.300781 8 5.042969 8 5 L 6 5 C 6 5.058594 5.914063 5.304688 5.554688 5.554688 C 5.199219 5.800781 4.636719 6 4 6 C 3.367188 6 2.804688 5.796875 2.445313 5.546875 C 2.085938 5.300781 2 5.042969 2 5 Z M 12.964844 10 L 12.964844 12 L 13.234375 12 C 13.328125 12 13.390625 12.0625 13.390625 12.15625 L 13.390625 12.890625 L 11.800781 12.890625 C 11.382813 12.890625 10.984375 12.992188 10.628906 13.222656 C 10.277344 13.457031 9.921875 13.898438 9.921875 14.46875 L 9.921875 17 L 7.132813 17 C 4.886719 17 3 18.78125 3 21 L 3 22 L 3.210938 22 C 3.683594 23.71875 5.246094 25 7.132813 25 L 19.128906 25 C 20.253906 25 22.390625 24.648438 24.472656 24.082031 C 24.65625 24.035156 24.820313 23.972656 25 23.921875 L 25 26 L 27 26 L 27 23.203125 C 27.105469 23.152344 27.214844 23.105469 27.3125 23.054688 C 27.71875 22.847656 28.078125 22.621094 28.390625 22.316406 C 28.464844 22.242188 28.464844 22.089844 28.535156 22 L 29 22 L 29 21 C 29 20.433594 28.699219 19.988281 28.390625 19.683594 C 28.078125 19.378906 27.71875 19.152344 27.3125 18.945313 C 27.214844 18.894531 27.105469 18.847656 27 18.796875 L 27 16 L 25 16 L 25 18.078125 C 24.820313 18.027344 24.65625 17.964844 24.472656 17.917969 C 22.390625 17.351563 20.253906 17 19.128906 17 L 19.03125 17 L 17.300781 13.78125 L 17.277344 13.734375 C 16.871094 13.066406 16.226563 12.890625 15.601563 12.890625 L 15.390625 12.890625 L 15.390625 12.15625 C 15.390625 10.976563 14.414063 10 13.234375 10 Z M 11.921875 14.890625 L 15.601563 14.890625 C 15.621094 14.890625 15.617188 14.894531 15.628906 14.894531 L 16.761719 17 L 11.921875 17 Z M 7.132813 19 L 19.128906 19 C 19.730469 19 22.027344 19.324219 23.949219 19.84375 C 24.910156 20.105469 25.8125 20.421875 26.398438 20.722656 C 26.609375 20.832031 26.710938 20.917969 26.820313 21 C 26.710938 21.082031 26.609375 21.167969 26.398438 21.277344 C 25.8125 21.578125 24.910156 21.894531 23.949219 22.15625 C 22.027344 22.675781 19.730469 23 19.128906 23 L 7.132813 23 C 5.933594 23 5 22.082031 5 21 C 5 19.917969 5.933594 19 7.132813 19 Z "/>
</g>
</svg>
