<?xml version="1.0" encoding="UTF-8"?>
<svg xmlns="http://www.w3.org/2000/svg" xmlns:xlink="http://www.w3.org/1999/xlink" viewBox="0 0 48 48" version="1.1" width="480px" height="480px">
<g id="surface1">
<path style=" fill:#388E3C;" d="M 7 14.007813 C 6.972656 11.824219 7.847656 9.289063 9.261719 7.570313 C 10.675781 5.855469 12.832031 4.523438 15.222656 4.144531 C 17.609375 3.738281 20.023438 4.296875 21.917969 5.363281 C 23.824219 6.449219 25.035156 8.070313 26 10.007813 C 23.855469 9.695313 22.34375 9.15625 20.636719 8.9375 C 18.933594 8.699219 17.417969 8.671875 16.007813 8.90625 C 14.59375 9.132813 13.207031 9.628906 11.730469 10.433594 C 10.25 11.234375 8.742188 12.757813 7 14.007813 Z "/>
<path style=" fill:#388E3C;" d="M 42 14.007813 C 40.492188 13.078125 39.21875 12.242188 37.964844 11.535156 C 36.722656 10.828125 35.539063 10.285156 34.367188 9.945313 C 33.191406 9.605469 32.003906 9.453125 30.636719 9.496094 C 29.265625 9.523438 27.769531 9.792969 26 10.007813 C 26.816406 8.425781 28.164063 7.195313 29.859375 6.449219 C 31.546875 5.699219 33.628906 5.542969 35.488281 6.109375 C 37.355469 6.652344 38.925781 7.808594 40.042969 9.1875 C 41.144531 10.585938 41.90625 12.210938 42 14.007813 Z "/>
<path style=" fill:#795548;" d="M 15 40.992188 C 26 31.050781 25 10.007813 25 10.007813 L 27 10.007813 C 27 10.007813 28 37.84375 22 43.808594 C 19.957031 44.335938 15 43.972656 15 40.992188 Z "/>
<path style=" fill:#8BC34A;" d="M 26 10.007813 C 21.171875 16.042969 20 28.996094 20 28.996094 "/>
<path style=" fill:#8BC34A;" d="M 26 10.007813 C 25.945313 12.082031 25.855469 13.679688 25.65625 15.285156 C 25.453125 16.871094 25.164063 18.398438 24.742188 19.917969 C 24.324219 21.4375 23.773438 22.9375 23.046875 24.449219 C 22.296875 25.960938 21.414063 27.464844 20 28.996094 C 18.925781 27.191406 18.546875 25.375 18.410156 23.585938 C 18.296875 21.796875 18.480469 20.023438 18.964844 18.308594 C 19.441406 16.59375 20.214844 14.929688 21.339844 13.429688 C 22.46875 11.960938 23.964844 10.566406 26 10.007813 Z "/>
<path style=" fill:#4CAF50;" d="M 26 10.007813 C 23.792969 11.003906 22.089844 11.976563 20.722656 13.050781 C 19.355469 14.113281 18.371094 15.246094 17.460938 16.566406 C 16.554688 17.890625 15.746094 19.445313 14.914063 21.199219 C 14.066406 22.957031 13.253906 24.890625 12 26.996094 C 10.753906 24.886719 10.265625 22.582031 10.300781 20.207031 C 10.363281 17.84375 11.019531 15.351563 12.511719 13.179688 C 13.972656 11.007813 16.339844 9.296875 18.875 8.726563 C 21.394531 8.15625 24.019531 8.519531 26 10.007813 Z "/>
<path style=" fill:#4CAF50;" d="M 37.988281 27.996094 C 36.851563 25.972656 36.035156 24.214844 35.230469 22.550781 C 34.445313 20.898438 33.691406 19.398438 32.894531 18.027344 C 32.089844 16.652344 31.257813 15.402344 30.171875 14.132813 C 29.09375 12.839844 27.722656 11.597656 26 10.007813 C 28.171875 9.132813 30.609375 9.277344 32.816406 10.226563 C 35.023438 11.175781 36.910156 12.953125 38.082031 15.015625 C 39.277344 17.078125 39.828125 19.382813 39.835938 21.609375 C 39.8125 23.835938 39.339844 26.0625 37.988281 27.996094 Z "/>
</g>
</svg>
