<?xml version="1.0" encoding="UTF-8"?>
<svg xmlns="http://www.w3.org/2000/svg" xmlns:xlink="http://www.w3.org/1999/xlink" viewBox="0 0 48 48" version="1.1" width="480px" height="480px">
<g id="surface1">
<path style=" fill:#00B8D4;" d="M 3 38 L 15 35 L 24 37 L 34 35 L 45 38 L 45 22 L 43 22 L 43 15 L 37 13 L 32 15 L 21 10 L 9 21 L 3 22 Z "/>
<path style=" fill:#80DEEA;" d="M 29 19.648438 C 29.515625 18.175781 30.105469 16.738281 30.972656 15.398438 C 31.847656 14.078125 32.898438 12.78125 34.558594 11.839844 C 34.976563 11.605469 35.4375 11.410156 35.953125 11.269531 C 36.203125 11.195313 36.480469 11.144531 36.757813 11.109375 C 37.039063 11.082031 37.34375 11.074219 37.492188 11.078125 C 38.449219 11.089844 39.335938 11.199219 40.261719 11.5 C 41.171875 11.800781 42.09375 12.257813 42.878906 12.96875 C 43.660156 13.671875 44.292969 14.605469 44.625 15.597656 C 44.957031 16.578125 45.046875 17.613281 44.980469 18.496094 C 44.90625 19.464844 44.691406 20.449219 44.144531 21.398438 C 43.609375 22.335938 42.730469 23.125 41.773438 23.527344 C 40.816406 23.941406 39.859375 24.085938 38.800781 23.945313 C 37.914063 23.808594 37.042969 23.546875 36.210938 23.003906 C 35.378906 22.488281 34.671875 21.46875 34.617188 20.464844 C 34.59375 20.21875 34.597656 19.980469 34.621094 19.75 C 34.632813 19.613281 34.652344 19.554688 34.667969 19.449219 L 34.734375 19.125 C 34.828125 18.710938 34.976563 18.296875 35.214844 17.917969 C 35.441406 17.542969 35.753906 17.191406 36.144531 16.992188 C 36.53125 16.792969 36.960938 16.722656 37.339844 16.816406 C 35.777344 17.339844 36 19.089844 36.300781 20.136719 C 36.503906 20.609375 36.824219 20.863281 37.308594 21.046875 C 37.785156 21.222656 38.402344 21.296875 38.996094 21.273438 C 39.429688 21.265625 39.972656 21.019531 40.339844 20.769531 C 40.710938 20.492188 40.941406 20.183594 41.085938 19.796875 C 41.226563 19.417969 41.316406 18.90625 41.292969 18.390625 C 41.292969 17.789063 41.207031 17.3125 41.035156 16.890625 C 40.71875 16.074219 40.070313 15.515625 39.054688 15.148438 C 38.566406 14.980469 37.960938 14.859375 37.433594 14.824219 L 37.050781 14.8125 C 36.953125 14.816406 36.859375 14.804688 36.75 14.824219 C 36.535156 14.839844 36.296875 14.90625 36.039063 14.992188 C 35 15.34375 33.820313 16.117188 32.675781 16.96875 C 31.496094 17.804688 30.371094 18.816406 29 19.648438 Z "/>
<path style=" fill:#80DEEA;" d="M 45 30 C 43.136719 30.4375 41.117188 29.949219 39.339844 29.457031 C 37.542969 28.949219 35.871094 28.453125 34.367188 28.542969 C 33.582031 28.566406 32.949219 28.742188 32.292969 29.011719 C 31.648438 29.292969 30.984375 29.722656 30.152344 30.21875 C 29.335938 30.722656 28.328125 31.21875 27.257813 31.542969 C 26.179688 31.867188 25.0625 31.984375 24 32 C 23.519531 31.996094 22.910156 31.960938 22.378906 31.890625 C 21.832031 31.816406 21.277344 31.707031 20.742188 31.546875 C 19.667969 31.222656 18.664063 30.726563 17.847656 30.222656 C 16.167969 29.199219 15.226563 28.597656 13.605469 28.550781 C 12.15625 28.457031 10.445313 28.953125 8.664063 29.460938 C 6.886719 29.953125 4.863281 30.441406 3 30 C 4.847656 29.570313 6.34375 28.675781 7.917969 27.71875 C 9.496094 26.78125 11.226563 25.765625 13.484375 25.476563 C 14.503906 25.351563 15.730469 25.390625 16.820313 25.71875 C 17.925781 26.027344 18.859375 26.527344 19.640625 26.90625 C 21.1875 27.6875 22.417969 28.007813 24 28 C 25.582031 28.011719 26.8125 27.691406 28.359375 26.910156 C 29.140625 26.53125 30.078125 26.03125 31.179688 25.722656 C 32.265625 25.394531 33.492188 25.355469 34.539063 25.484375 C 36.742188 25.765625 38.515625 26.789063 40.078125 27.722656 C 41.65625 28.679688 43.152344 29.574219 45 30 Z "/>
<path style=" fill:#80DEEA;" d="M 3 38 C 4.847656 37.574219 6.34375 36.679688 7.921875 35.722656 C 9.484375 34.789063 11.257813 33.769531 13.460938 33.484375 C 14.507813 33.355469 15.730469 33.394531 16.820313 33.722656 C 17.921875 34.03125 18.859375 34.53125 19.636719 34.910156 C 21.1875 35.691406 22.417969 36.011719 24 36 C 25.582031 36.007813 26.8125 35.6875 28.359375 34.902344 C 29.140625 34.527344 30.074219 34.023438 31.179688 33.714844 C 32.269531 33.390625 33.496094 33.347656 34.511719 33.476563 C 36.773438 33.761719 38.503906 34.78125 40.082031 35.71875 C 41.65625 36.675781 43.152344 37.570313 45 38 C 43.136719 38.441406 41.113281 37.953125 39.335938 37.460938 C 37.554688 36.953125 35.84375 36.457031 34.398438 36.550781 C 32.773438 36.597656 31.832031 37.195313 30.15625 38.222656 C 29.339844 38.726563 28.332031 39.222656 27.257813 39.546875 C 26.722656 39.707031 26.171875 39.816406 25.625 39.890625 C 25.089844 39.960938 24.480469 39.996094 24 40 C 22.9375 39.984375 21.820313 39.867188 20.742188 39.542969 C 19.671875 39.21875 18.664063 38.722656 17.847656 38.21875 C 17.015625 37.722656 16.347656 37.292969 15.703125 37.011719 C 15.050781 36.742188 14.414063 36.570313 13.628906 36.542969 C 12.128906 36.453125 10.453125 36.949219 8.660156 37.457031 C 6.882813 37.949219 4.863281 38.4375 3 38 Z "/>
<path style=" fill:#80DEEA;" d="M 3 22 C 5.402344 21.605469 8.78125 19.65625 10.371094 17.820313 C 10.371094 17.820313 16 8 22 8 C 29 8 30.753906 11.71875 31.359375 13.15625 C 31.953125 14.589844 32.085938 16.136719 31.953125 17.460938 C 31.871094 18.28125 31.707031 18.960938 31.40625 19.710938 C 31.113281 20.4375 30.660156 21.128906 30.105469 21.714844 C 28.992188 22.90625 27.507813 23.546875 26.109375 23.828125 C 25.753906 23.898438 25.398438 23.941406 25.042969 23.972656 C 24.664063 23.996094 24.367188 24.015625 23.871094 23.980469 C 23.140625 23.910156 22.476563 23.75 21.800781 23.515625 C 21.128906 23.273438 20.464844 22.949219 19.867188 22.472656 C 19.273438 22.007813 18.757813 21.367188 18.484375 20.644531 C 18.214844 19.921875 18.171875 19.167969 18.261719 18.511719 C 18.347656 17.878906 18.5 17.203125 18.824219 16.609375 C 19.136719 16.007813 19.617188 15.476563 20.199219 15.144531 C 20.789063 14.832031 21.445313 14.695313 22.054688 14.78125 C 20.84375 15.070313 20.054688 15.996094 19.886719 16.992188 C 19.792969 17.503906 19.777344 18.007813 19.839844 18.546875 C 19.886719 19.0625 20.03125 19.496094 20.261719 19.847656 C 20.703125 20.542969 21.527344 20.945313 22.507813 21.121094 C 22.988281 21.207031 23.519531 21.238281 23.992188 21.226563 C 24.097656 21.214844 24.402344 21.164063 24.621094 21.109375 C 24.859375 21.054688 25.09375 20.980469 25.320313 20.902344 C 27.21875 20.257813 28.117188 18.957031 28.152344 17.269531 C 28.222656 15.265625 27 12 22 12 C 19 12 12.035156 19.179688 12.035156 19.179688 C 9 22 5.417969 22.394531 3 22 Z "/>
</g>
</svg>
